<svg width="100" height="100" viewBox="0 0 100 100" fill="none" xmlns="http://www.w3.org/2000/svg">
<g clip-path="url(#clip0_5602_25437)">
<rect width="100" height="100" fill="#8D91C5"/>
<path d="M47.6 79.32C47.28 79.32 46.94 79.26 46.57 79.26C46.24 79.26 45.9 79.17 45.54 79.18C45.21 79.18 44.87 79.33 44.51 79.34C44.18 79.34 43.83 79.31 43.48 79.33C43.13 79.35 42.8 79.32 42.45 79.33C42.1 79.34 41.77 79.33 41.42 79.36C41.07 79.39 40.74 79.46 40.4 79.5C40.06 79.54 39.74 79.69 39.39 79.74C39.04 79.79 38.71 79.77 38.36 79.83C38.01 79.89 37.68 79.89 37.33 79.95C36.98 80.01 36.65 80.06 36.31 80.14C35.97 80.22 35.62 80.23 35.29 80.31C34.96 80.39 34.62 80.47 34.29 80.57C33.96 80.67 33.67 80.9 33.35 81.02C33.03 81.14 32.68 81.18 32.35 81.3C32.02 81.42 31.73 81.6 31.41 81.74C31.09 81.88 30.82 82.09 30.5 82.24C30.18 82.39 29.91 82.59 29.61 82.76C29.31 82.93 28.9 82.9 28.6 83.08C28.3 83.26 28.02 83.45 27.73 83.64C27.44 83.83 27.12 83.98 26.84 84.18C26.56 84.38 26.32 84.64 26.05 84.86C25.78 85.08 25.65 85.45 25.38 85.67C25.11 85.89 24.85 86.1 24.6 86.34C24.35 86.58 23.93 86.64 23.69 86.89C23.45 87.14 23.27 87.44 23.03 87.7C22.79 87.96 22.58 88.22 22.36 88.49C22.14 88.76 22.09 89.14 21.88 89.42C21.67 89.7 21.28 89.83 21.08 90.12C20.88 90.41 20.72 90.71 20.53 91C20.34 91.29 20.23 91.62 20.05 91.92C19.87 92.22 19.78 92.55 19.61 92.86C19.44 93.17 19.19 93.41 19.03 93.72C18.87 94.03 18.64 94.3 18.49 94.61C18.34 94.92 18.38 95.31 18.25 95.63C18.12 95.95 17.85 96.21 17.73 96.53C17.61 96.85 17.62 97.22 17.5 97.55C17.38 97.88 17.36 98.22 17.26 98.56C17.16 98.9 16.88 99.16 16.78 99.5C16.68 99.84 16.63 100.29 16.54 100.63C17.03 100.8 17.1 100.54 17.61 100.54C18.12 100.54 18.13 100.47 18.65 100.47C19.17 100.47 19.17 100.67 19.68 100.67C20.19 100.67 20.2 100.54 20.71 100.54C21.22 100.54 21.23 100.52 21.74 100.52C22.25 100.52 22.26 100.63 22.77 100.63C23.28 100.63 23.29 100.65 23.8 100.65C24.31 100.65 24.32 100.57 24.83 100.57C25.34 100.57 25.35 100.58 25.86 100.58C26.37 100.58 26.38 100.61 26.9 100.61C27.42 100.61 27.42 100.38 27.94 100.38C28.46 100.38 28.45 100.42 28.97 100.42C29.49 100.42 29.48 100.61 30 100.61C30.52 100.61 30.52 100.44 31.03 100.44C31.54 100.44 31.55 100.65 32.06 100.65C32.57 100.65 32.58 100.38 33.09 100.38C33.6 100.38 33.61 100.56 34.12 100.56C34.63 100.56 34.64 100.47 35.16 100.47C35.68 100.47 35.68 100.57 36.2 100.57C36.72 100.57 36.72 100.4 37.23 100.4C37.74 100.4 37.75 100.44 38.26 100.44C38.77 100.44 38.78 100.67 39.29 100.67C39.8 100.67 39.81 100.49 40.32 100.49C40.83 100.49 40.84 100.49 41.35 100.49C41.86 100.49 41.87 100.49 42.38 100.49C42.89 100.49 42.9 100.49 43.41 100.49C43.92 100.49 43.93 100.66 44.44 100.66C44.95 100.66 44.96 100.58 45.48 100.58C46 100.58 46 100.58 46.52 100.58C47.04 100.58 47.04 100.67 47.56 100.67C48.08 100.67 48.08 100.56 48.6 100.56C49.12 100.56 49.12 100.6 49.63 100.6C50.14 100.6 50.15 100.64 50.66 100.64C51.17 100.64 51.18 100.66 51.7 100.66C52.22 100.66 52.22 100.68 52.74 100.68C53.26 100.68 53.26 100.48 53.78 100.48C54.3 100.48 54.3 100.61 54.82 100.61C55.34 100.61 55.34 100.63 55.86 100.63C56.38 100.63 56.38 100.43 56.9 100.43C57.42 100.43 57.42 100.62 57.94 100.62C58.46 100.62 58.46 100.55 58.98 100.55C59.5 100.55 59.5 100.64 60.02 100.64C60.54 100.64 60.54 100.58 61.06 100.58C61.58 100.58 61.58 100.65 62.1 100.65C62.62 100.65 62.62 100.57 63.13 100.57C63.64 100.57 63.65 100.57 64.16 100.57C64.67 100.57 64.68 100.64 65.2 100.64C65.72 100.64 65.72 100.51 66.24 100.51C66.76 100.51 66.76 100.58 67.28 100.58C67.8 100.58 67.8 100.56 68.32 100.56C68.84 100.56 68.84 100.62 69.36 100.62C69.88 100.62 69.88 100.62 70.4 100.62C70.92 100.62 70.92 100.55 71.44 100.55C71.96 100.55 71.96 100.51 72.48 100.51C73 100.51 73 100.38 73.52 100.38C74.04 100.38 74.04 100.47 74.56 100.47C75.08 100.47 75.08 100.54 75.61 100.54C76.14 100.54 76.17 100.7 76.66 100.52C77.15 100.34 76.58 100.15 76.39 99.52C76.3 99.25 76.26 98.9 76.13 98.53C76.03 98.24 75.7 98 75.57 97.65C75.45 97.35 75.37 97.02 75.23 96.69C75.1 96.39 75.11 96.01 74.96 95.69C74.82 95.39 74.5 95.17 74.33 94.86C74.18 94.57 74.15 94.2 73.97 93.89C73.79 93.58 73.72 93.25 73.54 92.96C73.36 92.67 73.19 92.38 73 92.09C72.81 91.8 72.58 91.56 72.38 91.27C72.18 90.98 71.88 90.8 71.67 90.52C71.46 90.24 71.25 89.99 71.03 89.73C70.81 89.47 70.64 89.17 70.41 88.91C70.18 88.65 70.08 88.29 69.84 88.04C69.6 87.79 69.25 87.66 69 87.42C68.75 87.18 68.54 86.92 68.29 86.68C68.04 86.44 67.82 86.18 67.56 85.96C67.3 85.74 67.08 85.46 66.81 85.25C66.54 85.04 66.21 84.92 65.93 84.71C65.65 84.5 65.34 84.36 65.06 84.17C64.78 83.98 64.56 83.69 64.27 83.51C63.98 83.33 63.65 83.22 63.35 83.05C63.05 82.88 62.74 82.75 62.43 82.59C62.12 82.43 61.79 82.35 61.48 82.2C61.17 82.05 60.88 81.89 60.56 81.75C60.24 81.61 60.01 81.3 59.69 81.17C59.37 81.04 58.96 81.2 58.63 81.08C58.3 80.96 58.05 80.69 57.72 80.58C57.39 80.47 57.09 80.32 56.75 80.23C56.41 80.14 56.04 80.27 55.7 80.19C55.36 80.11 55.03 80.08 54.69 80.01C54.35 79.94 54.07 79.63 53.73 79.57C53.39 79.51 53.02 79.72 52.68 79.67C52.34 79.62 52.03 79.43 51.68 79.4C51.33 79.37 51 79.33 50.66 79.31C50.32 79.29 49.98 79.34 49.63 79.32C49.28 79.3 48.95 79.35 48.6 79.35C48.25 79.35 47.92 79.3 47.57 79.3L47.6 79.32Z" fill="white"/>
<path d="M47.6 79.32C47.28 79.32 46.94 79.26 46.57 79.26C46.24 79.26 45.9 79.17 45.54 79.18C45.21 79.18 44.87 79.33 44.51 79.34C44.18 79.34 43.83 79.31 43.48 79.33C43.13 79.35 42.8 79.32 42.45 79.33C42.1 79.34 41.77 79.33 41.42 79.36C41.07 79.39 40.74 79.46 40.4 79.5C40.06 79.54 39.74 79.69 39.39 79.74C39.04 79.79 38.71 79.77 38.36 79.83C38.01 79.89 37.68 79.89 37.33 79.95C36.98 80.01 36.65 80.06 36.31 80.14C35.97 80.22 35.62 80.23 35.29 80.31C34.96 80.39 34.62 80.47 34.29 80.57C33.96 80.67 33.67 80.9 33.35 81.02C33.03 81.14 32.68 81.18 32.35 81.3C32.02 81.42 31.73 81.6 31.41 81.74C31.09 81.88 30.82 82.09 30.5 82.24C30.18 82.39 29.91 82.59 29.61 82.76C29.31 82.93 28.9 82.9 28.6 83.08C28.3 83.26 28.02 83.45 27.73 83.64C27.44 83.83 27.12 83.98 26.84 84.18C26.56 84.38 26.32 84.64 26.05 84.86C25.78 85.08 25.65 85.45 25.38 85.67C25.11 85.89 24.85 86.1 24.6 86.34C24.35 86.58 23.93 86.64 23.69 86.89C23.45 87.14 23.27 87.44 23.03 87.7C22.79 87.96 22.58 88.22 22.36 88.49C22.14 88.76 22.09 89.14 21.88 89.42C21.67 89.7 21.28 89.83 21.08 90.12C20.88 90.41 20.72 90.71 20.53 91C20.34 91.29 20.23 91.62 20.05 91.92C19.87 92.22 19.78 92.55 19.61 92.86C19.44 93.17 19.19 93.41 19.03 93.72C18.87 94.03 18.64 94.3 18.49 94.61C18.34 94.92 18.38 95.31 18.25 95.63C18.12 95.95 17.85 96.21 17.73 96.53C17.61 96.85 17.62 97.22 17.5 97.55C17.38 97.88 17.36 98.22 17.26 98.56C17.16 98.9 16.88 99.16 16.78 99.5C16.68 99.84 16.63 100.29 16.54 100.63C17.03 100.8 17.1 100.54 17.61 100.54C18.12 100.54 18.13 100.47 18.65 100.47C19.17 100.47 19.17 100.67 19.68 100.67C20.19 100.67 20.2 100.54 20.71 100.54C21.22 100.54 21.23 100.52 21.74 100.52C22.25 100.52 22.26 100.63 22.77 100.63C23.28 100.63 23.29 100.65 23.8 100.65C24.31 100.65 24.32 100.57 24.83 100.57C25.34 100.57 25.35 100.58 25.86 100.58C26.37 100.58 26.38 100.61 26.9 100.61C27.42 100.61 27.42 100.38 27.94 100.38C28.46 100.38 28.45 100.42 28.97 100.42C29.49 100.42 29.48 100.61 30 100.61C30.52 100.61 30.52 100.44 31.03 100.44C31.54 100.44 31.55 100.65 32.06 100.65C32.57 100.65 32.58 100.38 33.09 100.38C33.6 100.38 33.61 100.56 34.12 100.56C34.63 100.56 34.64 100.47 35.16 100.47C35.68 100.47 35.68 100.57 36.2 100.57C36.72 100.57 36.72 100.4 37.23 100.4C37.74 100.4 37.75 100.44 38.26 100.44C38.77 100.44 38.78 100.67 39.29 100.67C39.8 100.67 39.81 100.49 40.32 100.49C40.83 100.49 40.84 100.49 41.35 100.49C41.86 100.49 41.87 100.49 42.38 100.49C42.89 100.49 42.9 100.49 43.41 100.49C43.92 100.49 43.93 100.66 44.44 100.66C44.95 100.66 44.96 100.58 45.48 100.58C46 100.58 46 100.58 46.52 100.58C47.04 100.58 47.04 100.67 47.56 100.67C48.08 100.67 48.08 100.56 48.6 100.56C49.12 100.56 49.12 100.6 49.63 100.6C50.14 100.6 50.15 100.64 50.66 100.64C51.17 100.64 51.18 100.66 51.7 100.66C52.22 100.66 52.22 100.68 52.74 100.68C53.26 100.68 53.26 100.48 53.78 100.48C54.3 100.48 54.3 100.61 54.82 100.61C55.34 100.61 55.34 100.63 55.86 100.63C56.38 100.63 56.38 100.43 56.9 100.43C57.42 100.43 57.42 100.62 57.94 100.62C58.46 100.62 58.46 100.55 58.98 100.55C59.5 100.55 59.5 100.64 60.02 100.64C60.54 100.64 60.54 100.58 61.06 100.58C61.58 100.58 61.58 100.65 62.1 100.65C62.62 100.65 62.62 100.57 63.13 100.57C63.64 100.57 63.65 100.57 64.16 100.57C64.67 100.57 64.68 100.64 65.2 100.64C65.72 100.64 65.72 100.51 66.24 100.51C66.76 100.51 66.76 100.58 67.28 100.58C67.8 100.58 67.8 100.56 68.32 100.56C68.84 100.56 68.84 100.62 69.36 100.62C69.88 100.62 69.88 100.62 70.4 100.62C70.92 100.62 70.92 100.55 71.44 100.55C71.96 100.55 71.96 100.51 72.48 100.51C73 100.51 73 100.38 73.52 100.38C74.04 100.38 74.04 100.47 74.56 100.47C75.08 100.47 75.08 100.54 75.61 100.54C76.14 100.54 76.17 100.7 76.66 100.52C77.15 100.34 76.58 100.15 76.39 99.52C76.3 99.25 76.26 98.9 76.13 98.53C76.03 98.24 75.7 98 75.57 97.65C75.45 97.35 75.37 97.02 75.23 96.69C75.1 96.39 75.11 96.01 74.96 95.69C74.82 95.39 74.5 95.17 74.33 94.86C74.18 94.57 74.15 94.2 73.97 93.89C73.79 93.58 73.72 93.25 73.54 92.96C73.36 92.67 73.19 92.38 73 92.09C72.81 91.8 72.58 91.56 72.38 91.27C72.18 90.98 71.88 90.8 71.67 90.52C71.46 90.24 71.25 89.99 71.03 89.73C70.81 89.47 70.64 89.17 70.41 88.91C70.18 88.65 70.08 88.29 69.84 88.04C69.6 87.79 69.25 87.66 69 87.42C68.75 87.18 68.54 86.92 68.29 86.68C68.04 86.44 67.82 86.18 67.56 85.96C67.3 85.74 67.08 85.46 66.81 85.25C66.54 85.04 66.21 84.92 65.93 84.71C65.65 84.5 65.34 84.36 65.06 84.17C64.78 83.98 64.56 83.69 64.27 83.51C63.98 83.33 63.65 83.22 63.35 83.05C63.05 82.88 62.74 82.75 62.43 82.59C62.12 82.43 61.79 82.35 61.48 82.2C61.17 82.05 60.88 81.89 60.56 81.75C60.24 81.61 60.01 81.3 59.69 81.17C59.37 81.04 58.96 81.2 58.63 81.08C58.3 80.96 58.05 80.69 57.72 80.58C57.39 80.47 57.09 80.32 56.75 80.23C56.41 80.14 56.04 80.27 55.7 80.19C55.36 80.11 55.03 80.08 54.69 80.01C54.35 79.94 54.07 79.63 53.73 79.57C53.39 79.51 53.02 79.72 52.68 79.67C52.34 79.62 52.03 79.43 51.68 79.4C51.33 79.37 51 79.33 50.66 79.31C50.32 79.29 49.98 79.34 49.63 79.32C49.28 79.3 48.95 79.35 48.6 79.35C48.25 79.35 47.92 79.3 47.57 79.3L47.6 79.32Z" stroke="#E1E3E5" stroke-width="1.5" stroke-linecap="round" stroke-linejoin="round"/>
<path d="M18.79 87.96C18.74 88.31 18.49 88.59 18.37 88.9C18.25 89.21 18.11 89.51 17.91 89.79C17.71 90.07 17.65 90.48 17.39 90.71C17.13 90.94 16.84 91.18 16.54 91.34C16.24 91.5 15.83 91.45 15.5 91.55C15.17 91.65 14.86 91.89 14.51 91.92C14.16 91.95 13.82 91.82 13.47 91.77C13.12 91.72 12.77 91.66 12.46 91.54C12.15 91.42 11.78 91.31 11.5 91.12C11.22 90.93 10.98 90.64 10.74 90.4C10.5 90.16 10.19 89.93 10.01 89.64C9.83002 89.35 9.90002 88.93 9.78002 88.6C9.66002 88.27 9.34002 87.99 9.31002 87.65C9.28002 87.31 9.33002 86.94 9.38002 86.59C9.43002 86.24 9.70002 85.96 9.83002 85.64C9.96002 85.32 10.11 85.03 10.31 84.75C10.51 84.47 10.65 84.14 10.91 83.91C11.17 83.68 11.53 83.62 11.84 83.46C12.15 83.3 12.4 83.07 12.74 82.97C13.08 82.87 13.39 82.65 13.74 82.63C14.09 82.61 14.41 82.9 14.76 82.95C15.11 83 15.46 82.95 15.78 83.07C16.1 83.19 16.4 83.36 16.69 83.54C16.98 83.72 17.35 83.84 17.59 84.08C17.83 84.32 18 84.65 18.19 84.94C18.38 85.23 18.47 85.57 18.58 85.9C18.69 86.23 18.68 86.56 18.72 86.91C18.76 87.26 18.88 87.59 18.83 87.94L18.79 87.96Z" fill="#DB7856"/>
<path d="M18.79 87.96C18.74 88.31 18.49 88.59 18.37 88.9C18.25 89.21 18.11 89.51 17.91 89.79C17.71 90.07 17.65 90.48 17.39 90.71C17.13 90.94 16.84 91.18 16.54 91.34C16.24 91.5 15.83 91.45 15.5 91.55C15.17 91.65 14.86 91.89 14.51 91.92C14.16 91.95 13.82 91.82 13.47 91.77C13.12 91.72 12.77 91.66 12.46 91.54C12.15 91.42 11.78 91.31 11.5 91.12C11.22 90.93 10.98 90.64 10.74 90.4C10.5 90.16 10.19 89.93 10.01 89.64C9.83002 89.35 9.90002 88.93 9.78002 88.6C9.66002 88.27 9.34002 87.99 9.31002 87.65C9.28002 87.31 9.33002 86.94 9.38002 86.59C9.43002 86.24 9.70002 85.96 9.83002 85.64C9.96002 85.32 10.11 85.03 10.31 84.75C10.51 84.47 10.65 84.14 10.91 83.91C11.17 83.68 11.53 83.62 11.84 83.46C12.15 83.3 12.4 83.07 12.74 82.97C13.08 82.87 13.39 82.65 13.74 82.63C14.09 82.61 14.41 82.9 14.76 82.95C15.11 83 15.46 82.95 15.78 83.07C16.1 83.19 16.4 83.36 16.69 83.54C16.98 83.72 17.35 83.84 17.59 84.08C17.83 84.32 18 84.65 18.19 84.94C18.38 85.23 18.47 85.57 18.58 85.9C18.69 86.23 18.68 86.56 18.72 86.91C18.76 87.26 18.88 87.59 18.83 87.94L18.79 87.96Z" stroke="#CE5D3E" stroke-width="1.5" stroke-linecap="round" stroke-linejoin="round"/>
<path d="M23.57 80.78C23.52 81.13 23.49 81.46 23.38 81.78C23.27 82.1 23.24 82.49 23.06 82.78C22.88 83.07 22.68 83.39 22.44 83.64C22.2 83.89 21.8 83.96 21.51 84.16C21.22 84.36 20.91 84.45 20.59 84.59C20.27 84.73 20.01 84.96 19.67 85.04C19.33 85.12 18.99 85.05 18.65 85.07C18.31 85.09 17.96 85.28 17.61 85.23C17.26 85.18 16.94 85 16.62 84.89C16.3 84.78 16.03 84.53 15.74 84.37C15.45 84.21 15.06 84.14 14.8 83.92C14.54 83.7 14.27 83.45 14.06 83.19C13.85 82.93 13.75 82.57 13.59 82.26C13.43 81.95 13.34 81.63 13.25 81.3C13.16 80.97 12.91 80.66 12.89 80.31C12.87 79.96 13.02 79.62 13.07 79.28C13.12 78.94 13.31 78.64 13.42 78.32C13.53 78 13.56 77.63 13.74 77.34C13.92 77.05 14.14 76.78 14.38 76.53C14.62 76.28 14.94 76.14 15.22 75.94C15.5 75.74 15.75 75.5 16.06 75.36C16.37 75.22 16.71 75.16 17.05 75.08C17.39 75 17.71 74.95 18.06 74.94C18.41 74.93 18.72 75.01 19.07 75.06C19.42 75.11 19.79 75.03 20.11 75.14C20.43 75.25 20.73 75.46 21.03 75.62C21.33 75.78 21.63 75.96 21.89 76.19C22.15 76.42 22.36 76.7 22.57 76.96C22.78 77.22 23.02 77.49 23.17 77.79C23.32 78.09 23.59 78.38 23.68 78.71C23.77 79.04 23.73 79.42 23.76 79.76C23.79 80.1 23.63 80.43 23.58 80.78H23.57Z" fill="#DB7856"/>
<path d="M23.57 80.78C23.52 81.13 23.49 81.46 23.38 81.78C23.27 82.1 23.24 82.49 23.06 82.78C22.88 83.07 22.68 83.39 22.44 83.64C22.2 83.89 21.8 83.96 21.51 84.16C21.22 84.36 20.91 84.45 20.59 84.59C20.27 84.73 20.01 84.96 19.67 85.04C19.33 85.12 18.99 85.05 18.65 85.07C18.31 85.09 17.96 85.28 17.61 85.23C17.26 85.18 16.94 85 16.62 84.89C16.3 84.78 16.03 84.53 15.74 84.37C15.45 84.21 15.06 84.14 14.8 83.92C14.54 83.7 14.27 83.45 14.06 83.19C13.85 82.93 13.75 82.57 13.59 82.26C13.43 81.95 13.34 81.63 13.25 81.3C13.16 80.97 12.91 80.66 12.89 80.31C12.87 79.96 13.02 79.62 13.07 79.28C13.12 78.94 13.31 78.64 13.42 78.32C13.53 78 13.56 77.63 13.74 77.34C13.92 77.05 14.14 76.78 14.38 76.53C14.62 76.28 14.94 76.14 15.22 75.94C15.5 75.74 15.75 75.5 16.06 75.36C16.37 75.22 16.71 75.16 17.05 75.08C17.39 75 17.71 74.95 18.06 74.94C18.41 74.93 18.72 75.01 19.07 75.06C19.42 75.11 19.79 75.03 20.11 75.14C20.43 75.25 20.73 75.46 21.03 75.62C21.33 75.78 21.63 75.96 21.89 76.19C22.15 76.42 22.36 76.7 22.57 76.96C22.78 77.22 23.02 77.49 23.17 77.79C23.32 78.09 23.59 78.38 23.68 78.71C23.77 79.04 23.73 79.42 23.76 79.76C23.79 80.1 23.63 80.43 23.58 80.78H23.57Z" stroke="#CE5D3E" stroke-width="1.5" stroke-linecap="round" stroke-linejoin="round"/>
<path d="M28.91 73.75C28.86 74.1 28.75 74.44 28.64 74.77C28.53 75.1 28.33 75.4 28.16 75.7C27.99 76 27.73 76.24 27.51 76.51C27.29 76.78 27.12 77.08 26.85 77.31C26.58 77.54 26.38 77.86 26.07 78.04C25.76 78.22 25.42 78.35 25.09 78.47C24.76 78.59 24.39 78.57 24.04 78.64C23.69 78.71 23.36 78.89 23.01 78.9C22.66 78.91 22.32 78.72 21.97 78.67C21.62 78.62 21.26 78.61 20.94 78.5C20.62 78.39 20.35 78.11 20.04 77.96C19.73 77.81 19.32 77.8 19.04 77.59C18.76 77.38 18.44 77.18 18.2 76.93C17.96 76.68 17.96 76.23 17.77 75.94C17.58 75.65 17.29 75.42 17.15 75.1C17.01 74.78 16.99 74.43 16.92 74.08C16.85 73.73 16.55 73.42 16.54 73.07C16.53 72.72 16.61 72.36 16.66 72.01C16.71 71.66 16.97 71.36 17.08 71.03C17.19 70.7 17.33 70.39 17.5 70.09C17.67 69.79 17.72 69.39 17.95 69.13C18.18 68.87 18.54 68.73 18.81 68.51C19.08 68.29 19.24 67.91 19.55 67.73C19.86 67.55 20.22 67.49 20.55 67.37C20.88 67.25 21.22 67.18 21.57 67.11C21.92 67.04 22.26 67.03 22.61 67.03C22.96 67.03 23.31 66.96 23.66 67.01C24.01 67.06 24.35 67.19 24.68 67.29C25.01 67.39 25.3 67.61 25.61 67.77C25.92 67.93 26.21 68.11 26.49 68.32C26.77 68.53 27.05 68.73 27.29 68.98C27.53 69.23 27.72 69.52 27.91 69.81C28.1 70.1 28.41 70.33 28.55 70.66C28.69 70.99 28.63 71.37 28.71 71.71C28.79 72.05 28.86 72.38 28.87 72.73C28.88 73.08 28.99 73.43 28.93 73.78L28.91 73.75Z" fill="#DB7856"/>
<path d="M28.91 73.75C28.86 74.1 28.75 74.44 28.64 74.77C28.53 75.1 28.33 75.4 28.16 75.7C27.99 76 27.73 76.24 27.51 76.51C27.29 76.78 27.12 77.08 26.85 77.31C26.58 77.54 26.38 77.86 26.07 78.04C25.76 78.22 25.42 78.35 25.09 78.47C24.76 78.59 24.39 78.57 24.04 78.64C23.69 78.71 23.36 78.89 23.01 78.9C22.66 78.91 22.32 78.72 21.97 78.67C21.62 78.62 21.26 78.61 20.94 78.5C20.62 78.39 20.35 78.11 20.04 77.96C19.73 77.81 19.32 77.8 19.04 77.59C18.76 77.38 18.44 77.18 18.2 76.93C17.96 76.68 17.96 76.23 17.77 75.94C17.58 75.65 17.29 75.42 17.15 75.1C17.01 74.78 16.99 74.43 16.92 74.08C16.85 73.73 16.55 73.42 16.54 73.07C16.53 72.72 16.61 72.36 16.66 72.01C16.71 71.66 16.97 71.36 17.08 71.03C17.19 70.7 17.33 70.39 17.5 70.09C17.67 69.79 17.72 69.39 17.95 69.13C18.18 68.87 18.54 68.73 18.81 68.51C19.08 68.29 19.24 67.91 19.55 67.73C19.86 67.55 20.22 67.49 20.55 67.37C20.88 67.25 21.22 67.18 21.57 67.11C21.92 67.04 22.26 67.03 22.61 67.03C22.96 67.03 23.31 66.96 23.66 67.01C24.01 67.06 24.35 67.19 24.68 67.29C25.01 67.39 25.3 67.61 25.61 67.77C25.92 67.93 26.21 68.11 26.49 68.32C26.77 68.53 27.05 68.73 27.29 68.98C27.53 69.23 27.72 69.52 27.91 69.81C28.1 70.1 28.41 70.33 28.55 70.66C28.69 70.99 28.63 71.37 28.71 71.71C28.79 72.05 28.86 72.38 28.87 72.73C28.88 73.08 28.99 73.43 28.93 73.78L28.91 73.75Z" stroke="#CE5D3E" stroke-width="1.5" stroke-linecap="round" stroke-linejoin="round"/>
<path d="M74.97 89.51C75.02 89.86 75.31 90.14 75.43 90.45C75.55 90.76 75.66 91.09 75.86 91.37C76.06 91.65 76.33 91.85 76.59 92.08C76.85 92.31 77.02 92.65 77.32 92.82C77.62 92.99 77.93 93.2 78.26 93.3C78.59 93.4 78.97 93.27 79.32 93.3C79.67 93.33 80 93.4 80.35 93.35C80.7 93.3 81.06 93.26 81.38 93.15C81.7 93.04 81.91 92.67 82.2 92.49C82.49 92.31 82.86 92.22 83.1 91.98C83.34 91.74 83.61 91.48 83.79 91.19C83.97 90.9 84.09 90.55 84.2 90.22C84.31 89.89 84.25 89.54 84.29 89.19C84.33 88.84 84.52 88.5 84.47 88.15C84.42 87.8 84.2 87.49 84.07 87.18C83.94 86.87 83.84 86.52 83.64 86.24C83.44 85.96 83.21 85.68 82.96 85.45C82.71 85.22 82.32 85.18 82.01 85.02C81.7 84.86 81.47 84.56 81.13 84.46C80.79 84.36 80.44 84.46 80.09 84.43C79.74 84.4 79.42 84.36 79.07 84.41C78.72 84.46 78.41 84.57 78.09 84.69C77.77 84.81 77.36 84.79 77.07 84.98C76.78 85.17 76.53 85.44 76.29 85.69C76.05 85.94 75.81 86.21 75.62 86.5C75.43 86.79 75.39 87.16 75.28 87.48C75.17 87.8 74.98 88.12 74.94 88.47C74.9 88.82 74.91 89.17 74.96 89.52L74.97 89.51Z" fill="#DB7856"/>
<path d="M74.97 89.51C75.02 89.86 75.31 90.14 75.43 90.45C75.55 90.76 75.66 91.09 75.86 91.37C76.06 91.65 76.33 91.85 76.59 92.08C76.85 92.31 77.02 92.65 77.32 92.82C77.62 92.99 77.93 93.2 78.26 93.3C78.59 93.4 78.97 93.27 79.32 93.3C79.67 93.33 80 93.4 80.35 93.35C80.7 93.3 81.06 93.26 81.38 93.15C81.7 93.04 81.91 92.67 82.2 92.49C82.49 92.31 82.86 92.22 83.1 91.98C83.34 91.74 83.61 91.48 83.79 91.19C83.97 90.9 84.09 90.55 84.2 90.22C84.31 89.89 84.25 89.54 84.29 89.19C84.33 88.84 84.52 88.5 84.47 88.15C84.42 87.8 84.2 87.49 84.07 87.18C83.94 86.87 83.84 86.52 83.64 86.24C83.44 85.96 83.21 85.68 82.96 85.45C82.71 85.22 82.32 85.18 82.01 85.02C81.7 84.86 81.47 84.56 81.13 84.46C80.79 84.36 80.44 84.46 80.09 84.43C79.74 84.4 79.42 84.36 79.07 84.41C78.72 84.46 78.41 84.57 78.09 84.69C77.77 84.81 77.36 84.79 77.07 84.98C76.78 85.17 76.53 85.44 76.29 85.69C76.05 85.94 75.81 86.21 75.62 86.5C75.43 86.79 75.39 87.16 75.28 87.48C75.17 87.8 74.98 88.12 74.94 88.47C74.9 88.82 74.91 89.17 74.96 89.52L74.97 89.51Z" stroke="#CE5D3E" stroke-width="1.5" stroke-linecap="round" stroke-linejoin="round"/>
<path d="M70.26 82.32C70.31 82.67 70.18 83.06 70.29 83.38C70.4 83.7 70.75 83.93 70.93 84.22C71.11 84.51 71.28 84.81 71.51 85.06C71.74 85.31 71.92 85.65 72.2 85.85C72.48 86.05 72.82 86.19 73.13 86.33C73.44 86.47 73.76 86.66 74.1 86.74C74.44 86.82 74.81 86.68 75.16 86.7C75.51 86.72 75.83 86.68 76.18 86.63C76.53 86.58 76.88 86.58 77.2 86.47C77.52 86.36 77.83 86.18 78.13 86.01C78.43 85.84 78.69 85.61 78.95 85.39C79.21 85.17 79.4 84.89 79.61 84.62C79.82 84.35 80.08 84.12 80.23 83.81C80.38 83.5 80.68 83.24 80.77 82.9C80.86 82.56 80.86 82.2 80.88 81.85C80.9 81.5 80.76 81.17 80.71 80.82C80.66 80.47 80.55 80.16 80.44 79.84C80.33 79.52 80.3 79.14 80.12 78.85C79.94 78.56 79.6 78.38 79.36 78.13C79.12 77.88 78.97 77.53 78.69 77.33C78.41 77.13 78.1 76.96 77.78 76.82C77.46 76.68 77.12 76.63 76.78 76.55C76.44 76.47 76.11 76.45 75.76 76.44C75.41 76.43 75.08 76.41 74.73 76.46C74.38 76.51 74.04 76.58 73.72 76.69C73.4 76.8 73.11 77.01 72.82 77.18C72.53 77.35 72.18 77.47 71.92 77.69C71.66 77.91 71.36 78.13 71.15 78.39C70.94 78.65 70.78 78.99 70.62 79.29C70.46 79.59 70.35 79.93 70.26 80.26C70.17 80.59 70.26 80.94 70.23 81.29C70.2 81.64 70.21 81.95 70.25 82.3L70.26 82.32Z" fill="#DB7856"/>
<path d="M70.26 82.32C70.31 82.67 70.18 83.06 70.29 83.38C70.4 83.7 70.75 83.93 70.93 84.22C71.11 84.51 71.28 84.81 71.51 85.06C71.74 85.31 71.92 85.65 72.2 85.85C72.48 86.05 72.82 86.19 73.13 86.33C73.44 86.47 73.76 86.66 74.1 86.74C74.44 86.82 74.81 86.68 75.16 86.7C75.51 86.72 75.83 86.68 76.18 86.63C76.53 86.58 76.88 86.58 77.2 86.47C77.52 86.36 77.83 86.18 78.13 86.01C78.43 85.84 78.69 85.61 78.95 85.39C79.21 85.17 79.4 84.89 79.61 84.62C79.82 84.35 80.08 84.12 80.23 83.81C80.38 83.5 80.68 83.24 80.77 82.9C80.86 82.56 80.86 82.2 80.88 81.85C80.9 81.5 80.76 81.17 80.71 80.82C80.66 80.47 80.55 80.16 80.44 79.84C80.33 79.52 80.3 79.14 80.12 78.85C79.94 78.56 79.6 78.38 79.36 78.13C79.12 77.88 78.97 77.53 78.69 77.33C78.41 77.13 78.1 76.96 77.78 76.82C77.46 76.68 77.12 76.63 76.78 76.55C76.44 76.47 76.11 76.45 75.76 76.44C75.41 76.43 75.08 76.41 74.73 76.46C74.38 76.51 74.04 76.58 73.72 76.69C73.4 76.8 73.11 77.01 72.82 77.18C72.53 77.35 72.18 77.47 71.92 77.69C71.66 77.91 71.36 78.13 71.15 78.39C70.94 78.65 70.78 78.99 70.62 79.29C70.46 79.59 70.35 79.93 70.26 80.26C70.17 80.59 70.26 80.94 70.23 81.29C70.2 81.64 70.21 81.95 70.25 82.3L70.26 82.32Z" stroke="#CE5D3E" stroke-width="1.5" stroke-linecap="round" stroke-linejoin="round"/>
<path d="M64.83 75.3C64.88 75.65 65.22 75.93 65.33 76.26C65.44 76.59 65.54 76.91 65.71 77.21C65.88 77.51 65.88 77.95 66.1 78.22C66.32 78.49 66.74 78.58 67 78.81C67.26 79.04 67.55 79.21 67.86 79.39C68.17 79.57 68.41 79.84 68.74 79.97C69.07 80.1 69.41 80.18 69.76 80.25C70.11 80.32 70.46 80.3 70.81 80.31C71.16 80.32 71.49 80.22 71.84 80.17C72.19 80.12 72.53 80.08 72.86 79.97C73.19 79.86 73.53 79.76 73.83 79.6C74.13 79.44 74.53 79.37 74.8 79.17C75.07 78.97 75.21 78.58 75.45 78.32C75.69 78.06 75.89 77.8 76.08 77.51C76.27 77.22 76.63 77.01 76.77 76.69C76.91 76.37 76.76 75.95 76.84 75.61C76.92 75.27 77.25 74.96 77.26 74.61C77.27 74.26 77.25 73.89 77.2 73.54C77.15 73.19 76.85 72.9 76.73 72.57C76.61 72.24 76.63 71.85 76.46 71.54C76.29 71.23 76.09 70.93 75.87 70.66C75.65 70.39 75.3 70.23 75.04 70.01C74.78 69.79 74.58 69.44 74.28 69.26C73.98 69.08 73.65 68.9 73.32 68.78C72.99 68.66 72.6 68.71 72.26 68.65C71.92 68.59 71.58 68.44 71.22 68.43C70.86 68.42 70.53 68.57 70.18 68.62C69.83 68.67 69.51 68.81 69.18 68.91C68.85 69.01 68.55 69.18 68.24 69.33C67.93 69.48 67.61 69.61 67.33 69.82C67.05 70.03 66.7 70.17 66.46 70.42C66.22 70.67 65.98 70.95 65.79 71.24C65.6 71.53 65.56 71.91 65.42 72.23C65.28 72.55 65.02 72.84 64.94 73.18C64.86 73.52 64.91 73.89 64.89 74.24C64.87 74.59 64.77 74.95 64.82 75.3H64.83Z" fill="#DB7856"/>
<path d="M64.83 75.3C64.88 75.65 65.22 75.93 65.33 76.26C65.44 76.59 65.54 76.91 65.71 77.21C65.88 77.51 65.88 77.95 66.1 78.22C66.32 78.49 66.74 78.58 67 78.81C67.26 79.04 67.55 79.21 67.86 79.39C68.17 79.57 68.41 79.84 68.74 79.97C69.07 80.1 69.41 80.18 69.76 80.25C70.11 80.32 70.46 80.3 70.81 80.31C71.16 80.32 71.49 80.22 71.84 80.17C72.19 80.12 72.53 80.08 72.86 79.97C73.19 79.86 73.53 79.76 73.83 79.6C74.13 79.44 74.53 79.37 74.8 79.17C75.07 78.97 75.21 78.58 75.45 78.32C75.69 78.06 75.89 77.8 76.08 77.51C76.27 77.22 76.63 77.01 76.77 76.69C76.91 76.37 76.76 75.95 76.84 75.61C76.92 75.27 77.25 74.96 77.26 74.61C77.27 74.26 77.25 73.89 77.2 73.54C77.15 73.19 76.85 72.9 76.73 72.57C76.61 72.24 76.63 71.85 76.46 71.54C76.29 71.23 76.09 70.93 75.87 70.66C75.65 70.39 75.3 70.23 75.04 70.01C74.78 69.79 74.58 69.44 74.28 69.26C73.98 69.08 73.65 68.9 73.32 68.78C72.99 68.66 72.6 68.71 72.26 68.65C71.92 68.59 71.58 68.44 71.22 68.43C70.86 68.42 70.53 68.57 70.18 68.62C69.83 68.67 69.51 68.81 69.18 68.91C68.85 69.01 68.55 69.18 68.24 69.33C67.93 69.48 67.61 69.61 67.33 69.82C67.05 70.03 66.7 70.17 66.46 70.42C66.22 70.67 65.98 70.95 65.79 71.24C65.6 71.53 65.56 71.91 65.42 72.23C65.28 72.55 65.02 72.84 64.94 73.18C64.86 73.52 64.91 73.89 64.89 74.24C64.87 74.59 64.77 74.95 64.82 75.3H64.83Z" stroke="#CE5D3E" stroke-width="1.5" stroke-linecap="round" stroke-linejoin="round"/>
<path d="M24.13 51.17C23.88 51.03 23.56 50.87 23.17 50.75C22.87 50.65 22.53 50.57 22.16 50.5C21.84 50.44 21.5 50.27 21.14 50.24C20.81 50.21 20.44 50.27 20.09 50.27C19.74 50.27 19.39 50.26 19.04 50.3C18.69 50.34 18.4 50.61 18.06 50.7C17.72 50.79 17.42 50.92 17.1 51.06C16.78 51.2 16.42 51.23 16.12 51.41C15.82 51.59 15.54 51.79 15.27 52.02C15 52.25 14.69 52.42 14.46 52.7C14.24 52.96 14.17 53.34 13.98 53.64C13.81 53.92 13.75 54.27 13.6 54.6C13.47 54.9 13.17 55.16 13.07 55.51C12.97 55.83 12.85 56.16 12.78 56.52C12.71 56.85 12.6 57.19 12.56 57.55C12.52 57.91 12.6 58.26 12.59 58.59C12.57 58.94 12.44 59.29 12.45 59.62C12.46 59.97 12.68 60.3 12.72 60.63C12.77 60.98 12.77 61.32 12.85 61.64C12.93 61.98 13.13 62.27 13.25 62.58C13.37 62.91 13.51 63.2 13.66 63.5C13.81 63.8 13.88 64.17 14.07 64.44C14.26 64.71 14.58 64.91 14.81 65.15C15.04 65.39 15.26 65.65 15.53 65.87C15.8 66.09 15.99 66.41 16.28 66.59C16.57 66.77 16.94 66.81 17.25 66.96C17.56 67.11 17.91 67.13 18.23 67.24C18.55 67.35 18.82 67.67 19.14 67.74C19.46 67.81 19.84 67.75 20.17 67.8C20.5 67.85 20.85 67.93 21.18 67.94C21.53 67.94 21.88 68.07 22.21 68.05C22.56 68.02 23.02 67.86 23.34 67.79C23.51 67.3 23.3 67.23 23.33 66.71C23.36 66.19 23.2 66.18 23.23 65.67C23.26 65.16 23.22 65.15 23.25 64.64C23.28 64.13 23.55 64.14 23.58 63.63C23.61 63.12 23.41 63.1 23.44 62.59C23.47 62.08 23.54 62.08 23.57 61.56C23.6 61.04 23.53 61.04 23.56 60.52C23.59 60 23.7 60.01 23.73 59.49C23.76 58.97 23.78 58.97 23.81 58.45C23.84 57.93 23.8 57.93 23.83 57.41C23.86 56.89 23.77 56.89 23.8 56.37C23.83 55.85 23.85 55.86 23.88 55.34C23.91 54.82 24.07 54.83 24.1 54.31C24.13 53.79 24.15 53.79 24.18 53.27C24.21 52.75 24.03 52.74 24.1 52.22C24.17 51.7 24.26 51.69 24.18 51.18L24.13 51.17Z" fill="#F9E3DC"/>
<path d="M24.13 51.17C23.88 51.03 23.56 50.87 23.17 50.75C22.87 50.65 22.53 50.57 22.16 50.5C21.84 50.44 21.5 50.27 21.14 50.24C20.81 50.21 20.44 50.27 20.09 50.27C19.74 50.27 19.39 50.26 19.04 50.3C18.69 50.34 18.4 50.61 18.06 50.7C17.72 50.79 17.42 50.92 17.1 51.06C16.78 51.2 16.42 51.23 16.12 51.41C15.82 51.59 15.54 51.79 15.27 52.02C15 52.25 14.69 52.42 14.46 52.7C14.24 52.96 14.17 53.34 13.98 53.64C13.81 53.92 13.75 54.27 13.6 54.6C13.47 54.9 13.17 55.16 13.07 55.51C12.97 55.83 12.85 56.16 12.78 56.52C12.71 56.85 12.6 57.19 12.56 57.55C12.52 57.91 12.6 58.26 12.59 58.59C12.57 58.94 12.44 59.29 12.45 59.62C12.46 59.97 12.68 60.3 12.72 60.63C12.77 60.98 12.77 61.32 12.85 61.64C12.93 61.98 13.13 62.27 13.25 62.58C13.37 62.91 13.51 63.2 13.66 63.5C13.81 63.8 13.88 64.17 14.07 64.44C14.26 64.71 14.58 64.91 14.81 65.15C15.04 65.39 15.26 65.65 15.53 65.87C15.8 66.09 15.99 66.41 16.28 66.59C16.57 66.77 16.94 66.81 17.25 66.96C17.56 67.11 17.91 67.13 18.23 67.24C18.55 67.35 18.82 67.67 19.14 67.74C19.46 67.81 19.84 67.75 20.17 67.8C20.5 67.85 20.85 67.93 21.18 67.94C21.53 67.94 21.88 68.07 22.21 68.05C22.56 68.02 23.02 67.86 23.34 67.79C23.51 67.3 23.3 67.23 23.33 66.71C23.36 66.19 23.2 66.18 23.23 65.67C23.26 65.16 23.22 65.15 23.25 64.64C23.28 64.13 23.55 64.14 23.58 63.63C23.61 63.12 23.41 63.1 23.44 62.59C23.47 62.08 23.54 62.08 23.57 61.56C23.6 61.04 23.53 61.04 23.56 60.52C23.59 60 23.7 60.01 23.73 59.49C23.76 58.97 23.78 58.97 23.81 58.45C23.84 57.93 23.8 57.93 23.83 57.41C23.86 56.89 23.77 56.89 23.8 56.37C23.83 55.85 23.85 55.86 23.88 55.34C23.91 54.82 24.07 54.83 24.1 54.31C24.13 53.79 24.15 53.79 24.18 53.27C24.21 52.75 24.03 52.74 24.1 52.22C24.17 51.7 24.26 51.69 24.18 51.18L24.13 51.17Z" stroke="#F7DAD2" stroke-width="1.5" stroke-linecap="round" stroke-linejoin="round"/>
<path d="M38.72 77.85C38.75 78.21 38.86 78.49 38.94 78.82C39.03 79.16 39.18 79.46 39.32 79.76C39.46 80.06 39.51 80.45 39.72 80.73C39.93 81.01 40.3 81.12 40.56 81.35C40.82 81.58 41.05 81.81 41.35 82C41.65 82.19 41.93 82.34 42.24 82.49C42.55 82.64 42.79 82.95 43.11 83.07C43.43 83.19 43.78 83.26 44.11 83.35C44.44 83.44 44.8 83.42 45.14 83.49C45.48 83.56 45.82 83.59 46.16 83.64C46.5 83.69 46.84 83.79 47.18 83.83C47.52 83.87 47.87 83.85 48.23 83.84C48.59 83.83 48.92 83.78 49.27 83.73C49.62 83.68 49.96 83.62 50.3 83.53C50.64 83.44 51.04 83.53 51.37 83.4C51.7 83.27 51.96 82.98 52.28 82.82C52.6 82.66 52.97 82.6 53.27 82.41C53.57 82.22 53.89 82.03 54.16 81.8C54.43 81.57 54.58 81.21 54.82 80.95C55.06 80.69 55.34 80.46 55.54 80.16C55.74 79.86 55.76 79.48 55.91 79.16C56.06 78.84 56.2 78.53 56.29 78.18C56.38 77.83 56.47 77.51 56.5 77.14C56 76.98 55.98 77.1 55.45 77.12C54.92 77.14 54.93 77.29 54.41 77.31C53.89 77.33 53.89 77.37 53.37 77.39C52.85 77.41 52.84 77.19 52.32 77.21C51.8 77.23 51.81 77.46 51.29 77.48C50.77 77.5 50.77 77.45 50.25 77.48C49.73 77.51 49.72 77.42 49.2 77.44C48.68 77.46 48.68 77.47 48.16 77.48C47.64 77.49 47.64 77.48 47.11 77.49C46.58 77.5 46.59 77.5 46.06 77.52C45.53 77.54 45.54 77.6 45.02 77.62C44.5 77.64 44.5 77.66 43.97 77.68C43.44 77.7 43.44 77.59 42.92 77.61C42.4 77.63 42.39 77.56 41.87 77.58C41.35 77.6 41.35 77.82 40.83 77.84C40.31 77.86 40.29 77.95 39.77 77.93C39.25 77.91 39.23 77.67 38.74 77.86L38.72 77.85Z" fill="#F9E3DC"/>
<path d="M38.72 77.85C38.75 78.21 38.86 78.49 38.94 78.82C39.03 79.16 39.18 79.46 39.32 79.76C39.46 80.06 39.51 80.45 39.72 80.73C39.93 81.01 40.3 81.12 40.56 81.35C40.82 81.58 41.05 81.81 41.35 82C41.65 82.19 41.93 82.34 42.24 82.49C42.55 82.64 42.79 82.95 43.11 83.07C43.43 83.19 43.78 83.26 44.11 83.35C44.44 83.44 44.8 83.42 45.14 83.49C45.48 83.56 45.82 83.59 46.16 83.64C46.5 83.69 46.84 83.79 47.18 83.83C47.52 83.87 47.87 83.85 48.23 83.84C48.59 83.83 48.92 83.78 49.27 83.73C49.62 83.68 49.96 83.62 50.3 83.53C50.64 83.44 51.04 83.53 51.37 83.4C51.7 83.27 51.96 82.98 52.28 82.82C52.6 82.66 52.97 82.6 53.27 82.41C53.57 82.22 53.89 82.03 54.16 81.8C54.43 81.57 54.58 81.21 54.82 80.95C55.06 80.69 55.34 80.46 55.54 80.16C55.74 79.86 55.76 79.48 55.91 79.16C56.06 78.84 56.2 78.53 56.29 78.18C56.38 77.83 56.47 77.51 56.5 77.14C56 76.98 55.98 77.1 55.45 77.12C54.92 77.14 54.93 77.29 54.41 77.31C53.89 77.33 53.89 77.37 53.37 77.39C52.85 77.41 52.84 77.19 52.32 77.21C51.8 77.23 51.81 77.46 51.29 77.48C50.77 77.5 50.77 77.45 50.25 77.48C49.73 77.51 49.72 77.42 49.2 77.44C48.68 77.46 48.68 77.47 48.16 77.48C47.64 77.49 47.64 77.48 47.11 77.49C46.58 77.5 46.59 77.5 46.06 77.52C45.53 77.54 45.54 77.6 45.02 77.62C44.5 77.64 44.5 77.66 43.97 77.68C43.44 77.7 43.44 77.59 42.92 77.61C42.4 77.63 42.39 77.56 41.87 77.58C41.35 77.6 41.35 77.82 40.83 77.84C40.31 77.86 40.29 77.95 39.77 77.93C39.25 77.91 39.23 77.67 38.74 77.86L38.72 77.85Z" stroke="#F7DAD2" stroke-width="1.5" stroke-linecap="round" stroke-linejoin="round"/>
<path d="M22.74 51.02C22.6 51.31 22.3 51.56 22.15 51.88C22.01 52.18 21.91 52.51 21.76 52.82C21.61 53.13 21.57 53.47 21.43 53.79C21.29 54.11 20.99 54.34 20.86 54.66C20.73 54.98 20.64 55.3 20.52 55.62C20.4 55.94 20.22 56.24 20.12 56.56C20.02 56.88 20.1 57.26 20.01 57.59C19.92 57.92 19.72 58.21 19.64 58.55C19.56 58.89 19.64 59.24 19.58 59.58C19.52 59.92 19.49 60.25 19.45 60.58C19.41 60.91 19.2 61.23 19.18 61.57C19.16 61.91 19.23 62.25 19.23 62.59C19.23 62.93 19.29 63.26 19.31 63.6C19.33 63.94 19.26 64.28 19.31 64.62C19.36 64.96 19.49 65.27 19.56 65.61C19.63 65.95 19.64 66.29 19.74 66.61C19.84 66.93 19.86 67.29 19.99 67.61C20.12 67.93 20.46 68.14 20.62 68.44C20.78 68.74 20.71 69.16 20.9 69.46C21.09 69.76 21.43 69.92 21.63 70.2C21.83 70.48 22.06 70.71 22.29 70.97C22.52 71.23 22.58 71.62 22.83 71.86C23.08 72.1 23.37 72.28 23.62 72.51C23.87 72.74 24.16 72.91 24.44 73.13C24.72 73.35 24.91 73.62 25.19 73.83C25.47 74.04 25.78 74.16 26.07 74.35C26.36 74.54 26.6 74.78 26.9 74.95C27.2 75.12 27.52 75.23 27.82 75.39C28.12 75.55 28.43 75.66 28.75 75.82C29.07 75.98 29.4 76.01 29.72 76.16C30.04 76.31 30.24 76.65 30.56 76.79C30.88 76.93 31.23 76.93 31.55 77.06C31.87 77.19 32.18 77.3 32.5 77.42C32.82 77.54 33.16 77.55 33.49 77.66C33.82 77.77 34.09 78.01 34.42 78.11C34.75 78.21 35.04 78.4 35.37 78.5C35.7 78.6 36.03 78.67 36.36 78.76C36.69 78.85 37.03 78.87 37.37 78.95C37.71 79.03 38.07 78.91 38.41 78.99C38.75 79.07 39.01 79.4 39.35 79.47C39.69 79.54 40.04 79.49 40.38 79.56C40.72 79.63 41.05 79.65 41.39 79.71C41.73 79.77 42.05 79.87 42.39 79.93C42.73 79.99 43.06 80.05 43.4 80.11C43.74 80.17 44.07 80.28 44.41 80.32C44.75 80.36 45.11 80.26 45.45 80.29C45.79 80.32 46.12 80.53 46.46 80.55C46.8 80.57 47.15 80.63 47.49 80.64C47.83 80.65 48.18 80.48 48.52 80.47C48.86 80.46 49.2 80.35 49.54 80.33C49.88 80.31 50.24 80.53 50.58 80.5C50.92 80.47 51.25 80.27 51.59 80.23C51.93 80.19 52.29 80.29 52.63 80.23C52.97 80.17 53.32 80.14 53.65 80.08C53.98 80.02 54.29 79.77 54.62 79.7C54.95 79.63 55.33 79.7 55.66 79.63C55.99 79.56 56.28 79.28 56.61 79.19C56.94 79.1 57.3 79.09 57.62 78.99C57.94 78.89 58.28 78.79 58.6 78.68C58.92 78.57 59.28 78.54 59.6 78.42C59.92 78.3 60.21 78.08 60.53 77.96C60.85 77.84 61.18 77.72 61.49 77.59C61.8 77.46 62.1 77.25 62.4 77.11C62.7 76.97 63.06 76.89 63.36 76.74C63.66 76.59 64.01 76.48 64.3 76.33C64.59 76.18 64.87 75.93 65.17 75.77C65.48 75.6 65.85 75.55 66.14 75.38C66.45 75.2 66.78 75.08 67.06 74.91C67.37 74.73 67.61 74.46 67.89 74.29C68.2 74.1 68.43 73.83 68.7 73.65C69.01 73.44 69.26 73.2 69.51 73.02C69.83 72.79 70.1 72.58 70.33 72.41C70.85 72.02 70.76 72.15 71.24 71.99C71.72 71.83 71.6 71.89 72.25 71.82C72.55 71.79 72.87 71.6 73.26 71.52C73.58 71.46 73.93 71.46 74.29 71.36C74.61 71.27 74.93 71.14 75.27 71.01C75.58 70.89 75.92 70.8 76.25 70.65C76.56 70.5 76.95 70.48 77.26 70.3C77.55 70.13 77.77 69.8 78.06 69.59C78.35 69.38 78.6 69.16 78.87 68.92C79.14 68.68 79.33 68.41 79.58 68.16C79.83 67.91 80.05 67.67 80.28 67.39C80.49 67.13 80.72 66.87 80.92 66.57C81.12 66.27 81.28 65.99 81.46 65.68C81.63 65.38 81.76 65.06 81.91 64.74C82.05 64.43 82.32 64.17 82.45 63.83C82.58 63.49 82.66 63.17 82.76 62.82C82.86 62.49 83.02 62.17 83.11 61.82C83.2 61.47 83.24 61.14 83.29 60.81C83.34 60.46 83.22 60.11 83.24 59.79C83.26 59.44 83.25 59.11 83.24 58.79C83.22 58.44 83.24 58.11 83.17 57.79C83.1 57.45 83.03 57.12 82.93 56.81C82.82 56.48 82.59 56.23 82.44 55.93C82.29 55.63 82.22 55.28 82.03 55.01C81.84 54.74 81.63 54.47 81.41 54.22C81.19 53.97 80.93 53.75 80.68 53.52C80.43 53.29 80.11 53.16 79.84 52.97C79.57 52.78 79.32 52.54 79.04 52.37C78.74 52.19 78.51 51.9 78.22 51.76C77.9 51.61 77.54 51.6 77.24 51.49C76.89 51.36 76.57 51.29 76.28 51.22C75.87 51.12 75.56 50.98 75.32 50.98C74.96 50.62 75.23 50.62 74.94 50.03C74.81 49.77 74.57 49.51 74.36 49.17C74.2 48.9 74.09 48.57 73.87 48.26C73.69 48 73.52 47.69 73.29 47.4C73.09 47.14 72.82 46.92 72.58 46.65C72.36 46.4 72.09 46.19 71.83 45.94C71.6 45.71 71.44 45.37 71.17 45.13C70.92 44.91 70.65 44.68 70.38 44.46C70.12 44.25 69.81 44.08 69.53 43.87C69.26 43.67 68.89 43.6 68.6 43.4C68.31 43.2 68.08 42.95 67.78 42.77C67.48 42.59 67.13 42.54 66.82 42.37C66.51 42.2 66.33 41.84 66.01 41.69C65.69 41.54 65.35 41.49 65.03 41.34C64.71 41.19 64.38 41.14 64.05 41.01C63.72 40.88 63.4 40.81 63.07 40.69C62.74 40.57 62.43 40.46 62.1 40.35C61.77 40.24 61.54 39.86 61.2 39.77C60.86 39.68 60.51 39.69 60.17 39.6C59.83 39.51 59.5 39.49 59.15 39.41C58.8 39.33 58.51 39.13 58.17 39.06C57.83 38.99 57.49 38.95 57.15 38.88C56.81 38.81 56.47 38.81 56.12 38.75C55.77 38.69 55.45 38.61 55.1 38.57C54.75 38.53 54.4 38.62 54.06 38.59C53.72 38.56 53.38 38.52 53.03 38.49C52.68 38.46 52.36 38.3 52.01 38.28C51.66 38.26 51.32 38.28 50.97 38.26C50.62 38.24 50.28 38.25 49.93 38.24C49.58 38.23 49.24 38.31 48.89 38.31C48.54 38.31 48.2 38.31 47.86 38.31C47.52 38.31 47.17 38.26 46.83 38.27C46.49 38.28 46.14 38.41 45.8 38.43C45.46 38.45 45.11 38.43 44.77 38.45C44.43 38.47 44.08 38.53 43.74 38.56C43.4 38.59 43.02 38.39 42.68 38.42C42.34 38.45 41.99 38.53 41.65 38.57C41.31 38.61 40.97 38.77 40.64 38.82C40.31 38.87 39.93 38.82 39.6 38.88C39.27 38.94 38.97 39.28 38.64 39.35C38.31 39.42 37.94 39.41 37.61 39.49C37.28 39.57 36.91 39.58 36.58 39.67C36.25 39.76 35.96 40.03 35.64 40.13C35.32 40.23 34.91 40.14 34.59 40.26C34.27 40.38 33.99 40.65 33.68 40.78C33.37 40.91 32.99 40.94 32.68 41.08C32.37 41.22 32.05 41.38 31.75 41.53C31.45 41.68 31.14 41.88 30.85 42.05C30.56 42.22 30.26 42.43 29.98 42.61C29.7 42.79 29.35 42.92 29.07 43.11C28.78 43.31 28.57 43.61 28.3 43.82C28.02 44.03 27.7 44.19 27.45 44.4C27.18 44.63 27.03 44.97 26.78 45.2C26.52 45.44 26.13 45.54 25.9 45.78C25.65 46.04 25.39 46.28 25.18 46.53C24.95 46.8 24.93 47.23 24.73 47.49C24.51 47.78 24.3 48.05 24.13 48.32C23.92 48.63 23.67 48.88 23.52 49.15C23.33 49.5 23.13 49.79 23.01 50.05C22.74 50.64 22.93 50.56 22.75 51.04L22.74 51.02Z" fill="#F9EDEA"/>
<path d="M22.74 51.02C22.6 51.31 22.3 51.56 22.15 51.88C22.01 52.18 21.91 52.51 21.76 52.82C21.61 53.13 21.57 53.47 21.43 53.79C21.29 54.11 20.99 54.34 20.86 54.66C20.73 54.98 20.64 55.3 20.52 55.62C20.4 55.94 20.22 56.24 20.12 56.56C20.02 56.88 20.1 57.26 20.01 57.59C19.92 57.92 19.72 58.21 19.64 58.55C19.56 58.89 19.64 59.24 19.58 59.58C19.52 59.92 19.49 60.25 19.45 60.58C19.41 60.91 19.2 61.23 19.18 61.57C19.16 61.91 19.23 62.25 19.23 62.59C19.23 62.93 19.29 63.26 19.31 63.6C19.33 63.94 19.26 64.28 19.31 64.62C19.36 64.96 19.49 65.27 19.56 65.61C19.63 65.95 19.64 66.29 19.74 66.61C19.84 66.93 19.86 67.29 19.99 67.61C20.12 67.93 20.46 68.14 20.62 68.44C20.78 68.74 20.71 69.16 20.9 69.46C21.09 69.76 21.43 69.92 21.63 70.2C21.83 70.48 22.06 70.71 22.29 70.97C22.52 71.23 22.58 71.62 22.83 71.86C23.08 72.1 23.37 72.28 23.62 72.51C23.87 72.74 24.16 72.91 24.44 73.13C24.72 73.35 24.91 73.62 25.19 73.83C25.47 74.04 25.78 74.16 26.07 74.35C26.36 74.54 26.6 74.78 26.9 74.95C27.2 75.12 27.52 75.23 27.82 75.39C28.12 75.55 28.43 75.66 28.75 75.82C29.07 75.98 29.4 76.01 29.72 76.16C30.04 76.31 30.24 76.65 30.56 76.79C30.88 76.93 31.23 76.93 31.55 77.06C31.87 77.19 32.18 77.3 32.5 77.42C32.82 77.54 33.16 77.55 33.49 77.66C33.82 77.77 34.09 78.01 34.42 78.11C34.75 78.21 35.04 78.4 35.37 78.5C35.7 78.6 36.03 78.67 36.36 78.76C36.69 78.85 37.03 78.87 37.37 78.95C37.71 79.03 38.07 78.91 38.41 78.99C38.75 79.07 39.01 79.4 39.35 79.47C39.69 79.54 40.04 79.49 40.38 79.56C40.72 79.63 41.05 79.65 41.39 79.71C41.73 79.77 42.05 79.87 42.39 79.93C42.73 79.99 43.06 80.05 43.4 80.11C43.74 80.17 44.07 80.28 44.41 80.32C44.75 80.36 45.11 80.26 45.45 80.29C45.79 80.32 46.12 80.53 46.46 80.55C46.8 80.57 47.15 80.63 47.49 80.64C47.83 80.65 48.18 80.48 48.52 80.47C48.86 80.46 49.2 80.35 49.54 80.33C49.88 80.31 50.24 80.53 50.58 80.5C50.92 80.47 51.25 80.27 51.59 80.23C51.93 80.19 52.29 80.29 52.63 80.23C52.97 80.17 53.32 80.14 53.65 80.08C53.98 80.02 54.29 79.77 54.62 79.7C54.95 79.63 55.33 79.7 55.66 79.63C55.99 79.56 56.28 79.28 56.61 79.19C56.94 79.1 57.3 79.09 57.62 78.99C57.94 78.89 58.28 78.79 58.6 78.68C58.92 78.57 59.28 78.54 59.6 78.42C59.92 78.3 60.21 78.08 60.53 77.96C60.85 77.84 61.18 77.72 61.49 77.59C61.8 77.46 62.1 77.25 62.4 77.11C62.7 76.97 63.06 76.89 63.36 76.74C63.66 76.59 64.01 76.48 64.3 76.33C64.59 76.18 64.87 75.93 65.17 75.77C65.48 75.6 65.85 75.55 66.14 75.38C66.45 75.2 66.78 75.08 67.06 74.91C67.37 74.73 67.61 74.46 67.89 74.29C68.2 74.1 68.43 73.83 68.7 73.65C69.01 73.44 69.26 73.2 69.51 73.02C69.83 72.79 70.1 72.58 70.33 72.41C70.85 72.02 70.76 72.15 71.24 71.99C71.72 71.83 71.6 71.89 72.25 71.82C72.55 71.79 72.87 71.6 73.26 71.52C73.58 71.46 73.93 71.46 74.29 71.36C74.61 71.27 74.93 71.14 75.27 71.01C75.58 70.89 75.92 70.8 76.25 70.65C76.56 70.5 76.95 70.48 77.26 70.3C77.55 70.13 77.77 69.8 78.06 69.59C78.35 69.38 78.6 69.16 78.87 68.92C79.14 68.68 79.33 68.41 79.58 68.16C79.83 67.91 80.05 67.67 80.28 67.39C80.49 67.13 80.72 66.87 80.92 66.57C81.12 66.27 81.28 65.99 81.46 65.68C81.63 65.38 81.76 65.06 81.91 64.74C82.05 64.43 82.32 64.17 82.45 63.83C82.58 63.49 82.66 63.17 82.76 62.82C82.86 62.49 83.02 62.17 83.11 61.82C83.2 61.47 83.24 61.14 83.29 60.81C83.34 60.46 83.22 60.11 83.24 59.79C83.26 59.44 83.25 59.11 83.24 58.79C83.22 58.44 83.24 58.11 83.17 57.79C83.1 57.45 83.03 57.12 82.93 56.81C82.82 56.48 82.59 56.23 82.44 55.93C82.29 55.63 82.22 55.28 82.03 55.01C81.84 54.74 81.63 54.47 81.41 54.22C81.19 53.97 80.93 53.75 80.68 53.52C80.43 53.29 80.11 53.16 79.84 52.97C79.57 52.78 79.32 52.54 79.04 52.37C78.74 52.19 78.51 51.9 78.22 51.76C77.9 51.61 77.54 51.6 77.24 51.49C76.89 51.36 76.57 51.29 76.28 51.22C75.87 51.12 75.56 50.98 75.32 50.98C74.96 50.62 75.23 50.62 74.94 50.03C74.81 49.77 74.57 49.51 74.36 49.17C74.2 48.9 74.09 48.57 73.87 48.26C73.69 48 73.52 47.69 73.29 47.4C73.09 47.14 72.82 46.92 72.58 46.65C72.36 46.4 72.09 46.19 71.83 45.94C71.6 45.71 71.44 45.37 71.17 45.13C70.92 44.91 70.65 44.68 70.38 44.46C70.12 44.25 69.81 44.08 69.53 43.87C69.26 43.67 68.89 43.6 68.6 43.4C68.31 43.2 68.08 42.95 67.78 42.77C67.48 42.59 67.13 42.54 66.82 42.37C66.51 42.2 66.33 41.84 66.01 41.69C65.69 41.54 65.35 41.49 65.03 41.34C64.71 41.19 64.38 41.14 64.05 41.01C63.72 40.88 63.4 40.81 63.07 40.69C62.74 40.57 62.43 40.46 62.1 40.35C61.77 40.24 61.54 39.86 61.2 39.77C60.86 39.68 60.51 39.69 60.17 39.6C59.83 39.51 59.5 39.49 59.15 39.41C58.8 39.33 58.51 39.13 58.17 39.06C57.83 38.99 57.49 38.95 57.15 38.88C56.81 38.81 56.47 38.81 56.12 38.75C55.77 38.69 55.45 38.61 55.1 38.57C54.75 38.53 54.4 38.62 54.06 38.59C53.72 38.56 53.38 38.52 53.03 38.49C52.68 38.46 52.36 38.3 52.01 38.28C51.66 38.26 51.32 38.28 50.97 38.26C50.62 38.24 50.28 38.25 49.93 38.24C49.58 38.23 49.24 38.31 48.89 38.31C48.54 38.31 48.2 38.31 47.86 38.31C47.52 38.31 47.17 38.26 46.83 38.27C46.49 38.28 46.14 38.41 45.8 38.43C45.46 38.45 45.11 38.43 44.77 38.45C44.43 38.47 44.08 38.53 43.74 38.56C43.4 38.59 43.02 38.39 42.68 38.42C42.34 38.45 41.99 38.53 41.65 38.57C41.31 38.61 40.97 38.77 40.64 38.82C40.31 38.87 39.93 38.82 39.6 38.88C39.27 38.94 38.97 39.28 38.64 39.35C38.31 39.42 37.94 39.41 37.61 39.49C37.28 39.57 36.91 39.58 36.58 39.67C36.25 39.76 35.96 40.03 35.64 40.13C35.32 40.23 34.91 40.14 34.59 40.26C34.27 40.38 33.99 40.65 33.68 40.78C33.37 40.91 32.99 40.94 32.68 41.08C32.37 41.22 32.05 41.38 31.75 41.53C31.45 41.68 31.14 41.88 30.85 42.05C30.56 42.22 30.26 42.43 29.98 42.61C29.7 42.79 29.35 42.92 29.07 43.11C28.78 43.31 28.57 43.61 28.3 43.82C28.02 44.03 27.7 44.19 27.45 44.4C27.18 44.63 27.03 44.97 26.78 45.2C26.52 45.44 26.13 45.54 25.9 45.78C25.65 46.04 25.39 46.28 25.18 46.53C24.95 46.8 24.93 47.23 24.73 47.49C24.51 47.78 24.3 48.05 24.13 48.32C23.92 48.63 23.67 48.88 23.52 49.15C23.33 49.5 23.13 49.79 23.01 50.05C22.74 50.64 22.93 50.56 22.75 51.04L22.74 51.02Z" stroke="#F9E3DC" stroke-width="1.5" stroke-linecap="round" stroke-linejoin="round"/>
<path d="M38.05 30.31C37.57 30.15 37.61 30.38 37.04 30.12C36.78 30 36.46 29.84 36.13 29.66C35.85 29.51 35.64 29.19 35.34 29C35.07 28.83 34.83 28.59 34.54 28.39C34.28 28.2 34.04 27.96 33.78 27.74C33.52 27.52 33.17 27.42 32.94 27.17C32.71 26.92 32.38 26.76 32.17 26.49C31.96 26.22 32 25.79 31.82 25.5C31.64 25.21 31.48 24.94 31.33 24.63C31.18 24.32 30.99 24.05 30.9 23.72C30.81 23.39 30.83 23.06 30.77 22.72C30.71 22.38 30.68 22.07 30.67 21.73C30.67 21.4 30.53 21.07 30.56 20.72C30.59 20.4 30.79 20.09 30.86 19.74C30.92 19.42 31 19.1 31.1 18.77C31.19 18.46 31.31 18.15 31.43 17.83C31.55 17.53 31.67 17.22 31.82 16.9C31.96 16.6 31.97 16.23 32.14 15.92C32.31 15.61 32.53 15.33 32.71 15.05C32.91 14.75 33.05 14.42 33.27 14.16C33.5 13.89 33.9 13.79 34.14 13.55C34.38 13.31 34.57 12.99 34.84 12.78C35.11 12.57 35.44 12.43 35.73 12.25C36.02 12.07 36.29 11.84 36.6 11.69C36.91 11.54 37.18 11.27 37.51 11.15C37.84 11.03 38.23 11.12 38.56 11.03C38.89 10.94 39.22 10.8 39.56 10.75C39.9 10.7 40.25 10.71 40.6 10.68C40.95 10.65 41.29 10.66 41.63 10.66C41.97 10.66 42.32 10.58 42.67 10.59C43.02 10.6 43.36 10.65 43.7 10.69C44.04 10.73 44.38 10.81 44.72 10.86C45.06 10.91 45.41 10.96 45.75 11.02C46.09 11.08 46.41 11.23 46.75 11.31C47.09 11.39 47.45 11.38 47.78 11.47C48.11 11.56 48.49 11.55 48.82 11.65C49.16 11.76 49.51 11.83 49.82 11.95C50.16 12.07 50.42 12.37 50.73 12.49C51.08 12.62 51.46 12.62 51.75 12.74C52.11 12.9 52.4 13.12 52.67 13.24C53.26 13.51 53.11 13.52 53.59 13.7C54.07 13.88 54.07 13.86 54.56 14.01C55.05 14.16 55.01 14.3 55.5 14.45C55.99 14.6 56.02 14.51 56.51 14.66C57 14.81 57 14.8 57.49 14.94C57.98 15.08 58.03 14.94 58.52 15.09C59.01 15.24 58.94 15.46 59.43 15.6C59.92 15.74 59.91 15.79 60.4 15.94C60.89 16.09 60.97 15.82 61.46 15.97C61.95 16.12 61.94 16.15 62.43 16.3C62.92 16.45 62.91 16.47 63.4 16.62C63.89 16.77 63.83 16.98 64.32 17.13C64.81 17.28 64.88 17.05 65.37 17.19C65.86 17.33 65.83 17.43 66.32 17.58C66.81 17.73 66.77 17.86 67.26 18.01C67.75 18.16 67.81 17.96 68.3 18.11C68.79 18.26 68.79 18.25 69.29 18.4C69.79 18.55 69.78 18.54 70.27 18.69C70.76 18.84 70.76 18.84 71.25 18.99C71.74 19.14 71.7 19.28 72.19 19.43C72.68 19.58 72.72 19.47 73.21 19.62C73.7 19.77 73.64 20.06 74.15 20.14C74.66 20.22 74.54 19.86 75.16 19.76C75.45 19.72 75.8 19.79 76.19 19.76C76.5 19.73 76.84 19.59 77.2 19.58C77.52 19.58 77.87 19.6 78.22 19.61C78.55 19.62 78.87 19.82 79.22 19.85C79.57 19.88 79.93 19.65 80.27 19.72C80.61 19.79 80.94 19.89 81.27 19.98C81.6 20.07 81.88 20.31 82.2 20.43C82.52 20.55 82.86 20.62 83.17 20.78C83.48 20.94 83.74 21.16 84.02 21.35C84.3 21.54 84.65 21.66 84.91 21.89C85.17 22.12 85.39 22.38 85.62 22.65C85.85 22.92 85.96 23.24 86.16 23.54C86.34 23.81 86.54 24.1 86.7 24.41C86.85 24.7 86.86 25.06 86.99 25.39C87.11 25.7 87.29 25.99 87.39 26.32C87.48 26.64 87.58 26.96 87.65 27.31C87.72 27.63 87.8 27.97 87.85 28.32C87.89 28.65 87.97 28.98 88 29.34C88.03 29.67 88 30.02 88.02 30.37C88.02 30.7 87.97 31.05 87.96 31.4C87.95 31.75 87.99 32.09 87.97 32.41C87.95 32.76 87.88 33.09 87.84 33.41C87.8 33.76 87.67 34.07 87.61 34.39C87.55 34.73 87.5 35.06 87.42 35.38C87.33 35.72 87.43 36.1 87.33 36.41C87.22 36.74 86.97 37.01 86.84 37.31C86.7 37.63 86.5 37.9 86.34 38.19C86.16 38.49 86.05 38.82 85.85 39.08C85.64 39.36 85.45 39.65 85.22 39.88C84.99 40.11 84.67 40.3 84.41 40.5C84.15 40.7 83.8 40.8 83.52 40.97C83.24 41.14 82.97 41.37 82.67 41.5C82.37 41.63 82.04 41.74 81.72 41.84C81.4 41.94 81.09 42.1 80.76 42.17C80.43 42.24 80.08 42.16 79.74 42.19C79.4 42.22 79.08 42.44 78.74 42.45C78.4 42.46 78.06 42.38 77.73 42.36C77.4 42.34 77.07 42.18 76.74 42.14C76.41 42.1 76.07 42.03 75.75 41.97C75.43 41.91 75.09 41.82 74.77 41.74C74.43 41.65 74.08 41.64 73.78 41.54C73.45 41.42 73.09 41.38 72.8 41.25C72.47 41.1 72.24 40.79 71.98 40.64C71.64 40.43 71.32 40.29 71.14 40.09" fill="white"/>
<path d="M38.05 30.31C37.57 30.15 37.61 30.38 37.04 30.12C36.78 30 36.46 29.84 36.13 29.66C35.85 29.51 35.64 29.19 35.34 29C35.07 28.83 34.83 28.59 34.54 28.39C34.28 28.2 34.04 27.96 33.78 27.74C33.52 27.52 33.17 27.42 32.94 27.17C32.71 26.92 32.38 26.76 32.17 26.49C31.96 26.22 32 25.79 31.82 25.5C31.64 25.21 31.48 24.94 31.33 24.63C31.18 24.32 30.99 24.05 30.9 23.72C30.81 23.39 30.83 23.06 30.77 22.72C30.71 22.38 30.68 22.07 30.67 21.73C30.67 21.4 30.53 21.07 30.56 20.72C30.59 20.4 30.79 20.09 30.86 19.74C30.92 19.42 31 19.1 31.1 18.77C31.19 18.46 31.31 18.15 31.43 17.83C31.55 17.53 31.67 17.22 31.82 16.9C31.96 16.6 31.97 16.23 32.14 15.92C32.31 15.61 32.53 15.33 32.71 15.05C32.91 14.75 33.05 14.42 33.27 14.16C33.5 13.89 33.9 13.79 34.14 13.55C34.38 13.31 34.57 12.99 34.84 12.78C35.11 12.57 35.44 12.43 35.73 12.25C36.02 12.07 36.29 11.84 36.6 11.69C36.91 11.54 37.18 11.27 37.51 11.15C37.84 11.03 38.23 11.12 38.56 11.03C38.89 10.94 39.22 10.8 39.56 10.75C39.9 10.7 40.25 10.71 40.6 10.68C40.95 10.65 41.29 10.66 41.63 10.66C41.97 10.66 42.32 10.58 42.67 10.59C43.02 10.6 43.36 10.65 43.7 10.69C44.04 10.73 44.38 10.81 44.72 10.86C45.06 10.91 45.41 10.96 45.75 11.02C46.09 11.08 46.41 11.23 46.75 11.31C47.09 11.39 47.45 11.38 47.78 11.47C48.11 11.56 48.49 11.55 48.82 11.65C49.16 11.76 49.51 11.83 49.82 11.95C50.16 12.07 50.42 12.37 50.73 12.49C51.08 12.62 51.46 12.62 51.75 12.74C52.11 12.9 52.4 13.12 52.67 13.24C53.26 13.51 53.11 13.52 53.59 13.7C54.07 13.88 54.07 13.86 54.56 14.01C55.05 14.16 55.01 14.3 55.5 14.45C55.99 14.6 56.02 14.51 56.51 14.66C57 14.81 57 14.8 57.49 14.94C57.98 15.08 58.03 14.94 58.52 15.09C59.01 15.24 58.94 15.46 59.43 15.6C59.92 15.74 59.91 15.79 60.4 15.94C60.89 16.09 60.97 15.82 61.46 15.97C61.95 16.12 61.94 16.15 62.43 16.3C62.92 16.45 62.91 16.47 63.4 16.62C63.89 16.77 63.83 16.98 64.32 17.13C64.81 17.28 64.88 17.05 65.37 17.19C65.86 17.33 65.83 17.43 66.32 17.58C66.81 17.73 66.77 17.86 67.26 18.01C67.75 18.16 67.81 17.96 68.3 18.11C68.79 18.26 68.79 18.25 69.29 18.4C69.79 18.55 69.78 18.54 70.27 18.69C70.76 18.84 70.76 18.84 71.25 18.99C71.74 19.14 71.7 19.28 72.19 19.43C72.68 19.58 72.72 19.47 73.21 19.62C73.7 19.77 73.64 20.06 74.15 20.14C74.66 20.22 74.54 19.86 75.16 19.76C75.45 19.72 75.8 19.79 76.19 19.76C76.5 19.73 76.84 19.59 77.2 19.58C77.52 19.58 77.87 19.6 78.22 19.61C78.55 19.62 78.87 19.82 79.22 19.85C79.57 19.88 79.93 19.65 80.27 19.72C80.61 19.79 80.94 19.89 81.27 19.98C81.6 20.07 81.88 20.31 82.2 20.43C82.52 20.55 82.86 20.62 83.17 20.78C83.48 20.94 83.74 21.16 84.02 21.35C84.3 21.54 84.65 21.66 84.91 21.89C85.17 22.12 85.39 22.38 85.62 22.65C85.85 22.92 85.96 23.24 86.16 23.54C86.34 23.81 86.54 24.1 86.7 24.41C86.85 24.7 86.86 25.06 86.99 25.39C87.11 25.7 87.29 25.99 87.39 26.32C87.48 26.64 87.58 26.96 87.65 27.31C87.72 27.63 87.8 27.97 87.85 28.32C87.89 28.65 87.97 28.98 88 29.34C88.03 29.67 88 30.02 88.02 30.37C88.02 30.7 87.97 31.05 87.96 31.4C87.95 31.75 87.99 32.09 87.97 32.41C87.95 32.76 87.88 33.09 87.84 33.41C87.8 33.76 87.67 34.07 87.61 34.39C87.55 34.73 87.5 35.06 87.42 35.38C87.33 35.72 87.43 36.1 87.33 36.41C87.22 36.74 86.97 37.01 86.84 37.31C86.7 37.63 86.5 37.9 86.34 38.19C86.16 38.49 86.05 38.82 85.85 39.08C85.64 39.36 85.45 39.65 85.22 39.88C84.99 40.11 84.67 40.3 84.41 40.5C84.15 40.7 83.8 40.8 83.52 40.97C83.24 41.14 82.97 41.37 82.67 41.5C82.37 41.63 82.04 41.74 81.72 41.84C81.4 41.94 81.09 42.1 80.76 42.17C80.43 42.24 80.08 42.16 79.74 42.19C79.4 42.22 79.08 42.44 78.74 42.45C78.4 42.46 78.06 42.38 77.73 42.36C77.4 42.34 77.07 42.18 76.74 42.14C76.41 42.1 76.07 42.03 75.75 41.97C75.43 41.91 75.09 41.82 74.77 41.74C74.43 41.65 74.08 41.64 73.78 41.54C73.45 41.42 73.09 41.38 72.8 41.25C72.47 41.1 72.24 40.79 71.98 40.64C71.64 40.43 71.32 40.29 71.14 40.09" stroke="#E1E3E5" stroke-width="1.5" stroke-linecap="round" stroke-linejoin="round"/>
<path d="M46.94 15.27C46.9 14.77 46.83 14.88 46.85 14.25C46.86 13.96 46.92 13.62 46.96 13.24C46.99 12.93 47.04 12.59 47.1 12.24C47.16 11.93 47.38 11.63 47.47 11.29C47.55 10.98 47.59 10.64 47.71 10.31C47.82 9.99996 47.86 9.64996 48 9.33996C48.14 9.02996 48.27 8.71996 48.44 8.41996C48.61 8.11996 48.96 7.96996 49.16 7.68996C49.36 7.40996 49.45 7.06996 49.68 6.81996C49.91 6.56996 50.2 6.40996 50.46 6.17996C50.72 5.94996 50.98 5.77996 51.26 5.57996C51.54 5.37996 51.69 5.01996 51.99 4.84996C52.27 4.68996 52.63 4.63996 52.95 4.48996C53.25 4.35996 53.58 4.29996 53.91 4.17996C54.22 4.06996 54.55 4.03996 54.89 3.95996C55.21 3.87996 55.53 3.80996 55.87 3.74996C56.19 3.68996 56.5 3.53996 56.85 3.49996C57.17 3.45996 57.51 3.47996 57.86 3.45996C58.19 3.43996 58.52 3.21996 58.86 3.20996C59.19 3.20996 59.53 3.31996 59.87 3.32996C60.21 3.33996 60.53 3.37996 60.88 3.39996C61.23 3.41996 61.53 3.58996 61.87 3.62996C62.21 3.66996 62.56 3.45996 62.91 3.50996C63.26 3.55996 63.52 3.88996 63.86 3.94996C64.2 4.00996 64.56 3.82996 64.9 3.89996C65.24 3.96996 65.51 4.22996 65.85 4.30996C66.19 4.38996 66.59 4.23996 66.92 4.32996C67.26 4.41996 67.56 4.64996 67.89 4.73996C68.23 4.83996 68.56 4.95996 68.88 5.06996C69.22 5.17996 69.56 5.25996 69.88 5.37996C70.21 5.50996 70.57 5.56996 70.88 5.69996C71.21 5.83996 71.49 6.06996 71.79 6.22996C72.11 6.38996 72.48 6.44996 72.77 6.61996C73.08 6.79996 73.26 7.17996 73.53 7.35996C73.83 7.55996 74.12 7.72996 74.39 7.93996C74.67 8.15996 75.05 8.25996 75.3 8.48996C75.56 8.73996 75.68 9.10996 75.9 9.35996C76.13 9.62996 76.38 9.86996 76.57 10.15C76.77 10.44 76.83 10.81 76.99 11.11C77.15 11.41 77.47 11.66 77.59 11.98C77.71 12.3 77.66 12.69 77.74 13.02C77.82 13.35 78.07 13.67 78.11 14.01C78.15 14.35 78.02 14.71 78.03 15.06C78.04 15.41 78.09 15.76 78.06 16.1C78.03 16.44 78.08 16.81 78.02 17.15C77.96 17.49 77.91 17.85 77.83 18.18C77.75 18.51 77.59 18.85 77.48 19.17C77.37 19.49 77.1 19.78 76.97 20.09C76.84 20.43 76.75 20.77 76.61 21.07C76.45 21.41 76.33 21.73 76.18 22.02C75.99 22.37 75.93 22.74 75.78 23C75.45 23.55 75.49 23.43 75.18 23.85" fill="white"/>
<path d="M46.43 15.31C46.19 14.19 46.43 13.09 46.57 11.98C46.67 11.63 46.85 11.37 46.92 11C47.13 10.02 47.38 8.91998 47.91 8.01998C48.11 7.69998 48.39 7.54998 48.58 7.33998C48.8 7.03998 48.86 6.65998 49.27 6.25998C49.75 5.79998 50.2 5.52998 50.65 5.14998L50.83 5.00998C50.86 4.97998 50.86 4.98998 50.89 4.95998C51.15 4.55998 51.65 4.10998 52.15 3.98998C53.63 3.38998 55.32 3.08998 56.75 2.73998C57 2.71998 57.79 2.70998 57.89 2.66998C58.05 2.63998 58.41 2.42998 58.93 2.43998C59.34 2.45998 59.62 2.53998 59.81 2.54998C60.34 2.60998 61.12 2.57998 61.63 2.77998C62 2.91998 62.12 2.79998 62.55 2.73998C62.74 2.70998 63.1 2.71998 63.35 2.82998C63.79 3.03998 63.99 3.19998 64 3.17998C63.94 3.18998 64.18 3.14998 64.6 3.09998C64.8 3.07998 65.15 3.11998 65.34 3.20998C65.62 3.30998 65.82 3.47998 66.02 3.53998C66.18 3.57998 66.4 3.50998 66.65 3.51998C67.1 3.45998 67.83 3.88998 68.08 3.98998L69.69 4.51998C70.49 4.75998 71.39 5.02998 72.09 5.53998C72.55 5.71998 73.43 5.98998 73.75 6.53998C73.92 6.75998 74.06 6.82998 74.25 6.95998L74.9 7.40998C75.04 7.50998 75.33 7.58998 75.71 7.88998C76.09 8.22998 76.22 8.56998 76.34 8.75998C76.45 8.93998 76.91 9.45998 77.1 9.70998C77.34 9.96998 77.49 10.68 77.62 10.86C77.7 11.01 77.95 11.2 78.17 11.65C78.4 12.25 78.27 12.53 78.38 12.93C78.57 13.32 78.82 13.96 78.71 14.42C78.55 15.22 78.68 16.04 78.61 16.9C78.49 18.07 78.07 19.31 77.43 20.23C77.15 20.98 76.77 21.79 76.42 22.51C76.32 22.76 76.19 23.13 76.02 23.35C75.9 23.58 75.63 23.84 75.48 24.06C75.16 24.45 74.55 23.98 74.85 23.57C75.39 22.95 75.49 22.47 75.78 21.76C76.05 21.18 76.31 20.44 76.51 19.83C76.67 19.47 76.86 19.25 76.93 19.08L77.16 18.37C77.51 17.34 77.47 16.28 77.41 15.19C77.39 14.98 77.43 14.53 77.47 14.28C77.48 14.04 77.48 14.06 77.37 13.8C77.23 13.55 77.05 13.09 77.04 12.79C76.97 12.02 77.06 12.31 76.51 11.61C76.16 11.11 76.21 10.82 75.96 10.48C75.64 10.11 75.47 9.97998 75.13 9.47998C74.74 8.78998 74.86 9.02998 74.15 8.61998L73.41 8.11998C73.15 7.97998 72.77 7.63998 72.63 7.45998C72.44 7.25998 72.5 7.25998 72.27 7.15998C71.52 7.00998 70.81 6.33998 70.03 6.18998C69.51 6.01998 68.13 5.59998 67.59 5.41998C67.1 5.25998 66.96 5.06998 66.67 5.04998C66.31 5.07998 66.04 5.12998 65.63 5.02998C65.24 4.93998 65 4.68998 64.71 4.63998C64.57 4.61998 64.26 4.78998 63.64 4.66998C63.09 4.49998 62.87 4.25998 62.79 4.24998C62.86 4.24998 62.76 4.23998 62.41 4.32998C61.82 4.52998 61.14 4.12998 60.55 4.11998C60.16 4.11998 59.18 3.97998 58.91 3.94998C58.86 3.92998 58.7 3.99998 58.33 4.11998C57.63 4.25998 57.5 4.18998 56.95 4.22998C55.52 4.64998 54.31 4.71998 53.04 5.22998C52.94 5.27998 52.45 5.38998 52.37 5.44998C52.16 5.64998 51.84 6.07998 51.53 6.25998C51.17 6.50998 50.55 6.98998 50.26 7.21998C50.08 7.38998 49.87 7.96998 49.59 8.24998C49.39 8.44998 49.18 8.58998 49.05 8.72998C48.92 9.00998 48.66 9.46998 48.57 9.70998C48.39 10.25 48.19 11.17 47.96 11.77L47.78 12.15L47.73 12.28C47.72 12.3 47.71 12.34 47.7 12.42L47.63 12.82C47.5 13.61 47.33 14.41 47.49 15.2C47.54 15.85 46.54 15.93 46.47 15.29L46.43 15.31Z" fill="#E1E3E5"/>
<path d="M42.23 23.85C41.86 24.19 41.97 24.08 41.52 24.55C41.33 24.76 41.07 24.97 40.81 25.26C40.61 25.49 40.41 25.75 40.18 26.03C39.98 26.27 39.72 26.49 39.5 26.77C39.3 27.02 39.19 27.35 38.98 27.63C38.79 27.89 38.59 28.16 38.39 28.44C38.2 28.71 37.86 28.88 37.67 29.17C37.49 29.44 37.34 29.75 37.16 30.04C36.98 30.33 36.87 30.64 36.69 30.94C36.51 31.24 36.2 31.43 36.04 31.73C35.88 32.03 35.81 32.36 35.65 32.67C35.49 32.98 35.37 33.27 35.21 33.58C35.05 33.89 34.94 34.19 34.8 34.5C34.66 34.81 34.55 35.12 34.41 35.43C34.27 35.74 34.18 36.06 34.05 36.37C33.92 36.68 33.75 36.97 33.62 37.29C33.49 37.61 33.35 37.87 33.24 38.19C33.53 38.61 33.56 38.29 34.22 38.35C34.5 38.38 34.84 38.43 35.23 38.46C35.54 38.49 35.87 38.59 36.24 38.63C36.56 38.66 36.9 38.7 37.25 38.73C37.57 38.76 37.92 38.75 38.27 38.79C38.6 38.82 38.93 38.9 39.28 38.94C39.61 38.98 39.97 38.82 40.31 38.86C40.64 38.9 40.96 39.1 41.3 39.14C41.64 39.18 41.98 39.09 42.33 39.14C42.68 39.19 42.99 39.29 43.34 39.33C43.69 39.37 44.01 39.4 44.36 39.44C44.71 39.48 45.02 39.57 45.37 39.62C45.72 39.67 46.06 39.6 46.4 39.65C46.74 39.7 47.05 39.87 47.39 39.92C47.73 39.97 48.07 39.95 48.41 40C48.75 40.05 49.08 40.07 49.42 40.12C49.76 40.17 50.09 40.2 50.43 40.25C50.77 40.3 51.07 40.52 51.41 40.58C51.75 40.64 52.12 40.45 52.46 40.51C52.8 40.57 53.14 40.58 53.48 40.64C53.82 40.7 54.15 40.78 54.48 40.84C54.81 40.9 55.1 41.23 55.44 41.29C55.78 41.35 56.15 41.18 56.49 41.24C56.83 41.3 57.16 41.39 57.49 41.45C57.82 41.51 58.17 41.53 58.51 41.59C58.85 41.65 59.17 41.76 59.51 41.83C59.85 41.9 60.13 42.19 60.47 42.26C60.81 42.33 61.18 42.2 61.52 42.28C61.86 42.36 62.14 42.66 62.47 42.73C62.8 42.8 63.18 42.72 63.51 42.8C63.84 42.88 64.16 43.04 64.49 43.12C64.82 43.2 65.18 43.21 65.51 43.29C65.84 43.37 66.12 43.65 66.45 43.74C66.78 43.83 67.17 43.71 67.5 43.8C67.83 43.89 68.11 44.15 68.43 44.25C68.75 44.35 69.16 44.23 69.48 44.33C69.8 44.43 70.09 44.66 70.41 44.77C70.73 44.88 71.02 45.1 71.34 45.22C71.66 45.34 72.06 45.26 72.37 45.38C72.68 45.5 72.97 45.74 73.28 45.87C73.59 46 73.9 46.17 74.2 46.31C74.5 46.45 74.81 46.55 75.11 46.7C75.53 46.43 75.11 46.37 75.17 45.73C75.19 45.45 75.24 45.11 75.27 44.73C75.29 44.42 75.2 44.08 75.22 43.72C75.24 43.4 75.33 43.07 75.35 42.72C75.37 42.4 75.32 42.06 75.33 41.71C75.34 41.38 75.36 41.05 75.37 40.7C75.38 40.35 75.53 40.04 75.54 39.7C75.55 39.36 75.5 39.03 75.51 38.69C75.52 38.35 75.62 38.02 75.62 37.68C75.62 37.34 75.65 37.01 75.65 36.67C75.65 36.33 75.65 36 75.65 35.66C75.65 35.32 75.48 34.99 75.47 34.65C75.46 34.31 75.53 33.97 75.51 33.63C75.49 33.29 75.51 32.95 75.48 32.61C75.45 32.27 75.37 31.94 75.34 31.61C75.31 31.28 75.23 30.94 75.19 30.61" fill="white"/>
<path d="M42.57 24.23C41.61 25.15 40.65 26.28 39.84 27.3C39.62 27.79 39.24 28.28 38.95 28.7C38.78 28.99 38.38 29.29 38.2 29.5C37.86 30.07 37.52 30.72 37.21 31.33C36.98 31.68 36.73 31.83 36.58 32.11C36.47 32.38 36.33 32.83 36.17 33.12C35.34 34.86 34.7 36.69 33.93 38.46L33.84 37.78C33.87 37.86 33.96 37.8 33.61 37.68C33.31 37.68 33.55 37.66 33.69 37.62C33.94 37.57 34.29 37.6 34.55 37.62C36.14 37.83 37.78 37.91 39.37 38.07C39.68 38.03 39.87 37.96 40.22 37.96C40.92 37.96 41.15 38.32 41.79 38.2C43.05 38.19 44.33 38.5 45.58 38.62C45.98 38.62 46.3 38.56 46.81 38.68C47.5 38.89 47.44 38.87 48.03 38.9C48.8 38.93 49.63 39.06 50.4 39.14C50.74 39.14 51.42 39.44 51.56 39.48H51.51C51.79 39.41 52.45 39.34 52.72 39.42C53.25 39.47 53.89 39.56 54.41 39.67C54.55 39.7 54.54 39.68 54.9 39.78C55.4 39.97 55.59 40.16 55.67 40.18C55.71 40.2 55.65 40.17 55.58 40.16C55.54 40.16 55.57 40.16 55.64 40.16C55.78 40.16 56.14 40.04 56.68 40.13L57.35 40.28C58.37 40.49 59.88 40.61 60.68 41.2C60.59 41.2 60.71 41.21 60.99 41.19C61.3 41.15 61.93 41.25 62.2 41.42C62.52 41.6 62.69 41.72 62.69 41.72C62.62 41.71 62.72 41.74 62.96 41.73C63.15 41.73 63.51 41.74 63.74 41.81C63.96 41.87 64.39 42.04 64.59 42.11C65.05 42.26 65.39 42.19 66 42.45C66.37 42.63 66.55 42.76 66.65 42.82C66.98 42.84 67.52 42.79 67.88 42.97C68.24 43.12 68.44 43.28 68.56 43.34C68.7 43.4 68.56 43.38 68.78 43.4C68.95 43.41 69.31 43.36 69.77 43.52C70.11 43.65 70.33 43.8 70.48 43.89C70.83 44.03 71.33 44.32 71.58 44.45C71.58 44.47 71.76 44.49 72.04 44.51C72.18 44.53 72.37 44.55 72.58 44.63C73.16 44.89 73.59 45.23 74.12 45.46C74.53 45.68 74.96 45.85 75.38 46.05L74.64 46.09C74.67 46.09 74.66 46.03 74.54 46.26C74.48 46.4 74.5 46.56 74.51 46.59C74.51 46.62 74.51 46.59 74.5 46.55C74.26 46.12 74.45 45.21 74.5 44.74C74.46 44.13 74.47 43.37 74.62 42.73C74.62 41.87 74.64 40.45 74.87 39.72L74.86 38.72C74.99 37.92 75 37.41 75.03 36.71L75.04 35.7C75.05 35.51 74.91 35.19 74.88 34.71C74.95 33.96 74.92 33.37 74.92 32.69L74.66 30.7C74.58 30.12 75.48 30 75.55 30.59L75.89 32.62C75.94 33.16 75.95 34.22 75.93 34.66C75.93 34.86 76.09 35.17 76.13 35.67L76.15 36.69C76.18 37.21 76.1 38.35 76.05 38.73L76.1 39.76C75.83 41.2 76.04 42.46 75.86 43.81C75.85 44.02 75.95 44.35 75.92 44.85L75.84 45.84C75.88 46.15 76.1 46.43 75.92 46.83C75.72 47.22 75.56 47.26 75.46 47.35C75.24 47.55 74.95 47.51 74.72 47.39C73.86 47.07 72.8 46.59 72.02 46.17C71.75 46.14 71.53 46.19 71.02 46.05C70.35 45.77 69.73 45.46 69.17 45.21C68.84 45.21 68.65 45.26 68.28 45.19C67.89 45.15 67.37 44.75 67.17 44.73C66.9 44.73 66.75 44.77 66.42 44.73C66.06 44.73 65.39 44.33 65.23 44.26C64.97 44.19 64.39 44.19 63.99 44.05C63.88 44.01 63.32 43.83 63.24 43.81C62.85 43.79 62.59 43.9 61.94 43.69C61.52 43.52 61.33 43.36 61.24 43.33C61.19 43.31 61.24 43.33 61.26 43.33C61.26 43.33 61.22 43.33 61.14 43.34C60.97 43.34 60.63 43.43 60.1 43.3C59.61 43.15 59.39 42.97 59.27 42.92C59.21 42.89 59.22 42.9 59.24 42.9L58.91 42.82C58.06 42.59 57.11 42.54 56.26 42.33C56.35 42.33 56.26 42.33 55.95 42.38C55.8 42.4 55.6 42.43 55.33 42.4C55 42.42 54.18 41.94 54.18 41.93C54.32 41.96 54.08 41.91 54.01 41.9C53.69 41.84 53.34 41.75 53.02 41.71L52.35 41.62C52.16 41.6 52.33 41.62 52.28 41.61C52 41.65 51.51 41.75 51.16 41.66C50.88 41.63 50.3 41.36 50.24 41.34C49.2 41.17 47.98 41.08 46.94 40.91C46.22 40.68 46.21 40.64 45.5 40.65C44.44 40.48 43.45 40.34 42.4 40.11C42.12 40.05 42.16 40.05 41.91 40.06C41.71 40.06 41.38 40.11 40.97 40.01C40.61 39.92 40.38 39.8 40.25 39.76C40.19 39.74 40.18 39.74 40.16 39.73C40.14 39.73 40.07 39.73 39.98 39.73L39.6 39.78C39.52 39.78 39.43 39.79 39.33 39.78C37.57 39.55 35.83 39.33 34.08 39.05C33.72 39.01 34.01 39.11 33.32 39.08C32.73 38.93 32.31 38.37 32.51 37.86C33.36 36.05 34.07 34.18 34.98 32.41C35.04 32.32 35.12 32.11 35.17 32.01C35.3 31.47 35.77 30.91 36.12 30.57C36.6 29.69 37.07 28.66 37.89 28.05C38.25 27.58 38.55 27.19 38.84 26.66C39.57 25.71 40.25 25.02 41.07 24.18C41.29 23.95 41.64 23.6 41.87 23.41C42.37 22.97 43.03 23.7 42.55 24.16L42.57 24.23Z" fill="#E1E3E5"/>
<path d="M38.21 28.89C38.72 28.84 38.58 28.95 39.24 28.92C39.53 28.91 39.86 28.78 40.26 28.77C40.57 28.77 40.91 28.83 41.28 28.83C41.6 28.83 41.94 28.73 42.3 28.73C42.62 28.73 42.96 29.02 43.31 29.03C43.64 29.03 43.98 28.79 44.34 28.81C44.67 28.82 45.01 28.81 45.36 28.84C45.69 28.86 46.02 29.01 46.37 29.03C46.72 29.05 47.04 29.11 47.39 29.14C47.74 29.17 48.05 29.28 48.4 29.32C48.75 29.36 49.07 29.4 49.41 29.44C49.75 29.48 50.09 29.45 50.43 29.5C50.77 29.55 51.12 29.42 51.46 29.47C51.8 29.52 52.12 29.65 52.46 29.7C52.8 29.75 53.15 29.67 53.49 29.72C53.83 29.77 54.11 30.13 54.44 30.19C54.77 30.25 55.11 30.31 55.44 30.38C55.77 30.45 56.14 30.34 56.48 30.41C56.82 30.48 57.14 30.58 57.47 30.66C57.8 30.74 58.14 30.78 58.48 30.86C58.82 30.94 59.11 31.16 59.44 31.24C59.77 31.32 60.16 31.21 60.49 31.3C60.82 31.39 61.11 31.61 61.44 31.71C61.77 31.81 62.13 31.81 62.45 31.91C62.77 32.01 63.1 32.12 63.42 32.23C63.74 32.34 64.07 32.43 64.4 32.55C64.73 32.67 64.94 33.05 65.26 33.18C65.58 33.31 65.89 33.43 66.21 33.56C66.53 33.69 66.89 33.69 67.21 33.82C67.53 33.95 67.84 34.09 68.15 34.23C68.46 34.37 68.81 34.42 69.13 34.57C69.45 34.72 69.71 34.93 70.02 35.09C70.33 35.25 70.57 35.51 70.87 35.67C71.17 35.83 71.58 35.79 71.88 35.96C72.18 36.13 72.41 36.41 72.71 36.58C73.01 36.75 73.37 36.81 73.66 36.99C73.95 37.17 74.2 37.42 74.49 37.61C74.78 37.8 75.01 38.06 75.3 38.25" stroke="#E1E3E5" stroke-width="1.5" stroke-linecap="round" stroke-linejoin="round"/>
<path d="M33.75 43.32C34.23 43.32 33.65 43.55 33.49 44.19C33.42 44.45 33.38 44.76 33.31 45.14C33.26 45.42 33.16 45.73 33.11 46.09C33.07 46.39 32.91 46.7 32.88 47.04C32.85 47.34 32.88 47.67 32.86 48.01C32.85 48.31 32.86 48.64 32.86 48.98C32.86 49.29 32.86 49.62 32.86 49.95C32.86 50.26 32.93 50.55 32.94 50.89C33.32 51.23 33.28 50.89 33.93 50.89C34.22 50.89 34.56 51.03 34.95 51.04C35.26 51.04 35.6 50.97 35.97 50.97C36.29 50.97 36.63 51.07 36.99 51.08C37.32 51.08 37.66 50.84 38.02 50.85C38.35 50.85 38.69 50.87 39.04 50.87C39.39 50.87 39.71 51.12 40.06 51.12C40.41 51.12 40.74 51.06 41.08 51.06C41.42 51.06 41.76 50.98 42.1 50.98C42.44 50.98 42.78 51.06 43.12 51.06C43.46 51.06 43.8 51.01 44.14 51.01C44.48 51.01 44.82 51.08 45.16 51.08C45.5 51.08 45.84 51.03 46.18 51.03C46.52 51.03 46.86 51.03 47.21 51.03C47.56 51.03 47.9 51.17 48.24 51.17C48.58 51.17 48.93 51.11 49.26 51.1C49.59 51.09 49.95 50.94 50.28 50.94C50.61 50.94 50.97 50.92 51.31 50.92C51.65 50.92 52 51.09 52.34 51.08C52.69 51.08 53.03 51.06 53.37 51.05C53.72 51.05 54.06 50.94 54.39 50.93C54.75 50.92 55.2 50.99 55.52 50.98C55.82 50.52 55.36 50.49 55.32 49.82C55.3 49.51 55.42 49.13 55.41 48.72C55.4 48.38 55.17 48.02 55.17 47.63C55.17 47.28 55.12 46.91 55.12 46.53C55.12 46.15 55.21 45.8 55.23 45.43C55.25 45.06 55.31 44.7 55.34 44.34C55.37 43.98 55.37 43.53 55.42 43.18C55.91 43.17 55.41 43.62 55.59 44.21C55.67 44.47 55.92 44.73 56.05 45.08C56.15 45.36 56.07 45.74 56.21 46.06C56.33 46.34 56.49 46.63 56.64 46.94C56.77 47.22 57.08 47.43 57.24 47.73C57.39 48.01 57.35 48.4 57.52 48.69C57.68 48.96 58.02 49.14 58.2 49.42C58.38 49.7 58.6 49.93 58.79 50.2C58.98 50.47 59.13 50.7 59.34 50.96C59.81 51.17 59.68 51.16 60.33 51.21C60.63 51.23 60.97 51.25 61.36 51.29C61.68 51.32 62.03 51.27 62.4 51.32C62.73 51.37 63.08 51.37 63.43 51.44C63.76 51.5 64.07 51.7 64.42 51.78C64.77 51.86 65.14 51.75 65.47 51.84C65.8 51.93 66.13 52.06 66.46 52.17C66.79 52.28 67.11 52.43 67.43 52.55C67.75 52.67 68.1 52.76 68.41 52.91C68.72 53.06 69.03 53.24 69.33 53.42C69.63 53.6 69.89 53.85 70.16 54.07C70.43 54.29 70.72 54.5 70.96 54.75C71.2 55 71.37 55.32 71.56 55.61C71.75 55.9 72.05 56.14 72.19 56.47C72.33 56.8 72.33 57.16 72.4 57.51C72.47 57.84 72.43 58.09 72.44 58.45C72.43 58.09 72.37 57.8 72.44 57.42C72.51 57.04 72.68 56.7 72.79 56.35C72.9 56 73.06 55.64 73.2 55.31C73.35 54.93 73.62 54.64 73.77 54.35C74.06 53.76 73.83 53.77 74.08 53.27C74.29 52.85 74.23 52.87 74.67 52.49C74.87 52.32 75.21 52.24 75.55 52.08C75.8 51.96 76.09 51.82 76.44 51.74C76.72 51.68 77.04 51.63 77.39 51.61L77.51 51.68C77.6 51.17 77.47 51.28 77.44 50.63C77.42 50.34 77.38 49.99 77.31 49.6C77.25 49.29 77.02 49 76.91 48.64C76.81 48.33 76.93 47.92 76.79 47.58C76.66 47.28 76.46 46.98 76.29 46.66C76.13 46.37 76.02 46.02 75.82 45.72C75.63 45.45 75.19 45.34 74.97 45.06C74.76 44.8 74.56 44.53 74.31 44.27C74.08 44.03 73.95 43.68 73.68 43.43C73.44 43.2 73.11 43.06 72.83 42.83C72.57 42.62 72.32 42.38 72.03 42.17C71.76 41.97 71.43 41.86 71.13 41.66C70.85 41.48 70.58 41.27 70.27 41.09C69.98 40.92 69.78 40.58 69.46 40.41C69.16 40.25 68.84 40.12 68.52 39.96C68.2 39.8 67.86 39.75 67.54 39.61C67.22 39.47 66.95 39.24 66.62 39.11C66.29 38.98 65.91 39.04 65.58 38.92C65.25 38.8 65.01 38.47 64.68 38.36C64.35 38.25 63.98 38.28 63.65 38.17C63.32 38.06 63.02 37.88 62.68 37.78C62.34 37.68 62.02 37.59 61.68 37.5C61.34 37.41 60.97 37.49 60.63 37.4C60.29 37.31 60.01 37.01 59.67 36.94C59.33 36.87 58.98 36.87 58.63 36.8C58.28 36.73 57.94 36.71 57.6 36.64C57.26 36.57 56.91 36.59 56.56 36.52C56.21 36.45 55.9 36.3 55.57 36.24C55.24 36.18 54.91 36.03 54.58 35.97C54.25 35.91 53.9 35.89 53.57 35.84C53.24 35.79 52.9 35.7 52.57 35.65C52.24 35.6 51.9 35.5 51.57 35.45C51.24 35.4 50.87 35.47 50.54 35.42C50.21 35.37 49.86 35.3 49.53 35.26C49.2 35.22 48.84 35.26 48.51 35.22C48.18 35.18 47.84 35.09 47.5 35.05C47.16 35.01 46.81 35.07 46.48 35.03C46.15 34.99 45.82 34.7 45.49 34.67C45.16 34.64 44.8 34.65 44.47 34.62C44.14 34.59 43.77 34.77 43.44 34.74C43.11 34.71 42.76 34.63 42.43 34.61C42.1 34.59 41.75 34.56 41.42 34.54C41.09 34.52 40.74 34.39 40.41 34.38C40.08 34.37 39.72 34.26 39.39 34.26C39.06 34.26 38.7 34.42 38.37 34.43C38.04 34.44 37.69 34.54 37.35 34.55C37 34.56 36.66 34.48 36.33 34.5C35.98 34.52 35.64 34.5 35.31 34.53C34.96 34.57 34.65 34.75 34.32 34.8C33.98 34.85 33.63 34.83 33.31 34.9C32.99 34.97 32.66 35.13 32.34 35.21C32.02 35.29 31.69 35.39 31.37 35.49C31.05 35.59 30.7 35.63 30.39 35.75C30.08 35.87 29.75 35.98 29.44 36.12C29.13 36.26 28.83 36.41 28.53 36.57C28.23 36.73 28.01 37.02 27.72 37.2C27.43 37.38 27.1 37.47 26.82 37.67C26.54 37.87 26.17 37.93 25.9 38.14C25.63 38.35 25.5 38.71 25.24 38.93C24.98 39.15 24.72 39.35 24.47 39.59C24.22 39.83 23.9 39.96 23.65 40.2C23.4 40.44 23.24 40.74 22.99 40.98C22.74 41.22 22.49 41.43 22.25 41.68C22.01 41.93 21.9 42.29 21.68 42.55C21.45 42.82 21.11 42.98 20.91 43.25C20.71 43.52 20.62 43.89 20.45 44.18C20.28 44.47 19.93 44.68 19.77 44.98C19.61 45.28 19.54 45.64 19.41 45.96C19.28 46.28 19.33 46.66 19.23 46.99C19.13 47.32 18.82 47.59 18.75 47.92C18.68 48.25 18.67 48.61 18.62 48.95C18.57 49.29 18.58 49.64 18.55 49.98C18.52 50.32 18.44 50.67 18.44 51.01C18.44 51.35 18.61 51.7 18.63 52.03C18.66 52.38 18.52 52.74 18.57 53.07C18.62 53.42 18.8 53.74 18.87 54.06C18.94 54.41 18.91 54.77 19 55.09C19.1 55.45 19.4 55.71 19.5 56.01C19.63 56.38 19.69 56.72 19.81 56.99C20.05 57.58 19.67 58.09 20.14 57.9C20.61 57.71 20.12 57.52 20.23 56.88C20.28 56.58 20.54 56.27 20.64 55.89C20.72 55.57 20.61 55.16 20.73 54.81C20.85 54.49 20.96 54.14 21.12 53.81C21.28 53.48 21.64 53.29 21.84 53C22.04 52.71 22.22 52.42 22.47 52.16C22.72 51.9 22.93 51.53 23.23 51.33C23.72 51.24 23.75 51.46 24.24 51.44C24.73 51.42 24.73 51.39 25.23 51.38C25.73 51.37 25.72 51.41 26.22 51.4C26.72 51.39 26.72 51.4 27.21 51.4C27.7 51.4 27.71 51.38 28.2 51.36C28.69 51.34 28.7 51.4 29.2 51.39C29.7 51.38 29.71 51.36 30.18 51.19C30.65 51.02 30.17 50.89 30.33 50.26C30.4 50 30.68 49.75 30.8 49.39C30.89 49.11 30.77 48.72 30.91 48.39C31.02 48.11 31.31 47.88 31.46 47.57C31.59 47.29 31.57 46.92 31.73 46.61C31.87 46.33 32.1 46.08 32.26 45.78C32.41 45.51 32.52 45.19 32.69 44.9C32.85 44.63 33.08 44.38 33.26 44.1C33.43 43.83 33.61 43.63 33.8 43.34L33.75 43.32Z" fill="#DB7856"/>
<path d="M33.75 43.32C34.23 43.32 33.65 43.55 33.49 44.19C33.42 44.45 33.38 44.76 33.31 45.14C33.26 45.42 33.16 45.73 33.11 46.09C33.07 46.39 32.91 46.7 32.88 47.04C32.85 47.34 32.88 47.67 32.86 48.01C32.85 48.31 32.86 48.64 32.86 48.98C32.86 49.29 32.86 49.62 32.86 49.95C32.86 50.26 32.93 50.55 32.94 50.89C33.32 51.23 33.28 50.89 33.93 50.89C34.22 50.89 34.56 51.03 34.95 51.04C35.26 51.04 35.6 50.97 35.97 50.97C36.29 50.97 36.63 51.07 36.99 51.08C37.32 51.08 37.66 50.84 38.02 50.85C38.35 50.85 38.69 50.87 39.04 50.87C39.39 50.87 39.71 51.12 40.06 51.12C40.41 51.12 40.74 51.06 41.08 51.06C41.42 51.06 41.76 50.98 42.1 50.98C42.44 50.98 42.78 51.06 43.12 51.06C43.46 51.06 43.8 51.01 44.14 51.01C44.48 51.01 44.82 51.08 45.16 51.08C45.5 51.08 45.84 51.03 46.18 51.03C46.52 51.03 46.86 51.03 47.21 51.03C47.56 51.03 47.9 51.17 48.24 51.17C48.58 51.17 48.93 51.11 49.26 51.1C49.59 51.09 49.95 50.94 50.28 50.94C50.61 50.94 50.97 50.92 51.31 50.92C51.65 50.92 52 51.09 52.34 51.08C52.69 51.08 53.03 51.06 53.37 51.05C53.72 51.05 54.06 50.94 54.39 50.93C54.75 50.92 55.2 50.99 55.52 50.98C55.82 50.52 55.36 50.49 55.32 49.82C55.3 49.51 55.42 49.13 55.41 48.72C55.4 48.38 55.17 48.02 55.17 47.63C55.17 47.28 55.12 46.91 55.12 46.53C55.12 46.15 55.21 45.8 55.23 45.43C55.25 45.06 55.31 44.7 55.34 44.34C55.37 43.98 55.37 43.53 55.42 43.18C55.91 43.17 55.41 43.62 55.59 44.21C55.67 44.47 55.92 44.73 56.05 45.08C56.15 45.36 56.07 45.74 56.21 46.06C56.33 46.34 56.49 46.63 56.64 46.94C56.77 47.22 57.08 47.43 57.24 47.73C57.39 48.01 57.35 48.4 57.52 48.69C57.68 48.96 58.02 49.14 58.2 49.42C58.38 49.7 58.6 49.93 58.79 50.2C58.98 50.47 59.13 50.7 59.34 50.96C59.81 51.17 59.68 51.16 60.33 51.21C60.63 51.23 60.97 51.25 61.36 51.29C61.68 51.32 62.03 51.27 62.4 51.32C62.73 51.37 63.08 51.37 63.43 51.44C63.76 51.5 64.07 51.7 64.42 51.78C64.77 51.86 65.14 51.75 65.47 51.84C65.8 51.93 66.13 52.06 66.46 52.17C66.79 52.28 67.11 52.43 67.43 52.55C67.75 52.67 68.1 52.76 68.41 52.91C68.72 53.06 69.03 53.24 69.33 53.42C69.63 53.6 69.89 53.85 70.16 54.07C70.43 54.29 70.72 54.5 70.96 54.75C71.2 55 71.37 55.32 71.56 55.61C71.75 55.9 72.05 56.14 72.19 56.47C72.33 56.8 72.33 57.16 72.4 57.51C72.47 57.84 72.43 58.09 72.44 58.45C72.43 58.09 72.37 57.8 72.44 57.42C72.51 57.04 72.68 56.7 72.79 56.35C72.9 56 73.06 55.64 73.2 55.31C73.35 54.93 73.62 54.64 73.77 54.35C74.06 53.76 73.83 53.77 74.08 53.27C74.29 52.85 74.23 52.87 74.67 52.49C74.87 52.32 75.21 52.24 75.55 52.08C75.8 51.96 76.09 51.82 76.44 51.74C76.72 51.68 77.04 51.63 77.39 51.61L77.51 51.68C77.6 51.17 77.47 51.28 77.44 50.63C77.42 50.34 77.38 49.99 77.31 49.6C77.25 49.29 77.02 49 76.91 48.64C76.81 48.33 76.93 47.92 76.79 47.58C76.66 47.28 76.46 46.98 76.29 46.66C76.13 46.37 76.02 46.02 75.82 45.72C75.63 45.45 75.19 45.34 74.97 45.06C74.76 44.8 74.56 44.53 74.31 44.27C74.08 44.03 73.95 43.68 73.68 43.43C73.44 43.2 73.11 43.06 72.83 42.83C72.57 42.62 72.32 42.38 72.03 42.17C71.76 41.97 71.43 41.86 71.13 41.66C70.85 41.48 70.58 41.27 70.27 41.09C69.98 40.92 69.78 40.58 69.46 40.41C69.16 40.25 68.84 40.12 68.52 39.96C68.2 39.8 67.86 39.75 67.54 39.61C67.22 39.47 66.95 39.24 66.62 39.11C66.29 38.98 65.91 39.04 65.58 38.92C65.25 38.8 65.01 38.47 64.68 38.36C64.35 38.25 63.98 38.28 63.65 38.17C63.32 38.06 63.02 37.88 62.68 37.78C62.34 37.68 62.02 37.59 61.68 37.5C61.34 37.41 60.97 37.49 60.63 37.4C60.29 37.31 60.01 37.01 59.67 36.94C59.33 36.87 58.98 36.87 58.63 36.8C58.28 36.73 57.94 36.71 57.6 36.64C57.26 36.57 56.91 36.59 56.56 36.52C56.21 36.45 55.9 36.3 55.57 36.24C55.24 36.18 54.91 36.03 54.58 35.97C54.25 35.91 53.9 35.89 53.57 35.84C53.24 35.79 52.9 35.7 52.57 35.65C52.24 35.6 51.9 35.5 51.57 35.45C51.24 35.4 50.87 35.47 50.54 35.42C50.21 35.37 49.86 35.3 49.53 35.26C49.2 35.22 48.84 35.26 48.51 35.22C48.18 35.18 47.84 35.09 47.5 35.05C47.16 35.01 46.81 35.07 46.48 35.03C46.15 34.99 45.82 34.7 45.49 34.67C45.16 34.64 44.8 34.65 44.47 34.62C44.14 34.59 43.77 34.77 43.44 34.74C43.11 34.71 42.76 34.63 42.43 34.61C42.1 34.59 41.75 34.56 41.42 34.54C41.09 34.52 40.74 34.39 40.41 34.38C40.08 34.37 39.72 34.26 39.39 34.26C39.06 34.26 38.7 34.42 38.37 34.43C38.04 34.44 37.69 34.54 37.35 34.55C37 34.56 36.66 34.48 36.33 34.5C35.98 34.52 35.64 34.5 35.31 34.53C34.96 34.57 34.65 34.75 34.32 34.8C33.98 34.85 33.63 34.83 33.31 34.9C32.99 34.97 32.66 35.13 32.34 35.21C32.02 35.29 31.69 35.39 31.37 35.49C31.05 35.59 30.7 35.63 30.39 35.75C30.08 35.87 29.75 35.98 29.44 36.12C29.13 36.26 28.83 36.41 28.53 36.57C28.23 36.73 28.01 37.02 27.72 37.2C27.43 37.38 27.1 37.47 26.82 37.67C26.54 37.87 26.17 37.93 25.9 38.14C25.63 38.35 25.5 38.71 25.24 38.93C24.98 39.15 24.72 39.35 24.47 39.59C24.22 39.83 23.9 39.96 23.65 40.2C23.4 40.44 23.24 40.74 22.99 40.98C22.74 41.22 22.49 41.43 22.25 41.68C22.01 41.93 21.9 42.29 21.68 42.55C21.45 42.82 21.11 42.98 20.91 43.25C20.71 43.52 20.62 43.89 20.45 44.18C20.28 44.47 19.93 44.68 19.77 44.98C19.61 45.28 19.54 45.64 19.41 45.96C19.28 46.28 19.33 46.66 19.23 46.99C19.13 47.32 18.82 47.59 18.75 47.92C18.68 48.25 18.67 48.61 18.62 48.95C18.57 49.29 18.58 49.64 18.55 49.98C18.52 50.32 18.44 50.67 18.44 51.01C18.44 51.35 18.61 51.7 18.63 52.03C18.66 52.38 18.52 52.74 18.57 53.07C18.62 53.42 18.8 53.74 18.87 54.06C18.94 54.41 18.91 54.77 19 55.09C19.1 55.45 19.4 55.71 19.5 56.01C19.63 56.38 19.69 56.72 19.81 56.99C20.05 57.58 19.67 58.09 20.14 57.9C20.61 57.71 20.12 57.52 20.23 56.88C20.28 56.58 20.54 56.27 20.64 55.89C20.72 55.57 20.61 55.16 20.73 54.81C20.85 54.49 20.96 54.14 21.12 53.81C21.28 53.48 21.64 53.29 21.84 53C22.04 52.71 22.22 52.42 22.47 52.16C22.72 51.9 22.93 51.53 23.23 51.33C23.72 51.24 23.75 51.46 24.24 51.44C24.73 51.42 24.73 51.39 25.23 51.38C25.73 51.37 25.72 51.41 26.22 51.4C26.72 51.39 26.72 51.4 27.21 51.4C27.7 51.4 27.71 51.38 28.2 51.36C28.69 51.34 28.7 51.4 29.2 51.39C29.7 51.38 29.71 51.36 30.18 51.19C30.65 51.02 30.17 50.89 30.33 50.26C30.4 50 30.68 49.75 30.8 49.39C30.89 49.11 30.77 48.72 30.91 48.39C31.02 48.11 31.31 47.88 31.46 47.57C31.59 47.29 31.57 46.92 31.73 46.61C31.87 46.33 32.1 46.08 32.26 45.78C32.41 45.51 32.52 45.19 32.69 44.9C32.85 44.63 33.08 44.38 33.26 44.1C33.43 43.83 33.61 43.63 33.8 43.34L33.75 43.32Z" stroke="#CE5D3E" stroke-width="1.5" stroke-linecap="round" stroke-linejoin="round"/>
<path d="M38.11 58.82C38.4 59.25 38.33 59.2 38.86 59.58C39.09 59.75 39.47 59.81 39.83 59.97C40.11 60.1 40.41 60.28 40.78 60.38C41.08 60.47 41.44 60.44 41.81 60.5C42.13 60.55 42.46 60.68 42.83 60.7C43.2 60.72 43.55 60.7 43.87 60.7C44.25 60.69 44.58 60.57 44.89 60.52C45.27 60.46 45.61 60.44 45.9 60.35C46.29 60.23 46.54 59.98 46.78 59.84C47.35 59.51 47.33 59.71 47.62 59.29" stroke="#7A4541" stroke-width="1.5" stroke-linecap="round" stroke-linejoin="round"/>
<path d="M36.37 80.15C36.72 80.54 36.26 80.55 36.12 81.21C36.06 81.49 36.08 81.85 36 82.24C35.93 82.55 35.62 82.83 35.54 83.2C35.47 83.52 35.46 83.87 35.38 84.23C35.32 84.55 35.46 84.93 35.38 85.29C35.32 85.62 35.2 85.95 35.13 86.3C35.07 86.63 34.99 86.97 34.93 87.32C34.87 87.65 34.69 87.97 34.63 88.33C34.57 88.69 34.41 88.99 34.35 89.34C34.29 89.69 34.4 90.05 34.35 90.4C34.3 90.75 34.25 90.97 34.2 91.32C34.68 91.49 34.67 91.42 35.19 91.42C35.71 91.42 35.7 91.48 36.22 91.48C36.74 91.48 36.74 91.34 37.25 91.34C37.76 91.34 37.77 91.42 38.28 91.42C38.79 91.42 38.79 91.33 39.31 91.33C39.83 91.33 39.83 91.33 40.34 91.33C40.85 91.33 40.86 91.41 41.37 91.41C41.88 91.41 41.88 91.44 42.4 91.44C42.92 91.44 42.91 91.44 43.43 91.44C43.95 91.44 43.94 91.31 44.46 91.31C44.98 91.31 44.98 91.42 45.49 91.42C46 91.42 46.01 91.59 46.52 91.59C47.03 91.59 47.04 91.4 47.55 91.4C48.06 91.4 48.07 91.42 48.58 91.42C49.09 91.42 49.1 91.54 49.61 91.54C50.12 91.54 50.13 91.44 50.64 91.44C51.15 91.44 51.15 91.48 51.67 91.48C52.19 91.48 52.19 91.32 52.7 91.32C53.21 91.32 53.22 91.5 53.74 91.5C54.26 91.5 54.26 91.37 54.78 91.37C55.3 91.37 55.37 91.74 55.86 91.56C56.35 91.38 55.87 91.06 55.94 90.39C55.97 90.09 55.83 89.71 55.88 89.31C55.92 88.99 56.19 88.66 56.25 88.29C56.3 87.96 56.3 87.6 56.37 87.23C56.43 86.89 56.46 86.54 56.54 86.18C56.61 85.84 56.77 85.51 56.86 85.16C56.95 84.81 56.89 84.44 56.99 84.08C57.09 83.72 57.36 83.45 57.47 83.11C57.58 82.77 57.58 82.4 57.71 82.06C57.84 81.72 58.06 81.45 58.19 81.12C58.57 80.71 58.49 80.79 59.27 80.94C59.56 80.99 59.92 81.15 60.34 81.31C60.64 81.42 60.97 81.61 61.35 81.79C61.65 81.94 61.99 82.1 62.34 82.3C62.64 82.47 62.86 82.82 63.2 83.03C63.5 83.22 63.97 83.27 64.3 83.5C64.5 83.96 64.24 83.88 64.11 84.54C64.06 84.81 63.79 85.1 63.72 85.49C63.67 85.79 63.66 86.12 63.61 86.49C63.57 86.8 63.69 87.15 63.64 87.51C63.6 87.82 63.42 88.14 63.38 88.49C63.35 88.81 63.35 89.14 63.32 89.49C63.29 89.81 63.22 90.14 63.19 90.49C63.17 90.81 63.12 91.15 63.1 91.49C63.08 91.81 63.07 92.15 63.05 92.49C63.03 92.81 62.96 93.15 62.94 93.49C62.93 93.82 63.08 94.16 63.07 94.5C63.06 94.84 63.06 95.16 63.05 95.5C63.04 95.84 62.84 96.16 62.83 96.5C62.82 96.84 63.07 97.17 63.07 97.51C63.07 97.85 62.89 98.17 62.89 98.52C62.89 98.87 63.06 99.19 63.07 99.53C63.08 99.87 62.98 100.22 62.98 100.56C62.49 100.72 62.46 100.62 61.94 100.62C61.42 100.62 61.42 100.55 60.91 100.55C60.4 100.55 60.39 100.48 59.88 100.48C59.37 100.48 59.36 100.43 58.85 100.43C58.34 100.43 58.33 100.47 57.81 100.47C57.29 100.47 57.29 100.58 56.77 100.58C56.25 100.58 56.25 100.42 55.73 100.42C55.21 100.42 55.21 100.45 54.69 100.45C54.17 100.45 54.17 100.5 53.65 100.5C53.13 100.5 53.13 100.56 52.61 100.56C52.09 100.56 52.09 100.52 51.57 100.52C51.05 100.52 51.05 100.48 50.53 100.48C50.01 100.48 50.01 100.63 49.49 100.63C48.97 100.63 48.97 100.45 48.45 100.45C47.93 100.45 47.93 100.41 47.41 100.41C46.89 100.41 46.89 100.56 46.37 100.56C45.85 100.56 45.85 100.66 45.33 100.66C44.81 100.66 44.81 100.46 44.29 100.46C43.77 100.46 43.77 100.5 43.25 100.5C42.73 100.5 42.73 100.64 42.21 100.64C41.69 100.64 41.69 100.39 41.17 100.39C40.65 100.39 40.65 100.6 40.13 100.6C39.61 100.6 39.61 100.41 39.09 100.41C38.57 100.41 38.57 100.4 38.06 100.4C37.55 100.4 37.54 100.42 37.02 100.42C36.5 100.42 36.5 100.57 35.98 100.57C35.46 100.57 35.46 100.53 34.94 100.53C34.42 100.53 34.42 100.55 33.9 100.55C33.38 100.55 33.38 100.4 32.86 100.4C32.34 100.4 32.34 100.59 31.82 100.59C31.3 100.59 31.3 100.42 30.78 100.42C30.26 100.42 30.26 100.56 29.74 100.56C29.22 100.56 29.22 100.5 28.7 100.5C28.18 100.5 28.18 100.6 27.66 100.6C27.14 100.6 27.14 100.58 26.61 100.58C26.08 100.58 26.01 100.83 25.51 100.65C25.01 100.47 25.69 100.16 25.74 99.51C25.76 99.23 25.56 98.87 25.6 98.48C25.63 98.17 25.89 97.86 25.93 97.49C25.97 97.17 25.93 96.83 25.97 96.48C26.01 96.16 26.14 95.84 26.19 95.49C26.24 95.17 26.14 94.81 26.19 94.46C26.24 94.13 26.46 93.83 26.52 93.48C26.58 93.13 26.65 92.82 26.71 92.48C26.77 92.14 26.71 91.8 26.79 91.46C26.87 91.12 26.79 90.77 26.86 90.43C26.93 90.09 27.25 89.83 27.33 89.49C27.41 89.15 27.53 88.85 27.62 88.51C27.71 88.17 27.73 87.84 27.83 87.51C27.93 87.18 27.99 86.85 28.09 86.52C28.19 86.19 28.29 85.87 28.4 85.55C28.51 85.23 28.56 84.89 28.67 84.57C28.78 84.25 28.99 83.96 29.11 83.64C29.23 83.32 29.31 82.98 29.44 82.66C29.8 82.28 29.83 82.55 30.41 82.28C30.68 82.15 30.92 81.83 31.28 81.67C31.57 81.54 31.94 81.51 32.29 81.38C32.6 81.26 32.95 81.21 33.29 81.09C33.61 80.98 33.91 80.79 34.25 80.69C34.59 80.59 34.89 80.39 35.23 80.3C35.57 80.21 35.98 80.21 36.32 80.14L36.37 80.15Z" fill="#72C2F7"/>
<path d="M36.37 80.15C36.72 80.54 36.26 80.55 36.12 81.21C36.06 81.49 36.08 81.85 36 82.24C35.93 82.55 35.62 82.83 35.54 83.2C35.47 83.52 35.46 83.87 35.38 84.23C35.32 84.55 35.46 84.93 35.38 85.29C35.32 85.62 35.2 85.95 35.13 86.3C35.07 86.63 34.99 86.97 34.93 87.32C34.87 87.65 34.69 87.97 34.63 88.33C34.57 88.69 34.41 88.99 34.35 89.34C34.29 89.69 34.4 90.05 34.35 90.4C34.3 90.75 34.25 90.97 34.2 91.32C34.68 91.49 34.67 91.42 35.19 91.42C35.71 91.42 35.7 91.48 36.22 91.48C36.74 91.48 36.74 91.34 37.25 91.34C37.76 91.34 37.77 91.42 38.28 91.42C38.79 91.42 38.79 91.33 39.31 91.33C39.83 91.33 39.83 91.33 40.34 91.33C40.85 91.33 40.86 91.41 41.37 91.41C41.88 91.41 41.88 91.44 42.4 91.44C42.92 91.44 42.91 91.44 43.43 91.44C43.95 91.44 43.94 91.31 44.46 91.31C44.98 91.31 44.98 91.42 45.49 91.42C46 91.42 46.01 91.59 46.52 91.59C47.03 91.59 47.04 91.4 47.55 91.4C48.06 91.4 48.07 91.42 48.58 91.42C49.09 91.42 49.1 91.54 49.61 91.54C50.12 91.54 50.13 91.44 50.64 91.44C51.15 91.44 51.15 91.48 51.67 91.48C52.19 91.48 52.19 91.32 52.7 91.32C53.21 91.32 53.22 91.5 53.74 91.5C54.26 91.5 54.26 91.37 54.78 91.37C55.3 91.37 55.37 91.74 55.86 91.56C56.35 91.38 55.87 91.06 55.94 90.39C55.97 90.09 55.83 89.71 55.88 89.31C55.92 88.99 56.19 88.66 56.25 88.29C56.3 87.96 56.3 87.6 56.37 87.23C56.43 86.89 56.46 86.54 56.54 86.18C56.61 85.84 56.77 85.51 56.86 85.16C56.95 84.81 56.89 84.44 56.99 84.08C57.09 83.72 57.36 83.45 57.47 83.11C57.58 82.77 57.58 82.4 57.71 82.06C57.84 81.72 58.06 81.45 58.19 81.12C58.57 80.71 58.49 80.79 59.27 80.94C59.56 80.99 59.92 81.15 60.34 81.31C60.64 81.42 60.97 81.61 61.35 81.79C61.65 81.94 61.99 82.1 62.34 82.3C62.64 82.47 62.86 82.82 63.2 83.03C63.5 83.22 63.97 83.27 64.3 83.5C64.5 83.96 64.24 83.88 64.11 84.54C64.06 84.81 63.79 85.1 63.72 85.49C63.67 85.79 63.66 86.12 63.61 86.49C63.57 86.8 63.69 87.15 63.64 87.51C63.6 87.82 63.42 88.14 63.38 88.49C63.35 88.81 63.35 89.14 63.32 89.49C63.29 89.81 63.22 90.14 63.19 90.49C63.17 90.81 63.12 91.15 63.1 91.49C63.08 91.81 63.07 92.15 63.05 92.49C63.03 92.81 62.96 93.15 62.94 93.49C62.93 93.82 63.08 94.16 63.07 94.5C63.06 94.84 63.06 95.16 63.05 95.5C63.04 95.84 62.84 96.16 62.83 96.5C62.82 96.84 63.07 97.17 63.07 97.51C63.07 97.85 62.89 98.17 62.89 98.52C62.89 98.87 63.06 99.19 63.07 99.53C63.08 99.87 62.98 100.22 62.98 100.56C62.49 100.72 62.46 100.62 61.94 100.62C61.42 100.62 61.42 100.55 60.91 100.55C60.4 100.55 60.39 100.48 59.88 100.48C59.37 100.48 59.36 100.43 58.85 100.43C58.34 100.43 58.33 100.47 57.81 100.47C57.29 100.47 57.29 100.58 56.77 100.58C56.25 100.58 56.25 100.42 55.73 100.42C55.21 100.42 55.21 100.45 54.69 100.45C54.17 100.45 54.17 100.5 53.65 100.5C53.13 100.5 53.13 100.56 52.61 100.56C52.09 100.56 52.09 100.52 51.57 100.52C51.05 100.52 51.05 100.48 50.53 100.48C50.01 100.48 50.01 100.63 49.49 100.63C48.97 100.63 48.97 100.45 48.45 100.45C47.93 100.45 47.93 100.41 47.41 100.41C46.89 100.41 46.89 100.56 46.37 100.56C45.85 100.56 45.85 100.66 45.33 100.66C44.81 100.66 44.81 100.46 44.29 100.46C43.77 100.46 43.77 100.5 43.25 100.5C42.73 100.5 42.73 100.64 42.21 100.64C41.69 100.64 41.69 100.39 41.17 100.39C40.65 100.39 40.65 100.6 40.13 100.6C39.61 100.6 39.61 100.41 39.09 100.41C38.57 100.41 38.57 100.4 38.06 100.4C37.55 100.4 37.54 100.42 37.02 100.42C36.5 100.42 36.5 100.57 35.98 100.57C35.46 100.57 35.46 100.53 34.94 100.53C34.42 100.53 34.42 100.55 33.9 100.55C33.38 100.55 33.38 100.4 32.86 100.4C32.34 100.4 32.34 100.59 31.82 100.59C31.3 100.59 31.3 100.42 30.78 100.42C30.26 100.42 30.26 100.56 29.74 100.56C29.22 100.56 29.22 100.5 28.7 100.5C28.18 100.5 28.18 100.6 27.66 100.6C27.14 100.6 27.14 100.58 26.61 100.58C26.08 100.58 26.01 100.83 25.51 100.65C25.01 100.47 25.69 100.16 25.74 99.51C25.76 99.23 25.56 98.87 25.6 98.48C25.63 98.17 25.89 97.86 25.93 97.49C25.97 97.17 25.93 96.83 25.97 96.48C26.01 96.16 26.14 95.84 26.19 95.49C26.24 95.17 26.14 94.81 26.19 94.46C26.24 94.13 26.46 93.83 26.52 93.48C26.58 93.13 26.65 92.82 26.71 92.48C26.77 92.14 26.71 91.8 26.79 91.46C26.87 91.12 26.79 90.77 26.86 90.43C26.93 90.09 27.25 89.83 27.33 89.49C27.41 89.15 27.53 88.85 27.62 88.51C27.71 88.17 27.73 87.84 27.83 87.51C27.93 87.18 27.99 86.85 28.09 86.52C28.19 86.19 28.29 85.87 28.4 85.55C28.51 85.23 28.56 84.89 28.67 84.57C28.78 84.25 28.99 83.96 29.11 83.64C29.23 83.32 29.31 82.98 29.44 82.66C29.8 82.28 29.83 82.55 30.41 82.28C30.68 82.15 30.92 81.83 31.28 81.67C31.57 81.54 31.94 81.51 32.29 81.38C32.6 81.26 32.95 81.21 33.29 81.09C33.61 80.98 33.91 80.79 34.25 80.69C34.59 80.59 34.89 80.39 35.23 80.3C35.57 80.21 35.98 80.21 36.32 80.14L36.37 80.15Z" stroke="#79B3E8" stroke-width="1.5" stroke-linecap="round" stroke-linejoin="round"/>
<path opacity="0.8" d="M30.67 63.37C33.0117 63.37 34.91 61.4717 34.91 59.13C34.91 56.7883 33.0117 54.89 30.67 54.89C28.3283 54.89 26.43 56.7883 26.43 59.13C26.43 61.4717 28.3283 63.37 30.67 63.37Z" fill="url(#paint0_radial_5602_25437)"/>
<path opacity="0.8" d="M56.2 64.48C58.5417 64.48 60.44 62.5817 60.44 60.24C60.44 57.8983 58.5417 56 56.2 56C53.8583 56 51.96 57.8983 51.96 60.24C51.96 62.5817 53.8583 64.48 56.2 64.48Z" fill="url(#paint1_radial_5602_25437)"/>
<path d="M52.98 56.36C52.98 56.55 52.95 56.73 52.92 56.9C52.89 57.09 52.85 57.26 52.79 57.43C52.73 57.61 52.68 57.79 52.59 57.94C52.49 58.1 52.36 58.24 52.23 58.36C52.09 58.49 51.94 58.6 51.78 58.68C51.62 58.76 51.42 58.77 51.24 58.77C51.06 58.77 50.89 58.7 50.72 58.63C50.55 58.56 50.39 58.5 50.25 58.37C50.12 58.25 49.97 58.13 49.86 57.98C49.76 57.83 49.71 57.65 49.64 57.47C49.58 57.31 49.53 57.13 49.5 56.94C49.47 56.77 49.45 56.58 49.45 56.4C49.45 56.22 49.48 56.03 49.51 55.86C49.54 55.67 49.57 55.5 49.63 55.33C49.69 55.15 49.72 54.96 49.82 54.81C49.92 54.65 50.1 54.56 50.23 54.44C50.37 54.31 50.5 54.2 50.66 54.13C50.82 54.06 50.99 53.94 51.18 53.94C51.37 53.94 51.56 53.99 51.73 54.06C51.9 54.13 52.04 54.25 52.19 54.37C52.32 54.49 52.44 54.63 52.55 54.79C52.65 54.94 52.71 55.11 52.78 55.29C52.84 55.45 52.92 55.63 52.96 55.81C52.99 55.98 52.98 56.17 52.99 56.36H52.98Z" fill="#5E381F"/>
<path d="M33.5 55.63C33.51 55.44 33.52 55.25 33.56 55.08C33.6 54.9 33.73 54.75 33.8 54.59C33.88 54.42 33.95 54.25 34.05 54.11C34.16 53.96 34.27 53.81 34.4 53.7C34.55 53.58 34.7 53.46 34.87 53.41C35.04 53.36 35.23 53.34 35.42 53.35C35.61 53.36 35.77 53.44 35.94 53.52C36.11 53.6 36.21 53.73 36.35 53.87C36.47 54 36.63 54.1 36.72 54.27C36.81 54.42 36.83 54.61 36.89 54.79C36.94 54.96 36.95 55.14 36.97 55.32C36.99 55.5 37.01 55.67 37 55.86C36.99 56.05 37 56.23 36.96 56.4C36.92 56.58 36.85 56.75 36.77 56.91C36.69 57.08 36.6 57.24 36.5 57.38C36.39 57.53 36.27 57.67 36.14 57.78C35.99 57.9 35.84 58.01 35.68 58.06C35.52 58.11 35.33 58.11 35.14 58.1C34.95 58.09 34.79 58.04 34.63 57.96C34.47 57.88 34.3 57.81 34.17 57.67C34.05 57.54 33.95 57.38 33.86 57.22C33.77 57.07 33.67 56.91 33.62 56.73C33.57 56.56 33.57 56.37 33.55 56.18C33.53 56 33.51 55.82 33.52 55.63H33.5Z" fill="#5E381F"/>
</g>
<defs>
<radialGradient id="paint0_radial_5602_25437" cx="0" cy="0" r="1" gradientUnits="userSpaceOnUse" gradientTransform="translate(30.67 59.13) scale(4.24)">
<stop stop-color="#F2C3B6"/>
<stop offset="1" stop-color="#F7A197" stop-opacity="0"/>
</radialGradient>
<radialGradient id="paint1_radial_5602_25437" cx="0" cy="0" r="1" gradientUnits="userSpaceOnUse" gradientTransform="translate(56.2 60.24) scale(4.24 4.24)">
<stop stop-color="#F2C3B6"/>
<stop offset="1" stop-color="#F7A197" stop-opacity="0"/>
</radialGradient>
<clipPath id="clip0_5602_25437">
<rect width="100" height="100" fill="white"/>
</clipPath>
</defs>
</svg>
