<svg width="100" height="100" viewBox="0 0 100 100" fill="none" xmlns="http://www.w3.org/2000/svg">
<g clip-path="url(#clip0_5602_25489)">
<rect width="100" height="100" fill="#B2C7A8"/>
<path d="M48.42 79.72C48.1 79.72 47.76 79.66 47.39 79.66C47.06 79.66 46.72 79.57 46.36 79.58C46.03 79.58 45.69 79.73 45.33 79.74C45 79.74 44.65 79.71 44.3 79.73C43.95 79.75 43.62 79.72 43.27 79.73C42.92 79.74 42.59 79.73 42.24 79.76C41.89 79.79 41.56 79.86 41.22 79.9C40.88 79.94 40.56 80.09 40.21 80.14C39.86 80.19 39.53 80.17 39.18 80.23C38.83 80.29 38.5 80.29 38.15 80.35C37.8 80.41 37.47 80.46 37.13 80.54C36.79 80.62 36.44 80.63 36.11 80.71C35.78 80.79 35.44 80.87 35.11 80.97C34.78 81.07 34.49 81.3 34.17 81.42C33.85 81.54 33.5 81.58 33.17 81.7C32.84 81.82 32.55 82 32.23 82.14C31.91 82.28 31.64 82.49 31.32 82.64C31 82.79 30.73 82.99 30.43 83.16C30.13 83.33 29.72 83.3 29.42 83.48C29.12 83.66 28.84 83.85 28.55 84.04C28.26 84.23 27.94 84.38 27.66 84.58C27.38 84.78 27.14 85.04 26.87 85.26C26.6 85.48 26.47 85.85 26.2 86.07C25.93 86.29 25.67 86.5 25.42 86.74C25.17 86.98 24.75 87.04 24.51 87.29C24.27 87.54 24.09 87.84 23.85 88.1C23.61 88.36 23.4 88.62 23.18 88.89C22.96 89.16 22.91 89.54 22.7 89.82C22.49 90.1 22.1 90.23 21.9 90.52C21.7 90.81 21.54 91.11 21.35 91.4C21.16 91.69 21.05 92.02 20.87 92.32C20.69 92.62 20.6 92.95 20.43 93.26C20.26 93.57 20.01 93.81 19.85 94.12C19.69 94.43 19.46 94.7 19.31 95.01C19.16 95.32 19.2 95.71 19.07 96.03C18.94 96.35 18.67 96.61 18.55 96.93C18.43 97.25 18.44 97.62 18.32 97.95C18.2 98.28 18.18 98.62 18.08 98.96C17.98 99.3 17.7 99.56 17.6 99.9C17.5 100.24 17.45 100.69 17.36 101.03C17.85 101.2 17.92 100.94 18.43 100.94C18.94 100.94 18.95 100.87 19.47 100.87C19.99 100.87 19.99 101.07 20.5 101.07C21.01 101.07 21.02 100.94 21.53 100.94C22.04 100.94 22.05 100.92 22.56 100.92C23.07 100.92 23.08 101.03 23.59 101.03C24.1 101.03 24.11 101.05 24.62 101.05C25.13 101.05 25.14 100.97 25.65 100.97C26.16 100.97 26.17 100.98 26.68 100.98C27.19 100.98 27.2 101.01 27.72 101.01C28.24 101.01 28.24 100.78 28.76 100.78C29.28 100.78 29.27 100.82 29.79 100.82C30.31 100.82 30.3 101.01 30.82 101.01C31.34 101.01 31.34 100.84 31.85 100.84C32.36 100.84 32.37 101.05 32.88 101.05C33.39 101.05 33.4 100.78 33.91 100.78C34.42 100.78 34.43 100.96 34.94 100.96C35.45 100.96 35.46 100.87 35.98 100.87C36.5 100.87 36.5 100.97 37.02 100.97C37.54 100.97 37.54 100.8 38.05 100.8C38.56 100.8 38.57 100.84 39.08 100.84C39.59 100.84 39.6 101.07 40.11 101.07C40.62 101.07 40.63 100.89 41.14 100.89C41.65 100.89 41.66 100.89 42.17 100.89C42.68 100.89 42.69 100.89 43.2 100.89C43.71 100.89 43.72 100.89 44.23 100.89C44.74 100.89 44.75 101.06 45.26 101.06C45.77 101.06 45.78 100.98 46.3 100.98C46.82 100.98 46.82 100.98 47.34 100.98C47.86 100.98 47.86 101.07 48.38 101.07C48.9 101.07 48.9 100.96 49.42 100.96C49.94 100.96 49.94 101 50.45 101C50.96 101 50.97 101.04 51.48 101.04C51.99 101.04 52 101.06 52.52 101.06C53.04 101.06 53.04 101.08 53.56 101.08C54.08 101.08 54.08 100.88 54.6 100.88C55.12 100.88 55.12 101.01 55.64 101.01C56.16 101.01 56.16 101.03 56.68 101.03C57.2 101.03 57.2 100.83 57.72 100.83C58.24 100.83 58.24 101.02 58.76 101.02C59.28 101.02 59.28 100.95 59.8 100.95C60.32 100.95 60.32 101.04 60.84 101.04C61.36 101.04 61.36 100.98 61.88 100.98C62.4 100.98 62.4 101.05 62.92 101.05C63.44 101.05 63.44 100.97 63.95 100.97C64.46 100.97 64.47 100.97 64.98 100.97C65.49 100.97 65.5 101.04 66.02 101.04C66.54 101.04 66.54 100.91 67.06 100.91C67.58 100.91 67.58 100.98 68.1 100.98C68.62 100.98 68.62 100.96 69.14 100.96C69.66 100.96 69.66 101.02 70.18 101.02C70.7 101.02 70.7 101.02 71.22 101.02C71.74 101.02 71.74 100.95 72.26 100.95C72.78 100.95 72.78 100.91 73.3 100.91C73.82 100.91 73.82 100.78 74.34 100.78C74.86 100.78 74.86 100.87 75.38 100.87C75.9 100.87 75.9 100.94 76.43 100.94C76.96 100.94 76.99 101.1 77.48 100.92C77.97 100.74 77.4 100.55 77.21 99.92C77.12 99.65 77.08 99.3 76.95 98.93C76.85 98.64 76.52 98.4 76.39 98.05C76.27 97.75 76.19 97.42 76.05 97.09C75.92 96.79 75.93 96.41 75.78 96.09C75.64 95.79 75.32 95.57 75.15 95.26C75 94.97 74.97 94.6 74.79 94.29C74.61 93.98 74.54 93.65 74.36 93.36C74.18 93.07 74.01 92.78 73.82 92.49C73.63 92.2 73.4 91.96 73.2 91.67C73 91.38 72.7 91.2 72.49 90.92C72.28 90.64 72.07 90.39 71.85 90.13C71.63 89.87 71.46 89.57 71.23 89.31C71 89.05 70.9 88.69 70.66 88.44C70.42 88.19 70.07 88.06 69.82 87.82C69.57 87.58 69.36 87.32 69.11 87.08C68.86 86.84 68.64 86.58 68.38 86.36C68.12 86.14 67.9 85.86 67.63 85.65C67.36 85.44 67.03 85.32 66.75 85.11C66.47 84.9 66.16 84.76 65.88 84.57C65.6 84.38 65.38 84.09 65.09 83.91C64.8 83.73 64.47 83.62 64.17 83.45C63.87 83.28 63.56 83.15 63.25 82.99C62.94 82.83 62.61 82.75 62.3 82.6C61.99 82.45 61.7 82.29 61.38 82.15C61.06 82.01 60.83 81.7 60.51 81.57C60.19 81.44 59.78 81.6 59.45 81.48C59.12 81.36 58.87 81.09 58.54 80.98C58.21 80.87 57.91 80.72 57.57 80.63C57.23 80.54 56.86 80.67 56.52 80.59C56.18 80.51 55.85 80.48 55.51 80.41C55.17 80.34 54.89 80.03 54.55 79.97C54.21 79.91 53.84 80.12 53.5 80.07C53.16 80.02 52.85 79.83 52.5 79.8C52.15 79.77 51.82 79.73 51.48 79.71C51.14 79.69 50.8 79.74 50.45 79.72C50.1 79.7 49.77 79.75 49.42 79.75C49.07 79.75 48.74 79.7 48.39 79.7L48.42 79.72Z" fill="white"/>
<path d="M48.42 79.72C48.1 79.72 47.76 79.66 47.39 79.66C47.06 79.66 46.72 79.57 46.36 79.58C46.03 79.58 45.69 79.73 45.33 79.74C45 79.74 44.65 79.71 44.3 79.73C43.95 79.75 43.62 79.72 43.27 79.73C42.92 79.74 42.59 79.73 42.24 79.76C41.89 79.79 41.56 79.86 41.22 79.9C40.88 79.94 40.56 80.09 40.21 80.14C39.86 80.19 39.53 80.17 39.18 80.23C38.83 80.29 38.5 80.29 38.15 80.35C37.8 80.41 37.47 80.46 37.13 80.54C36.79 80.62 36.44 80.63 36.11 80.71C35.78 80.79 35.44 80.87 35.11 80.97C34.78 81.07 34.49 81.3 34.17 81.42C33.85 81.54 33.5 81.58 33.17 81.7C32.84 81.82 32.55 82 32.23 82.14C31.91 82.28 31.64 82.49 31.32 82.64C31 82.79 30.73 82.99 30.43 83.16C30.13 83.33 29.72 83.3 29.42 83.48C29.12 83.66 28.84 83.85 28.55 84.04C28.26 84.23 27.94 84.38 27.66 84.58C27.38 84.78 27.14 85.04 26.87 85.26C26.6 85.48 26.47 85.85 26.2 86.07C25.93 86.29 25.67 86.5 25.42 86.74C25.17 86.98 24.75 87.04 24.51 87.29C24.27 87.54 24.09 87.84 23.85 88.1C23.61 88.36 23.4 88.62 23.18 88.89C22.96 89.16 22.91 89.54 22.7 89.82C22.49 90.1 22.1 90.23 21.9 90.52C21.7 90.81 21.54 91.11 21.35 91.4C21.16 91.69 21.05 92.02 20.87 92.32C20.69 92.62 20.6 92.95 20.43 93.26C20.26 93.57 20.01 93.81 19.85 94.12C19.69 94.43 19.46 94.7 19.31 95.01C19.16 95.32 19.2 95.71 19.07 96.03C18.94 96.35 18.67 96.61 18.55 96.93C18.43 97.25 18.44 97.62 18.32 97.95C18.2 98.28 18.18 98.62 18.08 98.96C17.98 99.3 17.7 99.56 17.6 99.9C17.5 100.24 17.45 100.69 17.36 101.03C17.85 101.2 17.92 100.94 18.43 100.94C18.94 100.94 18.95 100.87 19.47 100.87C19.99 100.87 19.99 101.07 20.5 101.07C21.01 101.07 21.02 100.94 21.53 100.94C22.04 100.94 22.05 100.92 22.56 100.92C23.07 100.92 23.08 101.03 23.59 101.03C24.1 101.03 24.11 101.05 24.62 101.05C25.13 101.05 25.14 100.97 25.65 100.97C26.16 100.97 26.17 100.98 26.68 100.98C27.19 100.98 27.2 101.01 27.72 101.01C28.24 101.01 28.24 100.78 28.76 100.78C29.28 100.78 29.27 100.82 29.79 100.82C30.31 100.82 30.3 101.01 30.82 101.01C31.34 101.01 31.34 100.84 31.85 100.84C32.36 100.84 32.37 101.05 32.88 101.05C33.39 101.05 33.4 100.78 33.91 100.78C34.42 100.78 34.43 100.96 34.94 100.96C35.45 100.96 35.46 100.87 35.98 100.87C36.5 100.87 36.5 100.97 37.02 100.97C37.54 100.97 37.54 100.8 38.05 100.8C38.56 100.8 38.57 100.84 39.08 100.84C39.59 100.84 39.6 101.07 40.11 101.07C40.62 101.07 40.63 100.89 41.14 100.89C41.65 100.89 41.66 100.89 42.17 100.89C42.68 100.89 42.69 100.89 43.2 100.89C43.71 100.89 43.72 100.89 44.23 100.89C44.74 100.89 44.75 101.06 45.26 101.06C45.77 101.06 45.78 100.98 46.3 100.98C46.82 100.98 46.82 100.98 47.34 100.98C47.86 100.98 47.86 101.07 48.38 101.07C48.9 101.07 48.9 100.96 49.42 100.96C49.94 100.96 49.94 101 50.45 101C50.96 101 50.97 101.04 51.48 101.04C51.99 101.04 52 101.06 52.52 101.06C53.04 101.06 53.04 101.08 53.56 101.08C54.08 101.08 54.08 100.88 54.6 100.88C55.12 100.88 55.12 101.01 55.64 101.01C56.16 101.01 56.16 101.03 56.68 101.03C57.2 101.03 57.2 100.83 57.72 100.83C58.24 100.83 58.24 101.02 58.76 101.02C59.28 101.02 59.28 100.95 59.8 100.95C60.32 100.95 60.32 101.04 60.84 101.04C61.36 101.04 61.36 100.98 61.88 100.98C62.4 100.98 62.4 101.05 62.92 101.05C63.44 101.05 63.44 100.97 63.95 100.97C64.46 100.97 64.47 100.97 64.98 100.97C65.49 100.97 65.5 101.04 66.02 101.04C66.54 101.04 66.54 100.91 67.06 100.91C67.58 100.91 67.58 100.98 68.1 100.98C68.62 100.98 68.62 100.96 69.14 100.96C69.66 100.96 69.66 101.02 70.18 101.02C70.7 101.02 70.7 101.02 71.22 101.02C71.74 101.02 71.74 100.95 72.26 100.95C72.78 100.95 72.78 100.91 73.3 100.91C73.82 100.91 73.82 100.78 74.34 100.78C74.86 100.78 74.86 100.87 75.38 100.87C75.9 100.87 75.9 100.94 76.43 100.94C76.96 100.94 76.99 101.1 77.48 100.92C77.97 100.74 77.4 100.55 77.21 99.92C77.12 99.65 77.08 99.3 76.95 98.93C76.85 98.64 76.52 98.4 76.39 98.05C76.27 97.75 76.19 97.42 76.05 97.09C75.92 96.79 75.93 96.41 75.78 96.09C75.64 95.79 75.32 95.57 75.15 95.26C75 94.97 74.97 94.6 74.79 94.29C74.61 93.98 74.54 93.65 74.36 93.36C74.18 93.07 74.01 92.78 73.82 92.49C73.63 92.2 73.4 91.96 73.2 91.67C73 91.38 72.7 91.2 72.49 90.92C72.28 90.64 72.07 90.39 71.85 90.13C71.63 89.87 71.46 89.57 71.23 89.31C71 89.05 70.9 88.69 70.66 88.44C70.42 88.19 70.07 88.06 69.82 87.82C69.57 87.58 69.36 87.32 69.11 87.08C68.86 86.84 68.64 86.58 68.38 86.36C68.12 86.14 67.9 85.86 67.63 85.65C67.36 85.44 67.03 85.32 66.75 85.11C66.47 84.9 66.16 84.76 65.88 84.57C65.6 84.38 65.38 84.09 65.09 83.91C64.8 83.73 64.47 83.62 64.17 83.45C63.87 83.28 63.56 83.15 63.25 82.99C62.94 82.83 62.61 82.75 62.3 82.6C61.99 82.45 61.7 82.29 61.38 82.15C61.06 82.01 60.83 81.7 60.51 81.57C60.19 81.44 59.78 81.6 59.45 81.48C59.12 81.36 58.87 81.09 58.54 80.98C58.21 80.87 57.91 80.72 57.57 80.63C57.23 80.54 56.86 80.67 56.52 80.59C56.18 80.51 55.85 80.48 55.51 80.41C55.17 80.34 54.89 80.03 54.55 79.97C54.21 79.91 53.84 80.12 53.5 80.07C53.16 80.02 52.85 79.83 52.5 79.8C52.15 79.77 51.82 79.73 51.48 79.71C51.14 79.69 50.8 79.74 50.45 79.72C50.1 79.7 49.77 79.75 49.42 79.75C49.07 79.75 48.74 79.7 48.39 79.7L48.42 79.72Z" stroke="#E1E3E5" stroke-width="1.5" stroke-linecap="round" stroke-linejoin="round"/>
<path d="M37.87 30.71C37.39 30.55 37.43 30.78 36.86 30.52C36.6 30.4 36.28 30.24 35.95 30.06C35.67 29.91 35.46 29.59 35.16 29.4C34.89 29.23 34.65 28.99 34.36 28.79C34.1 28.6 33.86 28.36 33.6 28.14C33.34 27.92 32.99 27.82 32.76 27.57C32.53 27.32 32.2 27.16 31.99 26.89C31.78 26.62 31.82 26.19 31.64 25.9C31.46 25.61 31.3 25.34 31.15 25.03C31 24.72 30.81 24.45 30.72 24.12C30.63 23.79 30.65 23.46 30.59 23.12C30.53 22.78 30.5 22.47 30.49 22.13C30.49 21.8 30.35 21.47 30.38 21.12C30.41 20.8 30.61 20.49 30.68 20.14C30.74 19.82 30.82 19.5 30.92 19.17C31.01 18.86 31.13 18.55 31.25 18.23C31.37 17.93 31.49 17.62 31.64 17.3C31.78 17 31.79 16.63 31.96 16.32C32.13 16.01 32.35 15.73 32.53 15.45C32.73 15.15 32.87 14.82 33.09 14.56C33.32 14.29 33.72 14.19 33.96 13.95C34.2 13.71 34.39 13.39 34.66 13.18C34.93 12.97 35.26 12.83 35.55 12.65C35.84 12.47 36.11 12.24 36.42 12.09C36.73 11.94 37 11.67 37.33 11.55C37.66 11.43 38.05 11.52 38.38 11.43C38.71 11.34 39.04 11.2 39.38 11.15C39.72 11.1 40.07 11.11 40.42 11.08C40.77 11.05 41.11 11.06 41.45 11.06C41.79 11.06 42.14 10.98 42.49 10.99C42.84 11 43.18 11.05 43.52 11.09C43.86 11.13 44.2 11.21 44.54 11.26C44.88 11.31 45.23 11.36 45.57 11.42C45.91 11.48 46.23 11.63 46.57 11.71C46.91 11.79 47.27 11.78 47.6 11.87C47.93 11.96 48.31 11.95 48.64 12.05C48.98 12.16 49.33 12.23 49.64 12.35C49.98 12.47 50.24 12.77 50.55 12.89C50.9 13.02 51.28 13.02 51.57 13.14C51.93 13.3 52.22 13.52 52.49 13.64C53.08 13.91 52.93 13.92 53.41 14.1C53.89 14.28 53.89 14.26 54.38 14.41C54.87 14.56 54.83 14.7 55.32 14.85C55.81 15 55.84 14.91 56.33 15.06C56.82 15.21 56.82 15.2 57.31 15.34C57.8 15.48 57.85 15.34 58.34 15.49C58.83 15.64 58.76 15.86 59.25 16C59.74 16.14 59.73 16.19 60.22 16.34C60.71 16.49 60.79 16.22 61.28 16.37C61.77 16.52 61.76 16.55 62.25 16.7C62.74 16.85 62.73 16.87 63.22 17.02C63.71 17.17 63.65 17.38 64.14 17.53C64.63 17.68 64.7 17.45 65.19 17.59C65.68 17.73 65.65 17.83 66.14 17.98C66.63 18.13 66.59 18.26 67.08 18.41C67.57 18.56 67.63 18.36 68.12 18.51C68.61 18.66 68.61 18.65 69.11 18.8C69.61 18.95 69.6 18.94 70.09 19.09C70.58 19.24 70.58 19.24 71.07 19.39C71.56 19.54 71.52 19.68 72.01 19.83C72.5 19.98 72.54 19.87 73.03 20.02C73.52 20.17 73.46 20.46 73.97 20.54C74.48 20.62 74.36 20.26 74.98 20.16C75.27 20.12 75.62 20.19 76.01 20.16C76.32 20.13 76.66 19.99 77.02 19.98C77.34 19.98 77.69 20 78.04 20.01C78.37 20.02 78.69 20.22 79.04 20.25C79.39 20.28 79.75 20.05 80.09 20.12C80.43 20.19 80.76 20.29 81.09 20.38C81.42 20.47 81.7 20.71 82.02 20.83C82.34 20.95 82.68 21.02 82.99 21.18C83.3 21.34 83.56 21.56 83.84 21.75C84.12 21.94 84.47 22.06 84.73 22.29C84.99 22.52 85.21 22.78 85.44 23.05C85.67 23.32 85.78 23.64 85.98 23.94C86.16 24.21 86.36 24.5 86.52 24.81C86.67 25.1 86.68 25.46 86.81 25.79C86.93 26.1 87.11 26.39 87.21 26.72C87.3 27.04 87.4 27.36 87.47 27.71C87.54 28.03 87.62 28.37 87.67 28.72C87.71 29.05 87.79 29.38 87.82 29.74C87.85 30.07 87.82 30.42 87.84 30.77C87.84 31.1 87.79 31.45 87.78 31.8C87.77 32.15 87.81 32.49 87.79 32.81C87.77 33.16 87.7 33.49 87.66 33.81C87.62 34.16 87.49 34.47 87.43 34.79C87.37 35.13 87.32 35.46 87.24 35.78C87.15 36.12 87.25 36.5 87.15 36.81C87.04 37.14 86.79 37.41 86.66 37.71C86.52 38.03 86.32 38.3 86.16 38.59C85.98 38.89 85.87 39.22 85.67 39.48C85.46 39.76 85.27 40.05 85.04 40.28C84.81 40.51 84.49 40.7 84.23 40.9C83.97 41.1 83.62 41.2 83.34 41.37C83.06 41.54 82.79 41.77 82.49 41.9C82.19 42.03 81.86 42.14 81.54 42.24C81.22 42.34 80.91 42.5 80.58 42.57C80.25 42.64 79.9 42.56 79.56 42.59C79.22 42.62 78.9 42.84 78.56 42.85C78.22 42.86 77.88 42.78 77.55 42.76C77.22 42.74 76.89 42.58 76.56 42.54C76.23 42.5 75.89 42.43 75.57 42.37C75.25 42.31 74.91 42.22 74.59 42.14C74.25 42.05 73.9 42.04 73.6 41.94C73.27 41.82 72.91 41.78 72.62 41.65C72.29 41.5 72.06 41.19 71.8 41.04C71.46 40.83 71.14 40.69 70.96 40.49" fill="white"/>
<path d="M37.87 30.71C37.39 30.55 37.43 30.78 36.86 30.52C36.6 30.4 36.28 30.24 35.95 30.06C35.67 29.91 35.46 29.59 35.16 29.4C34.89 29.23 34.65 28.99 34.36 28.79C34.1 28.6 33.86 28.36 33.6 28.14C33.34 27.92 32.99 27.82 32.76 27.57C32.53 27.32 32.2 27.16 31.99 26.89C31.78 26.62 31.82 26.19 31.64 25.9C31.46 25.61 31.3 25.34 31.15 25.03C31 24.72 30.81 24.45 30.72 24.12C30.63 23.79 30.65 23.46 30.59 23.12C30.53 22.78 30.5 22.47 30.49 22.13C30.49 21.8 30.35 21.47 30.38 21.12C30.41 20.8 30.61 20.49 30.68 20.14C30.74 19.82 30.82 19.5 30.92 19.17C31.01 18.86 31.13 18.55 31.25 18.23C31.37 17.93 31.49 17.62 31.64 17.3C31.78 17 31.79 16.63 31.96 16.32C32.13 16.01 32.35 15.73 32.53 15.45C32.73 15.15 32.87 14.82 33.09 14.56C33.32 14.29 33.72 14.19 33.96 13.95C34.2 13.71 34.39 13.39 34.66 13.18C34.93 12.97 35.26 12.83 35.55 12.65C35.84 12.47 36.11 12.24 36.42 12.09C36.73 11.94 37 11.67 37.33 11.55C37.66 11.43 38.05 11.52 38.38 11.43C38.71 11.34 39.04 11.2 39.38 11.15C39.72 11.1 40.07 11.11 40.42 11.08C40.77 11.05 41.11 11.06 41.45 11.06C41.79 11.06 42.14 10.98 42.49 10.99C42.84 11 43.18 11.05 43.52 11.09C43.86 11.13 44.2 11.21 44.54 11.26C44.88 11.31 45.23 11.36 45.57 11.42C45.91 11.48 46.23 11.63 46.57 11.71C46.91 11.79 47.27 11.78 47.6 11.87C47.93 11.96 48.31 11.95 48.64 12.05C48.98 12.16 49.33 12.23 49.64 12.35C49.98 12.47 50.24 12.77 50.55 12.89C50.9 13.02 51.28 13.02 51.57 13.14C51.93 13.3 52.22 13.52 52.49 13.64C53.08 13.91 52.93 13.92 53.41 14.1C53.89 14.28 53.89 14.26 54.38 14.41C54.87 14.56 54.83 14.7 55.32 14.85C55.81 15 55.84 14.91 56.33 15.06C56.82 15.21 56.82 15.2 57.31 15.34C57.8 15.48 57.85 15.34 58.34 15.49C58.83 15.64 58.76 15.86 59.25 16C59.74 16.14 59.73 16.19 60.22 16.34C60.71 16.49 60.79 16.22 61.28 16.37C61.77 16.52 61.76 16.55 62.25 16.7C62.74 16.85 62.73 16.87 63.22 17.02C63.71 17.17 63.65 17.38 64.14 17.53C64.63 17.68 64.7 17.45 65.19 17.59C65.68 17.73 65.65 17.83 66.14 17.98C66.63 18.13 66.59 18.26 67.08 18.41C67.57 18.56 67.63 18.36 68.12 18.51C68.61 18.66 68.61 18.65 69.11 18.8C69.61 18.95 69.6 18.94 70.09 19.09C70.58 19.24 70.58 19.24 71.07 19.39C71.56 19.54 71.52 19.68 72.01 19.83C72.5 19.98 72.54 19.87 73.03 20.02C73.52 20.17 73.46 20.46 73.97 20.54C74.48 20.62 74.36 20.26 74.98 20.16C75.27 20.12 75.62 20.19 76.01 20.16C76.32 20.13 76.66 19.99 77.02 19.98C77.34 19.98 77.69 20 78.04 20.01C78.37 20.02 78.69 20.22 79.04 20.25C79.39 20.28 79.75 20.05 80.09 20.12C80.43 20.19 80.76 20.29 81.09 20.38C81.42 20.47 81.7 20.71 82.02 20.83C82.34 20.95 82.68 21.02 82.99 21.18C83.3 21.34 83.56 21.56 83.84 21.75C84.12 21.94 84.47 22.06 84.73 22.29C84.99 22.52 85.21 22.78 85.44 23.05C85.67 23.32 85.78 23.64 85.98 23.94C86.16 24.21 86.36 24.5 86.52 24.81C86.67 25.1 86.68 25.46 86.81 25.79C86.93 26.1 87.11 26.39 87.21 26.72C87.3 27.04 87.4 27.36 87.47 27.71C87.54 28.03 87.62 28.37 87.67 28.72C87.71 29.05 87.79 29.38 87.82 29.74C87.85 30.07 87.82 30.42 87.84 30.77C87.84 31.1 87.79 31.45 87.78 31.8C87.77 32.15 87.81 32.49 87.79 32.81C87.77 33.16 87.7 33.49 87.66 33.81C87.62 34.16 87.49 34.47 87.43 34.79C87.37 35.13 87.32 35.46 87.24 35.78C87.15 36.12 87.25 36.5 87.15 36.81C87.04 37.14 86.79 37.41 86.66 37.71C86.52 38.03 86.32 38.3 86.16 38.59C85.98 38.89 85.87 39.22 85.67 39.48C85.46 39.76 85.27 40.05 85.04 40.28C84.81 40.51 84.49 40.7 84.23 40.9C83.97 41.1 83.62 41.2 83.34 41.37C83.06 41.54 82.79 41.77 82.49 41.9C82.19 42.03 81.86 42.14 81.54 42.24C81.22 42.34 80.91 42.5 80.58 42.57C80.25 42.64 79.9 42.56 79.56 42.59C79.22 42.62 78.9 42.84 78.56 42.85C78.22 42.86 77.88 42.78 77.55 42.76C77.22 42.74 76.89 42.58 76.56 42.54C76.23 42.5 75.89 42.43 75.57 42.37C75.25 42.31 74.91 42.22 74.59 42.14C74.25 42.05 73.9 42.04 73.6 41.94C73.27 41.82 72.91 41.78 72.62 41.65C72.29 41.5 72.06 41.19 71.8 41.04C71.46 40.83 71.14 40.69 70.96 40.49" stroke="#E1E3E5" stroke-width="1.5" stroke-linecap="round" stroke-linejoin="round"/>
<path d="M46.76 15.67C46.72 15.17 46.65 15.28 46.67 14.65C46.68 14.36 46.74 14.02 46.78 13.64C46.81 13.33 46.86 12.99 46.92 12.64C46.98 12.33 47.2 12.03 47.29 11.69C47.37 11.38 47.41 11.04 47.53 10.71C47.64 10.4 47.68 10.05 47.82 9.73999C47.96 9.42999 48.09 9.11999 48.26 8.81999C48.43 8.51999 48.78 8.36999 48.98 8.08999C49.18 7.80999 49.27 7.46999 49.5 7.21999C49.73 6.96999 50.02 6.80999 50.28 6.57999C50.54 6.34999 50.8 6.17999 51.08 5.97999C51.36 5.77999 51.51 5.41999 51.81 5.24999C52.09 5.08999 52.45 5.03999 52.77 4.88999C53.07 4.75999 53.4 4.69999 53.73 4.57999C54.04 4.46999 54.37 4.43999 54.71 4.35999C55.03 4.27999 55.35 4.20999 55.69 4.14999C56.01 4.08999 56.32 3.93999 56.67 3.89999C56.99 3.85999 57.33 3.87999 57.68 3.85999C58.01 3.83999 58.34 3.61999 58.68 3.60999C59.01 3.60999 59.35 3.71999 59.69 3.72999C60.03 3.73999 60.35 3.77999 60.7 3.79999C61.05 3.81999 61.35 3.98999 61.69 4.02999C62.03 4.06999 62.38 3.85999 62.73 3.90999C63.08 3.95999 63.34 4.28999 63.68 4.34999C64.02 4.40999 64.38 4.22999 64.72 4.29999C65.06 4.36999 65.33 4.62999 65.67 4.70999C66.01 4.78999 66.41 4.63999 66.74 4.72999C67.08 4.81999 67.38 5.04999 67.71 5.13999C68.05 5.23999 68.38 5.35999 68.7 5.46999C69.04 5.57999 69.38 5.65999 69.7 5.77999C70.03 5.90999 70.39 5.96999 70.7 6.09999C71.03 6.23999 71.31 6.46999 71.61 6.62999C71.93 6.78999 72.3 6.84999 72.59 7.01999C72.9 7.19999 73.08 7.57999 73.35 7.75999C73.65 7.95999 73.94 8.12999 74.21 8.33999C74.49 8.55999 74.87 8.65999 75.12 8.88999C75.38 9.13999 75.5 9.50999 75.72 9.75999C75.95 10.03 76.2 10.27 76.39 10.55C76.59 10.84 76.65 11.21 76.81 11.51C76.97 11.81 77.29 12.06 77.41 12.38C77.53 12.7 77.48 13.09 77.56 13.42C77.64 13.75 77.89 14.07 77.93 14.41C77.97 14.75 77.84 15.11 77.85 15.46C77.86 15.81 77.91 16.16 77.88 16.5C77.85 16.84 77.9 17.21 77.84 17.55C77.78 17.89 77.73 18.25 77.65 18.58C77.57 18.91 77.41 19.25 77.3 19.57C77.19 19.89 76.92 20.18 76.79 20.49C76.66 20.83 76.57 21.17 76.43 21.47C76.27 21.81 76.15 22.13 76 22.42C75.81 22.77 75.75 23.14 75.6 23.4C75.27 23.95 75.31 23.83 75 24.25" fill="white"/>
<path d="M46.25 15.71C46.01 14.59 46.25 13.49 46.39 12.38C46.49 12.03 46.67 11.77 46.74 11.4C46.95 10.42 47.2 9.32001 47.73 8.42001C47.93 8.10001 48.21 7.95001 48.4 7.74001C48.62 7.44001 48.68 7.06001 49.09 6.66001C49.57 6.20001 50.02 5.93001 50.47 5.55001L50.65 5.41001C50.68 5.38001 50.68 5.39001 50.71 5.36001C50.97 4.96001 51.47 4.51001 51.97 4.39001C53.45 3.79001 55.14 3.49001 56.57 3.14001C56.82 3.12001 57.61 3.11001 57.71 3.07001C57.87 3.04001 58.23 2.83001 58.75 2.84001C59.16 2.86001 59.44 2.94001 59.63 2.95001C60.16 3.01001 60.94 2.98001 61.45 3.18001C61.82 3.32001 61.94 3.20001 62.37 3.14001C62.56 3.11001 62.92 3.12001 63.17 3.23001C63.61 3.44001 63.81 3.60001 63.82 3.58001C63.76 3.59001 64 3.55001 64.42 3.50001C64.62 3.48001 64.97 3.52001 65.16 3.61001C65.44 3.71001 65.64 3.88001 65.84 3.94001C66 3.98001 66.22 3.91001 66.47 3.92001C66.92 3.86001 67.65 4.29001 67.9 4.39001L69.51 4.92001C70.31 5.16001 71.21 5.43001 71.91 5.94001C72.37 6.12001 73.25 6.39001 73.57 6.94001C73.74 7.16001 73.88 7.23001 74.07 7.36001L74.72 7.81001C74.86 7.91001 75.15 7.99001 75.53 8.29001C75.91 8.63001 76.04 8.97001 76.16 9.16001C76.27 9.34001 76.73 9.86001 76.92 10.11C77.16 10.37 77.31 11.08 77.44 11.26C77.52 11.41 77.77 11.6 77.99 12.05C78.22 12.65 78.09 12.93 78.2 13.33C78.39 13.72 78.64 14.36 78.53 14.82C78.37 15.62 78.5 16.44 78.43 17.3C78.31 18.47 77.89 19.71 77.25 20.63C76.97 21.38 76.59 22.19 76.24 22.91C76.14 23.16 76.01 23.53 75.84 23.75C75.72 23.98 75.45 24.24 75.3 24.46C74.98 24.85 74.37 24.38 74.67 23.97C75.21 23.35 75.31 22.87 75.6 22.16C75.87 21.58 76.13 20.84 76.33 20.23C76.49 19.87 76.68 19.65 76.75 19.48L76.98 18.77C77.33 17.74 77.29 16.68 77.23 15.59C77.21 15.38 77.25 14.93 77.29 14.68C77.3 14.44 77.3 14.46 77.19 14.2C77.05 13.95 76.87 13.49 76.86 13.19C76.79 12.42 76.88 12.71 76.33 12.01C75.98 11.51 76.03 11.22 75.78 10.88C75.46 10.51 75.29 10.38 74.95 9.88001C74.56 9.19001 74.68 9.43001 73.97 9.02001L73.23 8.52001C72.97 8.38001 72.59 8.04001 72.45 7.86001C72.26 7.66001 72.32 7.66001 72.09 7.56001C71.34 7.41001 70.63 6.74001 69.85 6.59001C69.33 6.42001 67.95 6.00001 67.41 5.82001C66.92 5.66001 66.78 5.47001 66.49 5.45001C66.13 5.48001 65.86 5.53001 65.45 5.43001C65.06 5.34001 64.82 5.09001 64.53 5.04001C64.39 5.02001 64.08 5.19001 63.46 5.07001C62.91 4.90001 62.69 4.66001 62.61 4.65001C62.68 4.65001 62.58 4.64001 62.23 4.73001C61.64 4.93001 60.96 4.53001 60.37 4.52001C59.98 4.52001 59 4.38001 58.73 4.35001C58.68 4.33001 58.52 4.40001 58.15 4.52001C57.45 4.66001 57.32 4.59001 56.77 4.63001C55.34 5.05001 54.13 5.12001 52.86 5.63001C52.76 5.68001 52.27 5.79001 52.19 5.85001C51.98 6.05001 51.66 6.48001 51.35 6.66001C50.99 6.91001 50.37 7.39001 50.08 7.62001C49.9 7.79001 49.69 8.37001 49.41 8.65001C49.21 8.85001 49 8.99001 48.87 9.13001C48.74 9.41001 48.48 9.87001 48.39 10.11C48.21 10.65 48.01 11.57 47.78 12.17L47.6 12.55L47.55 12.68C47.55 12.68 47.53 12.74 47.52 12.82L47.45 13.22C47.32 14.01 47.15 14.81 47.31 15.6C47.36 16.25 46.36 16.33 46.29 15.69L46.25 15.71Z" fill="#E1E3E5"/>
<path d="M42.05 24.26C41.68 24.6 41.79 24.49 41.34 24.96C41.15 25.17 40.89 25.38 40.63 25.67C40.43 25.9 40.23 26.16 40 26.44C39.8 26.68 39.54 26.9 39.32 27.18C39.12 27.43 39.01 27.76 38.8 28.04C38.61 28.3 38.41 28.57 38.21 28.85C38.02 29.12 37.68 29.29 37.49 29.58C37.31 29.85 37.16 30.16 36.98 30.45C36.8 30.74 36.69 31.05 36.51 31.35C36.33 31.65 36.02 31.84 35.86 32.14C35.7 32.44 35.63 32.77 35.47 33.08C35.31 33.39 35.19 33.68 35.03 33.99C34.87 34.3 34.76 34.6 34.62 34.91C34.48 35.22 34.37 35.53 34.23 35.84C34.09 36.15 34 36.47 33.87 36.78C33.74 37.09 33.57 37.38 33.44 37.7C33.31 38.02 33.17 38.28 33.06 38.6C33.35 39.02 33.38 38.7 34.04 38.76C34.32 38.79 34.66 38.84 35.05 38.87C35.36 38.9 35.69 39 36.06 39.04C36.38 39.07 36.72 39.11 37.07 39.14C37.39 39.17 37.74 39.16 38.09 39.2C38.42 39.23 38.75 39.31 39.1 39.35C39.43 39.39 39.79 39.23 40.13 39.27C40.46 39.31 40.78 39.51 41.12 39.55C41.46 39.59 41.8 39.5 42.15 39.55C42.5 39.6 42.81 39.7 43.16 39.74C43.51 39.78 43.83 39.81 44.18 39.85C44.53 39.89 44.84 39.98 45.19 40.03C45.54 40.08 45.88 40.01 46.22 40.06C46.56 40.11 46.87 40.28 47.21 40.33C47.55 40.38 47.89 40.36 48.23 40.41C48.57 40.46 48.9 40.48 49.24 40.53C49.58 40.58 49.91 40.61 50.25 40.66C50.59 40.71 50.89 40.93 51.23 40.99C51.57 41.05 51.94 40.86 52.28 40.92C52.62 40.98 52.96 40.99 53.3 41.05C53.64 41.11 53.97 41.19 54.3 41.25C54.63 41.31 54.92 41.64 55.26 41.7C55.6 41.76 55.97 41.59 56.31 41.65C56.65 41.71 56.98 41.8 57.31 41.86C57.64 41.92 57.99 41.94 58.33 42C58.67 42.06 58.99 42.17 59.33 42.24C59.67 42.31 59.95 42.6 60.29 42.67C60.63 42.74 61 42.61 61.34 42.69C61.68 42.77 61.96 43.07 62.29 43.14C62.62 43.21 63 43.13 63.33 43.21C63.66 43.29 63.98 43.45 64.31 43.53C64.64 43.61 65 43.62 65.33 43.7C65.66 43.78 65.94 44.06 66.27 44.15C66.6 44.24 66.99 44.12 67.32 44.21C67.65 44.3 67.93 44.56 68.25 44.66C68.57 44.76 68.98 44.64 69.3 44.74C69.62 44.84 69.91 45.07 70.23 45.18C70.55 45.29 70.84 45.51 71.16 45.63C71.48 45.75 71.88 45.67 72.19 45.79C72.5 45.91 72.79 46.15 73.1 46.28C73.41 46.41 73.72 46.58 74.02 46.72C74.32 46.86 74.63 46.96 74.93 47.11C75.35 46.84 74.93 46.78 74.99 46.14C75.01 45.86 75.06 45.52 75.09 45.14C75.11 44.83 75.02 44.49 75.04 44.13C75.06 43.81 75.15 43.48 75.17 43.13C75.19 42.81 75.14 42.47 75.15 42.12C75.16 41.79 75.18 41.46 75.19 41.11C75.2 40.76 75.35 40.45 75.36 40.11C75.37 39.77 75.32 39.44 75.33 39.1C75.34 38.76 75.44 38.43 75.44 38.09C75.44 37.75 75.47 37.42 75.47 37.08C75.47 36.74 75.47 36.41 75.47 36.07C75.47 35.73 75.3 35.4 75.29 35.06C75.28 34.72 75.35 34.38 75.33 34.04C75.31 33.7 75.33 33.36 75.3 33.02C75.27 32.68 75.19 32.35 75.16 32.02C75.13 31.69 75.05 31.35 75.01 31.02" fill="white"/>
<path d="M42.39 24.63C41.43 25.55 40.47 26.68 39.66 27.7C39.44 28.19 39.06 28.68 38.77 29.1C38.6 29.39 38.2 29.69 38.02 29.9C37.68 30.47 37.34 31.12 37.03 31.73C36.8 32.08 36.55 32.23 36.4 32.51C36.29 32.78 36.15 33.23 35.99 33.52C35.16 35.26 34.52 37.09 33.75 38.86L33.66 38.18C33.69 38.26 33.78 38.2 33.43 38.08C33.13 38.08 33.37 38.06 33.51 38.02C33.76 37.97 34.11 38 34.37 38.02C35.96 38.23 37.6 38.31 39.19 38.47C39.5 38.43 39.69 38.36 40.04 38.36C40.74 38.36 40.97 38.72 41.61 38.6C42.87 38.59 44.15 38.9 45.4 39.02C45.8 39.02 46.12 38.96 46.63 39.08C47.32 39.29 47.26 39.27 47.85 39.3C48.62 39.33 49.45 39.46 50.22 39.54C50.56 39.54 51.24 39.84 51.38 39.88H51.33C51.61 39.81 52.27 39.74 52.54 39.82C53.07 39.87 53.71 39.96 54.23 40.07C54.37 40.1 54.36 40.08 54.72 40.18C55.22 40.37 55.41 40.56 55.49 40.58C55.53 40.6 55.47 40.57 55.4 40.56C55.36 40.56 55.39 40.56 55.46 40.56C55.6 40.56 55.96 40.44 56.5 40.53L57.17 40.68C58.19 40.89 59.7 41.01 60.5 41.6C60.41 41.6 60.53 41.61 60.81 41.59C61.12 41.55 61.75 41.65 62.02 41.82C62.34 42 62.51 42.12 62.51 42.12C62.44 42.11 62.54 42.14 62.78 42.13C62.97 42.13 63.33 42.14 63.56 42.21C63.78 42.27 64.21 42.44 64.41 42.51C64.87 42.66 65.21 42.59 65.82 42.85C66.19 43.03 66.37 43.16 66.47 43.22C66.8 43.24 67.34 43.19 67.7 43.37C68.06 43.52 68.26 43.68 68.38 43.74C68.52 43.8 68.38 43.78 68.6 43.8C68.77 43.81 69.13 43.76 69.59 43.92C69.93 44.05 70.15 44.2 70.3 44.29C70.65 44.43 71.15 44.72 71.4 44.85C71.4 44.87 71.58 44.89 71.86 44.91C72 44.93 72.19 44.95 72.4 45.03C72.98 45.29 73.41 45.63 73.94 45.86C74.35 46.08 74.78 46.25 75.2 46.45L74.46 46.49C74.46 46.49 74.48 46.43 74.36 46.66C74.3 46.8 74.32 46.96 74.33 46.99C74.33 47.02 74.33 46.99 74.32 46.95C74.08 46.52 74.27 45.61 74.32 45.14C74.28 44.53 74.29 43.77 74.44 43.13C74.44 42.27 74.46 40.85 74.69 40.12L74.68 39.12C74.81 38.32 74.82 37.81 74.85 37.11L74.86 36.1C74.87 35.91 74.73 35.59 74.7 35.11C74.77 34.36 74.74 33.77 74.74 33.09L74.48 31.1C74.4 30.52 75.3 30.4 75.37 30.99L75.71 33.02C75.76 33.56 75.77 34.62 75.75 35.06C75.75 35.26 75.91 35.57 75.95 36.07L75.97 37.09C76 37.61 75.92 38.75 75.87 39.13L75.92 40.16C75.65 41.6 75.86 42.86 75.68 44.21C75.67 44.42 75.77 44.75 75.74 45.25L75.66 46.24C75.7 46.55 75.92 46.83 75.74 47.23C75.54 47.62 75.38 47.66 75.28 47.75C75.06 47.95 74.77 47.91 74.54 47.79C73.68 47.47 72.62 46.99 71.84 46.57C71.57 46.54 71.35 46.59 70.84 46.45C70.17 46.17 69.55 45.86 68.99 45.61C68.66 45.61 68.47 45.66 68.1 45.59C67.71 45.55 67.19 45.15 66.99 45.13C66.72 45.13 66.57 45.17 66.24 45.13C65.88 45.13 65.21 44.73 65.05 44.66C64.79 44.59 64.21 44.59 63.81 44.45C63.7 44.41 63.14 44.23 63.06 44.21C62.67 44.19 62.41 44.3 61.76 44.09C61.34 43.92 61.15 43.76 61.06 43.73C61.01 43.71 61.06 43.73 61.08 43.73C61.08 43.73 61.04 43.73 60.96 43.74C60.79 43.74 60.45 43.83 59.92 43.7C59.43 43.55 59.21 43.37 59.09 43.32C59.03 43.29 59.04 43.3 59.06 43.3L58.73 43.22C57.88 42.99 56.93 42.94 56.08 42.73C56.17 42.73 56.08 42.73 55.77 42.78C55.62 42.8 55.42 42.83 55.15 42.8C54.82 42.82 54 42.34 54 42.33C54.14 42.36 53.9 42.31 53.83 42.3C53.51 42.24 53.16 42.15 52.84 42.11L52.17 42.02C51.98 42 52.15 42.02 52.1 42.01C51.82 42.05 51.33 42.15 50.98 42.06C50.7 42.03 50.12 41.76 50.06 41.74C49.02 41.57 47.8 41.48 46.76 41.31C46.04 41.08 46.03 41.04 45.32 41.05C44.26 40.88 43.27 40.74 42.22 40.51C41.94 40.45 41.98 40.45 41.73 40.46C41.53 40.46 41.2 40.51 40.79 40.41C40.43 40.32 40.2 40.2 40.07 40.16C40.01 40.14 40 40.14 39.98 40.13C39.96 40.13 39.89 40.13 39.8 40.13L39.42 40.18C39.34 40.18 39.25 40.19 39.15 40.18C37.39 39.95 35.65 39.73 33.9 39.45C33.54 39.41 33.83 39.51 33.14 39.48C32.55 39.33 32.13 38.77 32.33 38.26C33.18 36.45 33.89 34.58 34.8 32.81C34.86 32.72 34.94 32.51 34.99 32.41C35.12 31.87 35.59 31.31 35.94 30.97C36.42 30.09 36.89 29.06 37.71 28.45C38.07 27.98 38.37 27.59 38.66 27.06C39.39 26.11 40.07 25.42 40.89 24.58C41.11 24.35 41.46 24 41.69 23.81C42.19 23.37 42.85 24.1 42.37 24.56L42.39 24.63Z" fill="#E1E3E5"/>
<path d="M38.03 29.3C38.54 29.25 38.4 29.36 39.06 29.33C39.35 29.32 39.68 29.19 40.08 29.18C40.39 29.18 40.73 29.24 41.1 29.24C41.42 29.24 41.76 29.14 42.12 29.14C42.44 29.14 42.78 29.43 43.13 29.44C43.46 29.44 43.8 29.2 44.16 29.22C44.49 29.23 44.83 29.22 45.18 29.25C45.51 29.27 45.84 29.42 46.19 29.44C46.54 29.46 46.86 29.52 47.21 29.55C47.56 29.58 47.87 29.69 48.22 29.73C48.57 29.77 48.89 29.81 49.23 29.85C49.57 29.89 49.91 29.86 50.25 29.91C50.59 29.96 50.94 29.83 51.28 29.88C51.62 29.93 51.94 30.06 52.28 30.11C52.62 30.16 52.97 30.08 53.31 30.13C53.65 30.18 53.93 30.54 54.26 30.6C54.59 30.66 54.93 30.72 55.26 30.79C55.59 30.86 55.96 30.75 56.3 30.82C56.64 30.89 56.96 30.99 57.29 31.07C57.62 31.15 57.96 31.19 58.3 31.27C58.64 31.35 58.93 31.57 59.26 31.65C59.59 31.73 59.98 31.62 60.31 31.71C60.64 31.8 60.93 32.02 61.26 32.12C61.59 32.22 61.95 32.22 62.27 32.32C62.59 32.42 62.92 32.53 63.24 32.64C63.56 32.75 63.89 32.84 64.22 32.96C64.55 33.08 64.76 33.46 65.08 33.59C65.4 33.72 65.71 33.84 66.03 33.97C66.35 34.1 66.71 34.1 67.03 34.23C67.35 34.36 67.66 34.5 67.97 34.64C68.28 34.78 68.63 34.83 68.95 34.98C69.27 35.13 69.53 35.34 69.84 35.5C70.15 35.66 70.39 35.92 70.69 36.08C70.99 36.24 71.4 36.2 71.7 36.37C72 36.54 72.23 36.82 72.53 36.99C72.83 37.16 73.19 37.22 73.48 37.4C73.77 37.58 74.02 37.83 74.31 38.02C74.6 38.21 74.83 38.47 75.12 38.66" stroke="#E1E3E5" stroke-width="1.5" stroke-linecap="round" stroke-linejoin="round"/>
<path d="M37.15 80.58C37.5 80.97 37.12 80.96 36.97 81.62C36.91 81.9 36.8 82.23 36.72 82.63C36.65 82.94 36.65 83.29 36.58 83.66C36.51 83.98 36.3 84.29 36.23 84.65C36.17 84.97 36.16 85.32 36.09 85.68C36.03 86.01 35.82 86.32 35.76 86.67C35.7 87 35.76 87.37 35.69 87.72C35.63 88.05 35.53 88.39 35.47 88.74C35.41 89.09 35.36 89.42 35.3 89.77C35.24 90.12 35.23 90.46 35.17 90.81C35.11 91.16 35.06 91.42 35 91.77C35.48 91.94 35.49 91.77 36 91.77C36.51 91.77 36.51 91.86 37.03 91.86C37.55 91.86 37.55 91.73 38.06 91.73C38.57 91.73 38.58 91.92 39.09 91.92C39.6 91.92 39.6 91.81 40.12 91.81C40.64 91.81 40.64 91.82 41.15 91.82C41.66 91.82 41.67 91.95 42.18 91.95C42.69 91.95 42.69 91.97 43.21 91.97C43.73 91.97 43.72 91.93 44.24 91.93C44.76 91.93 44.75 91.97 45.27 91.97C45.79 91.97 45.79 91.82 46.3 91.82C46.81 91.82 46.82 91.87 47.33 91.87C47.84 91.87 47.85 91.96 48.36 91.96C48.87 91.96 48.88 91.83 49.39 91.83C49.9 91.83 49.91 91.81 50.42 91.81C50.93 91.81 50.94 91.9 51.45 91.9C51.96 91.9 51.96 91.82 52.48 91.82C53 91.82 53 91.72 53.51 91.72C54.02 91.72 54.03 91.72 54.55 91.72C55.07 91.72 55.07 91.72 55.59 91.72C56.11 91.72 56.15 92.06 56.64 91.88C57.13 91.7 56.56 91.45 56.62 90.78C56.65 90.48 56.85 90.14 56.9 89.74C56.94 89.42 56.88 89.05 56.94 88.67C56.99 88.34 57.16 88.01 57.23 87.64C57.29 87.3 57.33 86.95 57.41 86.59C57.48 86.25 57.43 85.87 57.52 85.51C57.61 85.15 57.89 84.88 57.99 84.53C58.09 84.18 58.08 83.82 58.19 83.47C58.3 83.12 58.54 82.84 58.66 82.5C58.78 82.16 58.82 81.8 58.96 81.46C59.34 81.05 59.28 81.34 60.06 81.49C60.35 81.54 60.68 81.69 61.11 81.84C61.41 81.95 61.73 82.12 62.11 82.3C62.41 82.45 62.84 82.44 63.19 82.64C63.49 82.81 63.72 83.14 64.06 83.36C64.36 83.55 64.77 83.67 65.1 83.9C65.3 84.36 64.84 84.23 64.71 84.89C64.66 85.16 64.77 85.52 64.71 85.91C64.66 86.21 64.62 86.54 64.57 86.9C64.53 87.21 64.3 87.51 64.26 87.87C64.22 88.18 64.36 88.53 64.32 88.89C64.29 89.21 64.16 89.53 64.13 89.88C64.1 90.2 64.02 90.53 63.99 90.88C63.97 91.2 64.09 91.55 64.07 91.89C64.05 92.21 63.9 92.54 63.88 92.89C63.86 93.21 63.97 93.55 63.95 93.9C63.94 94.23 63.83 94.56 63.82 94.9C63.81 95.24 63.91 95.56 63.9 95.91C63.89 96.26 63.74 96.57 63.73 96.91C63.72 97.25 63.93 97.58 63.92 97.92C63.91 98.26 63.83 98.58 63.83 98.93C63.83 99.28 63.92 99.6 63.92 99.94C63.92 100.28 63.81 100.68 63.81 101.02C63.32 101.18 63.27 100.95 62.75 100.95C62.23 100.95 62.23 100.85 61.72 100.85C61.21 100.85 61.2 100.9 60.69 100.9C60.18 100.9 60.17 100.94 59.66 100.94C59.15 100.94 59.14 100.99 58.62 100.99C58.1 100.99 58.1 100.95 57.58 100.95C57.06 100.95 57.06 100.99 56.54 100.99C56.02 100.99 56.02 101.07 55.5 101.07C54.98 101.07 54.98 100.89 54.46 100.89C53.94 100.89 53.94 100.91 53.42 100.91C52.9 100.91 52.9 100.86 52.38 100.86C51.86 100.86 51.86 100.92 51.34 100.92C50.82 100.92 50.82 100.84 50.3 100.84C49.78 100.84 49.78 100.95 49.26 100.95C48.74 100.95 48.74 100.97 48.22 100.97C47.7 100.97 47.7 100.88 47.18 100.88C46.66 100.88 46.66 100.98 46.14 100.98C45.62 100.98 45.62 100.95 45.1 100.95C44.58 100.95 44.58 100.94 44.06 100.94C43.54 100.94 43.54 101.06 43.02 101.06C42.5 101.06 42.5 100.84 41.98 100.84C41.46 100.84 41.46 100.93 40.94 100.93C40.42 100.93 40.42 101.04 39.9 101.04C39.38 101.04 39.38 100.93 38.87 100.93C38.36 100.93 38.35 100.85 37.83 100.85C37.31 100.85 37.31 101.03 36.79 101.03C36.27 101.03 36.27 101.05 35.75 101.05C35.23 101.05 35.23 100.93 34.71 100.93C34.19 100.93 34.19 100.83 33.67 100.83C33.15 100.83 33.15 101.07 32.63 101.07C32.11 101.07 32.11 100.97 31.59 100.97C31.07 100.97 31.07 101.07 30.55 101.07C30.03 101.07 30.03 100.93 29.51 100.93C28.99 100.93 28.99 100.82 28.47 100.82C27.95 100.82 27.95 100.95 27.42 100.95C26.89 100.95 26.83 101.23 26.33 101.06C25.83 100.89 26.52 100.6 26.57 99.95C26.59 99.67 26.44 99.31 26.47 98.92C26.5 98.61 26.62 98.28 26.67 97.92C26.71 97.6 26.67 97.26 26.71 96.91C26.75 96.59 26.69 96.24 26.74 95.89C26.79 95.57 26.84 95.23 26.9 94.88C26.95 94.55 27.2 94.25 27.26 93.91C27.32 93.57 27.27 93.23 27.34 92.89C27.41 92.55 27.52 92.24 27.59 91.9C27.66 91.56 27.73 91.24 27.8 90.9C27.87 90.56 27.89 90.23 27.98 89.89C28.07 89.55 28.11 89.22 28.2 88.89C28.29 88.56 28.37 88.23 28.46 87.91C28.55 87.59 28.73 87.28 28.84 86.96C28.95 86.64 28.98 86.29 29.09 85.96C29.2 85.63 29.38 85.34 29.49 85.02C29.6 84.7 29.66 84.36 29.79 84.04C29.92 83.72 30.17 83.46 30.3 83.15C30.66 82.77 30.68 83.04 31.26 82.77C31.53 82.64 31.85 82.5 32.2 82.35C32.49 82.22 32.76 81.94 33.1 81.81C33.41 81.69 33.79 81.71 34.13 81.59C34.45 81.48 34.71 81.15 35.05 81.05C35.39 80.95 35.75 80.95 36.08 80.86C36.41 80.77 36.77 80.71 37.12 80.64L37.15 80.58Z" fill="#F7A56D"/>
<path d="M37.15 80.58C37.5 80.97 37.12 80.96 36.97 81.62C36.91 81.9 36.8 82.23 36.72 82.63C36.65 82.94 36.65 83.29 36.58 83.66C36.51 83.98 36.3 84.29 36.23 84.65C36.17 84.97 36.16 85.32 36.09 85.68C36.03 86.01 35.82 86.32 35.76 86.67C35.7 87 35.76 87.37 35.69 87.72C35.63 88.05 35.53 88.39 35.47 88.74C35.41 89.09 35.36 89.42 35.3 89.77C35.24 90.12 35.23 90.46 35.17 90.81C35.11 91.16 35.06 91.42 35 91.77C35.48 91.94 35.49 91.77 36 91.77C36.51 91.77 36.51 91.86 37.03 91.86C37.55 91.86 37.55 91.73 38.06 91.73C38.57 91.73 38.58 91.92 39.09 91.92C39.6 91.92 39.6 91.81 40.12 91.81C40.64 91.81 40.64 91.82 41.15 91.82C41.66 91.82 41.67 91.95 42.18 91.95C42.69 91.95 42.69 91.97 43.21 91.97C43.73 91.97 43.72 91.93 44.24 91.93C44.76 91.93 44.75 91.97 45.27 91.97C45.79 91.97 45.79 91.82 46.3 91.82C46.81 91.82 46.82 91.87 47.33 91.87C47.84 91.87 47.85 91.96 48.36 91.96C48.87 91.96 48.88 91.83 49.39 91.83C49.9 91.83 49.91 91.81 50.42 91.81C50.93 91.81 50.94 91.9 51.45 91.9C51.96 91.9 51.96 91.82 52.48 91.82C53 91.82 53 91.72 53.51 91.72C54.02 91.72 54.03 91.72 54.55 91.72C55.07 91.72 55.07 91.72 55.59 91.72C56.11 91.72 56.15 92.06 56.64 91.88C57.13 91.7 56.56 91.45 56.62 90.78C56.65 90.48 56.85 90.14 56.9 89.74C56.94 89.42 56.88 89.05 56.94 88.67C56.99 88.34 57.16 88.01 57.23 87.64C57.29 87.3 57.33 86.95 57.41 86.59C57.48 86.25 57.43 85.87 57.52 85.51C57.61 85.15 57.89 84.88 57.99 84.53C58.09 84.18 58.08 83.82 58.19 83.47C58.3 83.12 58.54 82.84 58.66 82.5C58.78 82.16 58.82 81.8 58.96 81.46C59.34 81.05 59.28 81.34 60.06 81.49C60.35 81.54 60.68 81.69 61.11 81.84C61.41 81.95 61.73 82.12 62.11 82.3C62.41 82.45 62.84 82.44 63.19 82.64C63.49 82.81 63.72 83.14 64.06 83.36C64.36 83.55 64.77 83.67 65.1 83.9C65.3 84.36 64.84 84.23 64.71 84.89C64.66 85.16 64.77 85.52 64.71 85.91C64.66 86.21 64.62 86.54 64.57 86.9C64.53 87.21 64.3 87.51 64.26 87.87C64.22 88.18 64.36 88.53 64.32 88.89C64.29 89.21 64.16 89.53 64.13 89.88C64.1 90.2 64.02 90.53 63.99 90.88C63.97 91.2 64.09 91.55 64.07 91.89C64.05 92.21 63.9 92.54 63.88 92.89C63.86 93.21 63.97 93.55 63.95 93.9C63.94 94.23 63.83 94.56 63.82 94.9C63.81 95.24 63.91 95.56 63.9 95.91C63.89 96.26 63.74 96.57 63.73 96.91C63.72 97.25 63.93 97.58 63.92 97.92C63.91 98.26 63.83 98.58 63.83 98.93C63.83 99.28 63.92 99.6 63.92 99.94C63.92 100.28 63.81 100.68 63.81 101.02C63.32 101.18 63.27 100.95 62.75 100.95C62.23 100.95 62.23 100.85 61.72 100.85C61.21 100.85 61.2 100.9 60.69 100.9C60.18 100.9 60.17 100.94 59.66 100.94C59.15 100.94 59.14 100.99 58.62 100.99C58.1 100.99 58.1 100.95 57.58 100.95C57.06 100.95 57.06 100.99 56.54 100.99C56.02 100.99 56.02 101.07 55.5 101.07C54.98 101.07 54.98 100.89 54.46 100.89C53.94 100.89 53.94 100.91 53.42 100.91C52.9 100.91 52.9 100.86 52.38 100.86C51.86 100.86 51.86 100.92 51.34 100.92C50.82 100.92 50.82 100.84 50.3 100.84C49.78 100.84 49.78 100.95 49.26 100.95C48.74 100.95 48.74 100.97 48.22 100.97C47.7 100.97 47.7 100.88 47.18 100.88C46.66 100.88 46.66 100.98 46.14 100.98C45.62 100.98 45.62 100.95 45.1 100.95C44.58 100.95 44.58 100.94 44.06 100.94C43.54 100.94 43.54 101.06 43.02 101.06C42.5 101.06 42.5 100.84 41.98 100.84C41.46 100.84 41.46 100.93 40.94 100.93C40.42 100.93 40.42 101.04 39.9 101.04C39.38 101.04 39.38 100.93 38.87 100.93C38.36 100.93 38.35 100.85 37.83 100.85C37.31 100.85 37.31 101.03 36.79 101.03C36.27 101.03 36.27 101.05 35.75 101.05C35.23 101.05 35.23 100.93 34.71 100.93C34.19 100.93 34.19 100.83 33.67 100.83C33.15 100.83 33.15 101.07 32.63 101.07C32.11 101.07 32.11 100.97 31.59 100.97C31.07 100.97 31.07 101.07 30.55 101.07C30.03 101.07 30.03 100.93 29.51 100.93C28.99 100.93 28.99 100.82 28.47 100.82C27.95 100.82 27.95 100.95 27.42 100.95C26.89 100.95 26.83 101.23 26.33 101.06C25.83 100.89 26.52 100.6 26.57 99.95C26.59 99.67 26.44 99.31 26.47 98.92C26.5 98.61 26.62 98.28 26.67 97.92C26.71 97.6 26.67 97.26 26.71 96.91C26.75 96.59 26.69 96.24 26.74 95.89C26.79 95.57 26.84 95.23 26.9 94.88C26.95 94.55 27.2 94.25 27.26 93.91C27.32 93.57 27.27 93.23 27.34 92.89C27.41 92.55 27.52 92.24 27.59 91.9C27.66 91.56 27.73 91.24 27.8 90.9C27.87 90.56 27.89 90.23 27.98 89.89C28.07 89.55 28.11 89.22 28.2 88.89C28.29 88.56 28.37 88.23 28.46 87.91C28.55 87.59 28.73 87.28 28.84 86.96C28.95 86.64 28.98 86.29 29.09 85.96C29.2 85.63 29.38 85.34 29.49 85.02C29.6 84.7 29.66 84.36 29.79 84.04C29.92 83.72 30.17 83.46 30.3 83.15C30.66 82.77 30.68 83.04 31.26 82.77C31.53 82.64 31.85 82.5 32.2 82.35C32.49 82.22 32.76 81.94 33.1 81.81C33.41 81.69 33.79 81.71 34.13 81.59C34.45 81.48 34.71 81.15 35.05 81.05C35.39 80.95 35.75 80.95 36.08 80.86C36.41 80.77 36.77 80.71 37.12 80.64L37.15 80.58Z" stroke="#E89256" stroke-width="1.5" stroke-linecap="round" stroke-linejoin="round"/>
<path d="M35.1 78.95C34.64 78.74 34.75 79.14 34.14 79.21C33.86 79.25 33.5 79.1 33.13 79.13C32.82 79.16 32.5 79.37 32.15 79.38C31.83 79.39 31.49 79.12 31.15 79.12C30.83 79.12 30.49 79.32 30.14 79.31C29.79 79.3 29.47 79.29 29.13 79.25C28.79 79.21 28.47 79.14 28.14 79.08C27.81 79.02 27.49 78.91 27.17 78.82C26.85 78.73 26.55 78.55 26.24 78.43C25.93 78.31 25.63 78.17 25.33 78.02C25.03 77.87 24.66 77.81 24.4 77.61C24.14 77.41 24.05 77.01 23.82 76.76C23.59 76.51 23.31 76.33 23.13 76.04C22.95 75.75 22.88 75.44 22.76 75.12C22.64 74.8 22.56 74.48 22.46 74.17C22.36 73.84 22.15 73.56 22.07 73.25C21.99 72.92 22.02 72.57 21.97 72.26C21.91 71.92 21.86 71.6 21.83 71.28C21.8 70.94 21.65 70.61 21.64 70.29C21.64 69.94 21.67 69.61 21.69 69.3C21.71 68.95 21.67 68.61 21.72 68.3C21.77 67.94 21.93 67.63 22 67.34C22.09 66.97 22.15 66.64 22.25 66.37C22.46 65.79 22.98 65.89 22.79 65.43C22.6 64.97 22.36 65.22 21.8 64.94C21.54 64.81 21.1 64.89 20.77 64.69C20.5 64.53 20.26 64.26 19.96 64.05C19.7 63.86 19.55 63.5 19.28 63.28C19.03 63.07 18.59 63.04 18.35 62.79C18.11 62.54 18 62.19 17.78 61.92C17.56 61.65 17.27 61.46 17.08 61.17C16.89 60.88 16.89 60.5 16.74 60.19C16.59 59.88 16.48 59.58 16.37 59.26C16.26 58.94 16.09 58.65 16.02 58.31C15.95 57.97 15.76 57.67 15.73 57.32C15.7 56.99 15.77 56.64 15.78 56.29C15.78 55.96 15.84 55.62 15.89 55.27C15.94 54.92 15.89 54.54 15.95 54.22C16.03 53.87 16.29 53.57 16.39 53.26C16.5 52.92 16.64 52.6 16.78 52.3C16.93 51.97 17.14 51.7 17.31 51.42C17.5 51.11 17.71 50.85 17.92 50.6C18.15 50.32 18.32 50.02 18.57 49.79C18.84 49.55 19.15 49.41 19.43 49.22C19.73 49.01 19.96 48.74 20.26 48.59C20.59 48.42 20.95 48.38 21.25 48.27C21.62 48.14 21.94 48.01 22.23 47.94C22.84 47.8 22.84 48.08 23.12 47.65C23.4 47.22 23.17 47.32 23.02 46.68C22.95 46.38 22.92 46.04 22.86 45.64C22.81 45.32 22.72 44.97 22.69 44.6C22.67 44.26 22.46 43.91 22.46 43.54C22.46 43.2 22.53 42.83 22.58 42.47C22.63 42.11 22.81 41.79 22.89 41.44C22.97 41.09 22.94 40.72 23.06 40.38C23.18 40.04 23.47 39.79 23.63 39.47C23.79 39.15 23.99 38.88 24.2 38.58C24.41 38.28 24.53 37.95 24.78 37.69C25.01 37.44 25.25 37.16 25.53 36.93C25.79 36.71 26.18 36.68 26.43 36.49C26.71 36.29 26.85 35.92 27.11 35.75C27.4 35.57 27.73 35.48 28 35.33C28.31 35.17 28.64 35.14 28.93 35.02C29.25 34.89 29.53 34.73 29.83 34.65C30.17 34.56 30.46 34.39 30.77 34.34C31.12 34.29 31.45 34.37 31.75 34.38C32.11 34.38 32.43 34.38 32.72 34.44C33.09 34.51 33.36 34.71 33.62 34.81C34.18 35.02 34.04 35.05 34.5 35.19C34.99 35.35 34.88 35.05 35.54 35.03C35.83 35.03 36.17 34.99 36.57 34.98C36.88 34.98 37.23 35.12 37.6 35.11C37.92 35.11 38.26 35.06 38.63 35.06C38.96 35.06 39.3 34.96 39.66 34.96C39.99 34.96 40.33 35.06 40.68 35.07C41.01 35.07 41.35 35.18 41.7 35.19C42.03 35.2 42.38 35.02 42.73 35.03C43.08 35.04 43.4 35.17 43.75 35.18C44.1 35.19 44.42 35.33 44.77 35.35C45.12 35.37 45.45 35.35 45.8 35.36C46.15 35.37 46.47 35.47 46.82 35.5C47.17 35.53 47.5 35.56 47.84 35.59C48.18 35.62 48.52 35.61 48.86 35.64C49.2 35.67 49.56 35.51 49.9 35.54C50.24 35.57 50.56 35.76 50.9 35.8C51.24 35.84 51.6 35.7 51.94 35.74C52.28 35.78 52.59 36.07 52.93 36.12C53.27 36.17 53.64 35.96 53.99 36.01C54.34 36.06 54.64 36.31 54.98 36.37C55.32 36.43 55.67 36.37 56.01 36.43C56.35 36.49 56.67 36.61 57.01 36.67C57.35 36.73 57.71 36.67 58.05 36.73C58.39 36.79 58.71 36.91 59.05 36.98C59.39 37.05 59.7 37.23 60.04 37.3C60.38 37.37 60.73 37.36 61.07 37.44C61.41 37.52 61.72 37.69 62.05 37.78C62.38 37.87 62.77 37.75 63.1 37.84C63.43 37.93 63.7 38.24 64.03 38.34C64.36 38.44 64.71 38.48 65.04 38.57C65.37 38.66 65.67 38.86 66 38.97C66.33 39.08 66.66 39.15 66.99 39.26C67.32 39.37 67.71 39.28 68.04 39.39C68.37 39.5 68.67 39.69 68.99 39.81C69.31 39.93 69.61 40.11 69.93 40.24C70.25 40.37 70.61 40.42 70.92 40.55C71.23 40.68 71.5 40.94 71.81 41.08C72.12 41.22 72.4 41.44 72.71 41.6C73.02 41.76 73.4 41.76 73.7 41.92C74 42.08 74.26 42.33 74.56 42.5C74.86 42.67 75.09 42.96 75.38 43.14C75.67 43.32 75.98 43.49 76.26 43.67C76.69 43.93 76.61 43.81 77.06 44.23C77.27 44.43 77.56 44.61 77.8 44.9C77.99 45.14 78.29 45.36 78.47 45.67C78.63 45.94 78.68 46.3 78.81 46.63C78.93 46.92 78.96 47.26 79.05 47.6C79.13 47.91 79.13 48.24 79.17 48.58C79.21 48.9 79.48 49.22 79.48 49.57C79.48 49.89 79.44 50.24 79.4 50.59C79.37 50.91 79.28 51.25 79.22 51.59C79.16 51.9 79.07 52.23 78.98 52.57C78.89 52.88 78.7 53.18 78.59 53.51C78.48 53.82 78.44 54.11 78.31 54.43C78.46 54.91 78.62 54.6 79.07 55.03C79.28 55.23 79.48 55.52 79.73 55.8C79.93 56.04 80.03 56.39 80.24 56.69C80.43 56.95 80.58 57.25 80.76 57.55C80.93 57.83 81.08 58.12 81.23 58.43C81.37 58.73 81.57 59 81.69 59.33C81.81 59.66 82.04 59.93 82.11 60.27C82.18 60.61 82.15 60.94 82.19 61.29C82.23 61.64 82.17 61.96 82.16 62.3C82.16 62.63 82.24 62.97 82.2 63.32C82.16 63.65 82.08 63.98 82 64.32C81.93 64.64 81.79 64.95 81.69 65.28C81.59 65.59 81.5 65.92 81.36 66.24C81.22 66.56 81.16 66.9 81.01 67.19C80.85 67.5 80.68 67.79 80.51 68.07C80.33 68.37 80.08 68.61 79.89 68.87C79.69 69.15 79.39 69.34 79.18 69.59C78.95 69.85 78.82 70.18 78.59 70.41C78.34 70.65 78.12 70.91 77.86 71.11C77.58 71.33 77.25 71.44 76.98 71.61C76.68 71.8 76.37 71.91 76.08 72.05C75.76 72.21 75.5 72.45 75.2 72.55C74.86 72.67 74.54 72.81 74.24 72.88C73.87 72.97 73.5 72.81 73.21 72.84C72.6 72.91 72.7 72.79 72.3 73.08C71.9 73.37 72.17 73.38 71.94 73.97C71.83 74.24 71.79 74.6 71.63 74.95C71.5 75.24 71.27 75.51 71.09 75.83C70.94 76.12 70.68 76.36 70.5 76.66C70.33 76.94 70.16 77.24 69.95 77.52C69.74 77.8 69.57 78.08 69.34 78.34C69.11 78.6 68.83 78.78 68.58 79.02C68.33 79.26 68.19 79.61 67.92 79.82C67.65 80.03 67.34 80.19 67.04 80.37C66.74 80.55 66.39 80.55 66.08 80.67C65.77 80.79 65.48 80.93 65.15 81.01C64.82 81.09 64.52 81.22 64.19 81.26C63.86 81.3 63.52 81.3 63.19 81.31C62.86 81.32 62.52 81.29 62.2 81.27C61.88 81.25 61.53 81.24 61.21 81.2C60.87 81.16 60.51 81.26 60.2 81.2C59.85 81.14 59.57 80.81 59.27 80.74C58.91 80.66 58.56 80.68 58.28 80.6C57.7 80.43 57.8 80.13 57.33 80.28C56.84 80.44 57.17 80.69 56.74 81.16C56.54 81.38 56.17 81.5 55.89 81.77C55.66 81.99 55.51 82.35 55.22 82.58C54.96 82.79 54.59 82.86 54.29 83.06C54.01 83.25 53.73 83.43 53.42 83.61C53.13 83.78 52.85 83.97 52.52 84.12C52.21 84.26 51.91 84.42 51.58 84.54C51.25 84.66 50.93 84.75 50.59 84.84C50.25 84.93 49.94 85.06 49.59 85.12C49.24 85.18 48.91 85.25 48.56 85.27C48.21 85.29 47.87 85.32 47.51 85.32C47.15 85.32 46.81 85.37 46.46 85.33C46.11 85.29 45.78 85 45.44 84.96C45.08 84.91 44.7 85.09 44.37 85.04C44.01 84.98 43.67 84.87 43.34 84.8C42.98 84.73 42.65 84.6 42.32 84.52C41.97 84.43 41.61 84.37 41.29 84.27C40.94 84.15 40.59 84.07 40.28 83.94C39.95 83.8 39.74 83.43 39.44 83.27C39.12 83.1 38.76 83.04 38.48 82.85C38.18 82.65 37.92 82.42 37.66 82.19C37.4 81.96 37.06 81.8 36.82 81.54C36.58 81.28 36.42 80.95 36.21 80.67C36 80.39 35.72 80.16 35.53 79.85C35.34 79.54 35.29 79.2 35.13 78.88L35.1 78.95Z" fill="url(#paint0_linear_5602_25489)"/>
<path d="M35.1 78.95C34.64 78.74 34.75 79.14 34.14 79.21C33.86 79.25 33.5 79.1 33.13 79.13C32.82 79.16 32.5 79.37 32.15 79.38C31.83 79.39 31.49 79.12 31.15 79.12C30.83 79.12 30.49 79.32 30.14 79.31C29.79 79.3 29.47 79.29 29.13 79.25C28.79 79.21 28.47 79.14 28.14 79.08C27.81 79.02 27.49 78.91 27.17 78.82C26.85 78.73 26.55 78.55 26.24 78.43C25.93 78.31 25.63 78.17 25.33 78.02C25.03 77.87 24.66 77.81 24.4 77.61C24.14 77.41 24.05 77.01 23.82 76.76C23.59 76.51 23.31 76.33 23.13 76.04C22.95 75.75 22.88 75.44 22.76 75.12C22.64 74.8 22.56 74.48 22.46 74.17C22.36 73.84 22.15 73.56 22.07 73.25C21.99 72.92 22.02 72.57 21.97 72.26C21.91 71.92 21.86 71.6 21.83 71.28C21.8 70.94 21.65 70.61 21.64 70.29C21.64 69.94 21.67 69.61 21.69 69.3C21.71 68.95 21.67 68.61 21.72 68.3C21.77 67.94 21.93 67.63 22 67.34C22.09 66.97 22.15 66.64 22.25 66.37C22.46 65.79 22.98 65.89 22.79 65.43C22.6 64.97 22.36 65.22 21.8 64.94C21.54 64.81 21.1 64.89 20.77 64.69C20.5 64.53 20.26 64.26 19.96 64.05C19.7 63.86 19.55 63.5 19.28 63.28C19.03 63.07 18.59 63.04 18.35 62.79C18.11 62.54 18 62.19 17.78 61.92C17.56 61.65 17.27 61.46 17.08 61.17C16.89 60.88 16.89 60.5 16.74 60.19C16.59 59.88 16.48 59.58 16.37 59.26C16.26 58.94 16.09 58.65 16.02 58.31C15.95 57.97 15.76 57.67 15.73 57.32C15.7 56.99 15.77 56.64 15.78 56.29C15.78 55.96 15.84 55.62 15.89 55.27C15.94 54.92 15.89 54.54 15.95 54.22C16.03 53.87 16.29 53.57 16.39 53.26C16.5 52.92 16.64 52.6 16.78 52.3C16.93 51.97 17.14 51.7 17.31 51.42C17.5 51.11 17.71 50.85 17.92 50.6C18.15 50.32 18.32 50.02 18.57 49.79C18.84 49.55 19.15 49.41 19.43 49.22C19.73 49.01 19.96 48.74 20.26 48.59C20.59 48.42 20.95 48.38 21.25 48.27C21.62 48.14 21.94 48.01 22.23 47.94C22.84 47.8 22.84 48.08 23.12 47.65C23.4 47.22 23.17 47.32 23.02 46.68C22.95 46.38 22.92 46.04 22.86 45.64C22.81 45.32 22.72 44.97 22.69 44.6C22.67 44.26 22.46 43.91 22.46 43.54C22.46 43.2 22.53 42.83 22.58 42.47C22.63 42.11 22.81 41.79 22.89 41.44C22.97 41.09 22.94 40.72 23.06 40.38C23.18 40.04 23.47 39.79 23.63 39.47C23.79 39.15 23.99 38.88 24.2 38.58C24.41 38.28 24.53 37.95 24.78 37.69C25.01 37.44 25.25 37.16 25.53 36.93C25.79 36.71 26.18 36.68 26.43 36.49C26.71 36.29 26.85 35.92 27.11 35.75C27.4 35.57 27.73 35.48 28 35.33C28.31 35.17 28.64 35.14 28.93 35.02C29.25 34.89 29.53 34.73 29.83 34.65C30.17 34.56 30.46 34.39 30.77 34.34C31.12 34.29 31.45 34.37 31.75 34.38C32.11 34.38 32.43 34.38 32.72 34.44C33.09 34.51 33.36 34.71 33.62 34.81C34.18 35.02 34.04 35.05 34.5 35.19C34.99 35.35 34.88 35.05 35.54 35.03C35.83 35.03 36.17 34.99 36.57 34.98C36.88 34.98 37.23 35.12 37.6 35.11C37.92 35.11 38.26 35.06 38.63 35.06C38.96 35.06 39.3 34.96 39.66 34.96C39.99 34.96 40.33 35.06 40.68 35.07C41.01 35.07 41.35 35.18 41.7 35.19C42.03 35.2 42.38 35.02 42.73 35.03C43.08 35.04 43.4 35.17 43.75 35.18C44.1 35.19 44.42 35.33 44.77 35.35C45.12 35.37 45.45 35.35 45.8 35.36C46.15 35.37 46.47 35.47 46.82 35.5C47.17 35.53 47.5 35.56 47.84 35.59C48.18 35.62 48.52 35.61 48.86 35.64C49.2 35.67 49.56 35.51 49.9 35.54C50.24 35.57 50.56 35.76 50.9 35.8C51.24 35.84 51.6 35.7 51.94 35.74C52.28 35.78 52.59 36.07 52.93 36.12C53.27 36.17 53.64 35.96 53.99 36.01C54.34 36.06 54.64 36.31 54.98 36.37C55.32 36.43 55.67 36.37 56.01 36.43C56.35 36.49 56.67 36.61 57.01 36.67C57.35 36.73 57.71 36.67 58.05 36.73C58.39 36.79 58.71 36.91 59.05 36.98C59.39 37.05 59.7 37.23 60.04 37.3C60.38 37.37 60.73 37.36 61.07 37.44C61.41 37.52 61.72 37.69 62.05 37.78C62.38 37.87 62.77 37.75 63.1 37.84C63.43 37.93 63.7 38.24 64.03 38.34C64.36 38.44 64.71 38.48 65.04 38.57C65.37 38.66 65.67 38.86 66 38.97C66.33 39.08 66.66 39.15 66.99 39.26C67.32 39.37 67.71 39.28 68.04 39.39C68.37 39.5 68.67 39.69 68.99 39.81C69.31 39.93 69.61 40.11 69.93 40.24C70.25 40.37 70.61 40.42 70.92 40.55C71.23 40.68 71.5 40.94 71.81 41.08C72.12 41.22 72.4 41.44 72.71 41.6C73.02 41.76 73.4 41.76 73.7 41.92C74 42.08 74.26 42.33 74.56 42.5C74.86 42.67 75.09 42.96 75.38 43.14C75.67 43.32 75.98 43.49 76.26 43.67C76.69 43.93 76.61 43.81 77.06 44.23C77.27 44.43 77.56 44.61 77.8 44.9C77.99 45.14 78.29 45.36 78.47 45.67C78.63 45.94 78.68 46.3 78.81 46.63C78.93 46.92 78.96 47.26 79.05 47.6C79.13 47.91 79.13 48.24 79.17 48.58C79.21 48.9 79.48 49.22 79.48 49.57C79.48 49.89 79.44 50.24 79.4 50.59C79.37 50.91 79.28 51.25 79.22 51.59C79.16 51.9 79.07 52.23 78.98 52.57C78.89 52.88 78.7 53.18 78.59 53.51C78.48 53.82 78.44 54.11 78.31 54.43C78.46 54.91 78.62 54.6 79.07 55.03C79.28 55.23 79.48 55.52 79.73 55.8C79.93 56.04 80.03 56.39 80.24 56.69C80.43 56.95 80.58 57.25 80.76 57.55C80.93 57.83 81.08 58.12 81.23 58.43C81.37 58.73 81.57 59 81.69 59.33C81.81 59.66 82.04 59.93 82.11 60.27C82.18 60.61 82.15 60.94 82.19 61.29C82.23 61.64 82.17 61.96 82.16 62.3C82.16 62.63 82.24 62.97 82.2 63.32C82.16 63.65 82.08 63.98 82 64.32C81.93 64.64 81.79 64.95 81.69 65.28C81.59 65.59 81.5 65.92 81.36 66.24C81.22 66.56 81.16 66.9 81.01 67.19C80.85 67.5 80.68 67.79 80.51 68.07C80.33 68.37 80.08 68.61 79.89 68.87C79.69 69.15 79.39 69.34 79.18 69.59C78.95 69.85 78.82 70.18 78.59 70.41C78.34 70.65 78.12 70.91 77.86 71.11C77.58 71.33 77.25 71.44 76.98 71.61C76.68 71.8 76.37 71.91 76.08 72.05C75.76 72.21 75.5 72.45 75.2 72.55C74.86 72.67 74.54 72.81 74.24 72.88C73.87 72.97 73.5 72.81 73.21 72.84C72.6 72.91 72.7 72.79 72.3 73.08C71.9 73.37 72.17 73.38 71.94 73.97C71.83 74.24 71.79 74.6 71.63 74.95C71.5 75.24 71.27 75.51 71.09 75.83C70.94 76.12 70.68 76.36 70.5 76.66C70.33 76.94 70.16 77.24 69.95 77.52C69.74 77.8 69.57 78.08 69.34 78.34C69.11 78.6 68.83 78.78 68.58 79.02C68.33 79.26 68.19 79.61 67.92 79.82C67.65 80.03 67.34 80.19 67.04 80.37C66.74 80.55 66.39 80.55 66.08 80.67C65.77 80.79 65.48 80.93 65.15 81.01C64.82 81.09 64.52 81.22 64.19 81.26C63.86 81.3 63.52 81.3 63.19 81.31C62.86 81.32 62.52 81.29 62.2 81.27C61.88 81.25 61.53 81.24 61.21 81.2C60.87 81.16 60.51 81.26 60.2 81.2C59.85 81.14 59.57 80.81 59.27 80.74C58.91 80.66 58.56 80.68 58.28 80.6C57.7 80.43 57.8 80.13 57.33 80.28C56.84 80.44 57.17 80.69 56.74 81.16C56.54 81.38 56.17 81.5 55.89 81.77C55.66 81.99 55.51 82.35 55.22 82.58C54.96 82.79 54.59 82.86 54.29 83.06C54.01 83.25 53.73 83.43 53.42 83.61C53.13 83.78 52.85 83.97 52.52 84.12C52.21 84.26 51.91 84.42 51.58 84.54C51.25 84.66 50.93 84.75 50.59 84.84C50.25 84.93 49.94 85.06 49.59 85.12C49.24 85.18 48.91 85.25 48.56 85.27C48.21 85.29 47.87 85.32 47.51 85.32C47.15 85.32 46.81 85.37 46.46 85.33C46.11 85.29 45.78 85 45.44 84.96C45.08 84.91 44.7 85.09 44.37 85.04C44.01 84.98 43.67 84.87 43.34 84.8C42.98 84.73 42.65 84.6 42.32 84.52C41.97 84.43 41.61 84.37 41.29 84.27C40.94 84.15 40.59 84.07 40.28 83.94C39.95 83.8 39.74 83.43 39.44 83.27C39.12 83.1 38.76 83.04 38.48 82.85C38.18 82.65 37.92 82.42 37.66 82.19C37.4 81.96 37.06 81.8 36.82 81.54C36.58 81.28 36.42 80.95 36.21 80.67C36 80.39 35.72 80.16 35.53 79.85C35.34 79.54 35.29 79.2 35.13 78.88L35.1 78.95Z" stroke="#E8B264" stroke-width="1.5" stroke-linecap="round" stroke-linejoin="round"/>
<path d="M45.25 60.88C44.92 60.54 44.92 60.56 44.46 60.29C44.21 60.15 43.82 60.24 43.49 60.18C43.19 60.12 42.87 59.89 42.54 59.98C42.27 60.06 42 60.28 41.72 60.52C41.51 60.7 41.26 60.92 41.06 61.23C40.85 61.55 40.66 61.85 40.59 62.11C40.5 62.48 40.77 62.77 40.9 63.03C41.04 63.31 41.15 63.65 41.44 63.82C41.71 63.97 42.09 63.87 42.42 63.94C42.75 64.01 43.04 64.32 43.35 64.32C43.73 64.32 44.03 64.25 44.25 64.16C43.79 63.99 43.88 64.12 43.36 64.28C43.07 64.37 42.74 64.44 42.47 64.65C42.22 64.83 42.1 65.12 41.95 65.43C41.82 65.69 41.65 65.95 41.65 66.33C41.65 66.73 41.77 67.06 41.94 67.35C42.13 67.67 42.38 67.91 42.7 68.08C43.02 68.25 43.36 68.29 43.72 68.31C44.08 68.33 44.47 68.45 44.81 68.32C45.15 68.19 45.32 67.82 45.54 67.53" stroke="#A05A20" stroke-width="1.5" stroke-linecap="round" stroke-linejoin="round"/>
<path d="M33.1 66.07C35.4417 66.07 37.34 64.1717 37.34 61.83C37.34 59.4883 35.4417 57.59 33.1 57.59C30.7583 57.59 28.86 59.4883 28.86 61.83C28.86 64.1717 30.7583 66.07 33.1 66.07Z" fill="url(#paint1_radial_5602_25489)"/>
<path d="M56.69 66.98C59.0317 66.98 60.93 65.0817 60.93 62.74C60.93 60.3983 59.0317 58.5 56.69 58.5C54.3483 58.5 52.45 60.3983 52.45 62.74C52.45 65.0817 54.3483 66.98 56.69 66.98Z" fill="url(#paint2_radial_5602_25489)"/>
<path d="M53.47 58.86C53.47 59.05 53.44 59.23 53.41 59.4C53.38 59.59 53.34 59.76 53.28 59.93C53.22 60.11 53.17 60.29 53.08 60.44C52.98 60.6 52.85 60.74 52.72 60.86C52.58 60.99 52.43 61.1 52.27 61.18C52.11 61.26 51.91 61.27 51.73 61.27C51.55 61.27 51.38 61.2 51.21 61.13C51.04 61.06 50.88 61 50.74 60.87C50.61 60.75 50.46 60.63 50.35 60.48C50.25 60.33 50.2 60.15 50.13 59.97C50.07 59.81 50.02 59.63 49.99 59.44C49.96 59.27 49.94 59.08 49.94 58.9C49.94 58.72 49.97 58.53 50 58.36C50.03 58.17 50.06 58 50.12 57.83C50.18 57.65 50.21 57.46 50.31 57.31C50.41 57.15 50.59 57.06 50.72 56.94C50.86 56.81 50.99 56.7 51.15 56.63C51.31 56.56 51.48 56.44 51.67 56.44C51.86 56.44 52.05 56.49 52.22 56.56C52.39 56.63 52.53 56.75 52.68 56.87C52.81 56.99 52.93 57.13 53.04 57.29C53.14 57.44 53.2 57.61 53.27 57.79C53.33 57.95 53.41 58.13 53.45 58.31C53.48 58.48 53.47 58.67 53.48 58.86H53.47Z" fill="#5E381F"/>
<path d="M35.94 58.31C35.95 58.12 35.96 57.93 36 57.76C36.04 57.58 36.17 57.43 36.24 57.27C36.32 57.1 36.39 56.93 36.49 56.79C36.6 56.64 36.71 56.49 36.84 56.38C36.99 56.26 37.14 56.14 37.31 56.09C37.48 56.04 37.67 56.02 37.86 56.03C38.05 56.04 38.21 56.12 38.38 56.2C38.55 56.28 38.65 56.41 38.79 56.55C38.91 56.68 39.07 56.78 39.16 56.95C39.25 57.1 39.27 57.29 39.33 57.47C39.38 57.64 39.39 57.82 39.41 58C39.43 58.18 39.45 58.35 39.44 58.54C39.43 58.73 39.44 58.91 39.4 59.08C39.36 59.26 39.29 59.43 39.21 59.59C39.13 59.76 39.04 59.92 38.94 60.06C38.83 60.21 38.71 60.35 38.58 60.46C38.43 60.58 38.28 60.69 38.12 60.74C37.96 60.79 37.77 60.79 37.58 60.78C37.39 60.77 37.23 60.72 37.07 60.64C36.91 60.56 36.74 60.49 36.61 60.35C36.49 60.22 36.39 60.06 36.3 59.9C36.21 59.75 36.11 59.59 36.06 59.41C36.01 59.24 36.01 59.05 35.99 58.86C35.97 58.68 35.95 58.5 35.96 58.31H35.94Z" fill="#5E381F"/>
<path d="M47.74 39.33C47.56 39.37 47.21 39.75 46.9 39.81C46.61 39.95 46.06 39.84 45.84 39.89C45.73 39.91 45.69 39.96 45.49 40.1C44.79 40.61 43.76 40.86 42.95 41.18C42.16 41.49 41.25 41.68 40.49 42.02C39.71 42.26 39.39 42.87 38.54 42.92C37.79 42.92 37.81 43.3 36.93 43.61C36.1 43.93 35.44 44.15 34.75 44.7C33.98 45.2 33.63 45.12 32.92 45.6C32.37 45.86 31.88 46.43 31.31 46.68C30.5 47.11 29.91 47.69 29.07 48.04C28.66 48.31 28.21 47.69 28.6 47.39C29.76 46.63 30.07 46.14 31.21 45.42C31.47 45.16 31.93 44.75 32.29 44.56L32.85 44.2C33.39 43.9 33.75 43.83 33.95 43.64C34.21 43.4 34.8 43.03 35.15 42.89C35.5 42.71 36.07 42.46 36.42 42.34C36.86 42.17 37.03 41.92 37.54 41.69C38.1 41.46 38.32 41.63 38.7 41.43C39.75 40.64 41.28 40.39 42.52 39.99C43.14 39.83 43.82 39.63 44.44 39.44C44.7 39.39 44.94 39.16 45.24 39.04C45.64 38.83 46.22 38.96 46.55 39.01C46.9 39 47.21 38.67 47.57 38.65C48 38.57 48.15 39.24 47.72 39.35L47.74 39.33Z" fill="#E8B264"/>
<path d="M58.11 41.21C57.94 41.31 57.51 41.24 57.35 41.25C56.95 41.32 56.53 41.61 56.1 41.74C55.54 41.92 54.8 42.14 54.24 42.3C54.06 42.36 53.94 42.53 53.6 42.75C53.15 43.06 52.57 42.91 52.25 43.08C52.06 43.23 51.49 43.7 51.08 43.69C50.8 43.73 50.55 43.64 50.35 43.73C50.27 43.79 49.8 44.26 49.5 44.33C48.84 44.57 47.68 44.82 47.13 45.21C46.77 45.48 46.08 45.59 45.71 45.72L45.07 46.02L43.79 46.59C43.39 46.8 42.84 47.15 42.37 47.19C41.79 47.28 41.88 47.4 41.39 47.78C40.77 48.17 40.43 48.17 40.04 48.41C39.18 48.81 38.35 49.2 37.62 49.81C37.35 50 37.02 49.6 37.27 49.38C37.43 49.23 37.57 49.05 37.75 48.87C38.54 48.15 39.91 47.42 40.73 46.97C40.84 46.88 40.98 46.68 41.24 46.46C41.77 46.04 42.15 46.18 42.63 45.85C43 45.6 44.12 45.05 44.54 44.85C44.91 44.65 45.61 44.35 45.96 44.3C46.42 44.19 46.65 43.88 47.16 43.71C47.41 43.63 48.64 43.25 48.87 43.18C49.2 43.11 49.19 42.99 49.62 42.69C49.97 42.41 50.58 42.44 50.96 42.47C51.18 42.43 51.27 42.26 51.64 42.06C52 41.86 52.38 41.86 52.6 41.86C53.24 41.93 53.41 41.37 54.08 41.3C54.58 41.19 55.33 41.04 55.84 40.95C56.33 40.86 56.74 40.6 57.3 40.59C57.62 40.59 57.68 40.72 57.94 40.68C58.27 40.61 58.41 41.13 58.08 41.23L58.11 41.21Z" fill="#E8B264"/>
<path d="M65.64 43.43C65.37 43.52 65.28 43.75 65.02 43.88C64.81 44.03 64.4 44.08 64.14 44.06C63.88 44.06 63.74 44.09 63.62 44.19C62.44 45.12 60.62 45.55 59.23 46C58.97 46.09 58.21 46.36 58 46.49C57.85 46.58 57.63 46.79 57.22 46.95C56.7 47.12 56.4 47.04 56.26 47.08C55.87 47.21 55.49 47.56 55.02 47.67C54.51 47.81 54.08 47.97 53.63 48.13C53.09 48.3 52.78 48.69 52.18 48.83C51.64 48.95 51.28 49.11 50.83 49.31C50.65 49.39 50.46 49.46 50.28 49.6C49.87 49.92 49.24 50.11 48.78 50.3C47.8 50.91 47.03 50.99 45.98 51.57C45.34 51.78 45.09 51.73 44.53 52.04L44.18 52.2C43.8 52.34 43.71 52.69 43.31 52.9C43.21 52.96 43.1 52.8 43.2 52.73C43.36 52.58 43.44 52.34 43.6 52.1C43.73 51.87 44.04 51.7 44.23 51.54C44.51 51.25 45.25 50.94 45.58 50.78C46.07 50.37 46.9 49.95 47.52 49.61C47.8 49.37 48.5 48.96 48.89 48.78C49.3 48.59 49.42 48.41 49.8 48.17C50.11 47.99 50.6 47.76 50.9 47.6C51.49 47.32 51.72 47.41 52.2 47.07C52.83 46.63 53.86 46.31 54.55 46.11C55.04 45.97 55.55 45.5 56.12 45.49L56.69 45.47C58.45 44.45 60.71 44.36 62.62 43.79C62.77 43.77 62.96 43.64 63.25 43.5C63.57 43.33 63.99 43.36 64.23 43.43C64.52 43.5 64.61 43.54 64.86 43.46C65.09 43.41 65.35 43.19 65.59 43.2C65.71 43.19 65.77 43.37 65.64 43.42V43.43Z" fill="#E8B264"/>
<path d="M31.12 41.81C31.32 41.81 31.65 42.08 31.79 42.15C32.36 42.32 33.09 42.36 33.74 42.64C34.18 42.79 34.61 42.97 35.04 43.13C35.41 43.16 36.18 43.17 36.54 43.51C37.17 44.04 37.13 43.79 37.88 43.99C38.23 44.02 38.84 44.66 38.94 44.77C38.97 44.78 38.9 44.75 38.92 44.76C39.92 44.76 40.77 45.48 41.59 46C41.92 46.23 42 46.21 42.44 46.41C42.95 46.62 43.27 47.03 43.65 47.29C44.74 48.06 46.13 48.78 46.89 49.89C47.02 50.02 47.6 50.22 47.81 50.45C48.07 50.69 48.28 51.04 48.48 51.26C48.92 51.78 49.39 52.38 49.77 52.94C49.84 53.03 49.82 53.17 49.73 53.24C49.36 53.38 48.78 52.56 48.42 52.37C48.09 52.11 47.6 51.72 47.33 51.47C46.96 51.12 46.72 51.24 46.19 50.93C45.86 50.72 45.68 50.49 45.55 50.34C44.76 49.79 43.65 49.2 42.78 48.69C42.39 48.5 42.08 48.12 41.75 47.98C41.02 47.77 39.97 47.01 39.3 46.61C39.11 46.46 38.88 46.54 38.5 46.43C38.07 46.38 37.43 45.71 37.37 45.57C37.06 45.46 36.72 45.52 36.23 45.23C35.84 44.97 35.74 44.82 35.54 44.65C35.27 44.53 34.95 44.61 34.51 44.38C33.94 44.04 33.31 43.67 32.73 43.34C32.31 43.12 31.83 43.03 31.42 42.68C31.14 42.4 31.21 42.32 30.99 42.22C30.76 42.12 30.88 41.74 31.13 41.81H31.12Z" fill="#E8B264"/>
<path d="M38.07 38.2C38.31 38.23 38.56 38.49 38.76 38.58C39.26 38.82 39.79 38.58 40.32 39.01C40.84 39.48 40.76 39.45 41.46 39.51C42.25 39.69 42.99 40.1 43.72 40.45C44.56 40.86 45.52 41.53 46.4 41.99C46.64 42.12 47.21 42.2 47.54 42.48C47.82 42.69 47.94 42.94 48.15 43.11C48.56 43.28 49.36 43.7 49.69 44.05C50.52 44.68 50.65 44.78 51.57 45.29C52.18 45.83 52.66 46.32 53.28 46.75C53.88 47 54.6 47.83 55.11 48.22C55.5 48.46 55.95 49.05 56.21 49.39C56.52 49.74 57.09 50.18 57.26 50.64C57.38 50.89 57.45 50.99 57.63 51.22L58.1 51.84C58.19 51.96 58.17 52.13 58.05 52.22C57.78 52.46 57.42 51.89 57.14 51.68C56.73 51.37 56.58 50.84 56.15 50.55L55.56 50.07C54.89 49.29 53.96 48.79 53.25 48.13C52.57 47.85 51.29 46.87 50.8 46.37C50.49 46.22 49.74 45.84 49.48 45.6C49.16 45.38 48.59 44.91 48.28 44.7C48.04 44.56 47.41 44.36 47.15 44.08C46.88 43.84 46.81 43.57 46.53 43.47C45.91 43.31 44.93 42.72 44.36 42.28C43.52 41.69 42.44 41.05 41.49 40.57C41.13 40.36 40.91 40.49 40.39 40.21C39.8 39.83 39.95 39.48 39.29 39.37C38.93 39.33 38.37 39.08 38.15 38.75C38.1 38.68 38.02 38.62 37.91 38.57C37.71 38.48 37.83 38.15 38.05 38.21L38.07 38.2Z" fill="#E8B264"/>
<path d="M51.75 39.44C51.96 39.5 51.96 39.45 52.26 39.43C52.74 39.4 53.24 39.79 53.53 40.06C53.67 40.16 53.74 40.17 53.92 40.25C54.68 40.46 55.43 40.95 56.11 41.35C56.19 41.4 56.53 41.62 56.56 41.63C56.6 41.65 56.77 41.68 57.01 41.73C57.42 41.75 58.07 42.32 58.29 42.62C58.4 42.71 58.34 42.68 58.49 42.73C58.74 42.79 59.37 42.97 59.62 43.29C59.78 43.45 60.03 43.88 60.08 43.93C60.07 43.94 60.57 44.08 60.72 44.14C61.24 44.37 61.61 44.85 62.04 45.21C62.55 45.74 62.85 45.95 63.41 46.34C63.78 46.63 63.96 47 64.23 47.29C64.96 47.98 65.6 48.79 66.26 49.54C66.59 49.88 66.65 50.36 66.82 50.63C66.94 50.8 66.7 51.01 66.55 50.86C66.21 50.52 66.09 50.15 65.79 49.97C65 49.38 64.25 48.72 63.45 48.14C63.26 47.99 63.09 47.8 62.96 47.66C62.69 47.36 62.59 47.33 62.16 47.1C61.69 46.83 61.47 46.57 61.15 46.32L60.24 45.58C60.24 45.58 60.18 45.53 60.19 45.54C59.85 45.41 59.61 45.45 59.13 45.11C58.74 44.78 58.69 44.56 58.49 44.34C58.21 44.22 57.45 44.02 57.2 43.67L56.82 43.24C56.6 43.04 56.35 43.1 55.93 42.89C55.73 42.78 55.72 42.75 55.62 42.69C54.89 42.16 54.29 41.59 53.47 41.18C53.12 41.03 52.76 40.59 52.54 40.27C52.31 39.98 51.84 40.06 51.55 39.83C51.34 39.7 51.51 39.35 51.74 39.44H51.75Z" fill="#E8B264"/>
</g>
<defs>
<linearGradient id="paint0_linear_5602_25489" x1="51.53" y1="34.71" x2="46.27" y2="86.02" gradientUnits="userSpaceOnUse">
<stop stop-color="#F4D598"/>
<stop offset="1" stop-color="#EFB467"/>
</linearGradient>
<radialGradient id="paint1_radial_5602_25489" cx="0" cy="0" r="1" gradientUnits="userSpaceOnUse" gradientTransform="translate(33.1 61.83) scale(4.24)">
<stop stop-color="#EAAA5E"/>
<stop offset="1" stop-color="#DB8F4F" stop-opacity="0"/>
</radialGradient>
<radialGradient id="paint2_radial_5602_25489" cx="0" cy="0" r="1" gradientUnits="userSpaceOnUse" gradientTransform="translate(56.69 62.74) scale(4.24 4.24)">
<stop stop-color="#EFB76B"/>
<stop offset="1" stop-color="#DB8F4F" stop-opacity="0"/>
</radialGradient>
<clipPath id="clip0_5602_25489">
<rect width="100" height="100" fill="white"/>
</clipPath>
</defs>
</svg>
