<svg width="100" height="100" viewBox="0 0 100 100" fill="none" xmlns="http://www.w3.org/2000/svg">
<g clip-path="url(#clip0_5602_25520)">
<rect width="100" height="100" fill="#F9CDB3"/>
<path d="M48.42 79.72C48.1 79.72 47.76 79.66 47.39 79.66C47.06 79.66 46.72 79.57 46.36 79.58C46.03 79.58 45.69 79.73 45.33 79.74C45 79.74 44.65 79.71 44.3 79.73C43.95 79.75 43.62 79.72 43.27 79.73C42.92 79.74 42.59 79.73 42.24 79.76C41.89 79.79 41.56 79.86 41.22 79.9C40.88 79.94 40.56 80.09 40.21 80.14C39.86 80.19 39.53 80.17 39.18 80.23C38.83 80.29 38.5 80.29 38.15 80.35C37.8 80.41 37.47 80.46 37.13 80.54C36.79 80.62 36.44 80.63 36.11 80.71C35.78 80.79 35.44 80.87 35.11 80.97C34.78 81.07 34.49 81.3 34.17 81.42C33.85 81.54 33.5 81.58 33.17 81.7C32.84 81.82 32.55 82 32.23 82.14C31.91 82.28 31.64 82.49 31.32 82.64C31 82.79 30.73 82.99 30.43 83.16C30.13 83.33 29.72 83.3 29.42 83.48C29.12 83.66 28.84 83.85 28.55 84.04C28.26 84.23 27.94 84.38 27.66 84.58C27.38 84.78 27.14 85.04 26.87 85.26C26.6 85.48 26.47 85.85 26.2 86.07C25.93 86.29 25.67 86.5 25.42 86.74C25.17 86.98 24.75 87.04 24.51 87.29C24.27 87.54 24.09 87.84 23.85 88.1C23.61 88.36 23.4 88.62 23.18 88.89C22.96 89.16 22.91 89.54 22.7 89.82C22.49 90.1 22.1 90.23 21.9 90.52C21.7 90.81 21.54 91.11 21.35 91.4C21.16 91.69 21.05 92.02 20.87 92.32C20.69 92.62 20.6 92.95 20.43 93.26C20.26 93.57 20.01 93.81 19.85 94.12C19.69 94.43 19.46 94.7 19.31 95.01C19.16 95.32 19.2 95.71 19.07 96.03C18.94 96.35 18.67 96.61 18.55 96.93C18.43 97.25 18.44 97.62 18.32 97.95C18.2 98.28 18.18 98.62 18.08 98.96C17.98 99.3 17.7 99.56 17.6 99.9C17.5 100.24 17.45 100.69 17.36 101.03C17.85 101.2 17.92 100.94 18.43 100.94C18.94 100.94 18.95 100.87 19.47 100.87C19.99 100.87 19.99 101.07 20.5 101.07C21.01 101.07 21.02 100.94 21.53 100.94C22.04 100.94 22.05 100.92 22.56 100.92C23.07 100.92 23.08 101.03 23.59 101.03C24.1 101.03 24.11 101.05 24.62 101.05C25.13 101.05 25.14 100.97 25.65 100.97C26.16 100.97 26.17 100.98 26.68 100.98C27.19 100.98 27.2 101.01 27.72 101.01C28.24 101.01 28.24 100.78 28.76 100.78C29.28 100.78 29.27 100.82 29.79 100.82C30.31 100.82 30.3 101.01 30.82 101.01C31.34 101.01 31.34 100.84 31.85 100.84C32.36 100.84 32.37 101.05 32.88 101.05C33.39 101.05 33.4 100.78 33.91 100.78C34.42 100.78 34.43 100.96 34.94 100.96C35.45 100.96 35.46 100.87 35.98 100.87C36.5 100.87 36.5 100.97 37.02 100.97C37.54 100.97 37.54 100.8 38.05 100.8C38.56 100.8 38.57 100.84 39.08 100.84C39.59 100.84 39.6 101.07 40.11 101.07C40.62 101.07 40.63 100.89 41.14 100.89C41.65 100.89 41.66 100.89 42.17 100.89C42.68 100.89 42.69 100.89 43.2 100.89C43.71 100.89 43.72 100.89 44.23 100.89C44.74 100.89 44.75 101.06 45.26 101.06C45.77 101.06 45.78 100.98 46.3 100.98C46.82 100.98 46.82 100.98 47.34 100.98C47.86 100.98 47.86 101.07 48.38 101.07C48.9 101.07 48.9 100.96 49.42 100.96C49.94 100.96 49.94 101 50.45 101C50.96 101 50.97 101.04 51.48 101.04C51.99 101.04 52 101.06 52.52 101.06C53.04 101.06 53.04 101.08 53.56 101.08C54.08 101.08 54.08 100.88 54.6 100.88C55.12 100.88 55.12 101.01 55.64 101.01C56.16 101.01 56.16 101.03 56.68 101.03C57.2 101.03 57.2 100.83 57.72 100.83C58.24 100.83 58.24 101.02 58.76 101.02C59.28 101.02 59.28 100.95 59.8 100.95C60.32 100.95 60.32 101.04 60.84 101.04C61.36 101.04 61.36 100.98 61.88 100.98C62.4 100.98 62.4 101.05 62.92 101.05C63.44 101.05 63.44 100.97 63.95 100.97C64.46 100.97 64.47 100.97 64.98 100.97C65.49 100.97 65.5 101.04 66.02 101.04C66.54 101.04 66.54 100.91 67.06 100.91C67.58 100.91 67.58 100.98 68.1 100.98C68.62 100.98 68.62 100.96 69.14 100.96C69.66 100.96 69.66 101.02 70.18 101.02C70.7 101.02 70.7 101.02 71.22 101.02C71.74 101.02 71.74 100.95 72.26 100.95C72.78 100.95 72.78 100.91 73.3 100.91C73.82 100.91 73.82 100.78 74.34 100.78C74.86 100.78 74.86 100.87 75.38 100.87C75.9 100.87 75.9 100.94 76.43 100.94C76.96 100.94 76.99 101.1 77.48 100.92C77.97 100.74 77.4 100.55 77.21 99.92C77.12 99.65 77.08 99.3 76.95 98.93C76.85 98.64 76.52 98.4 76.39 98.05C76.27 97.75 76.19 97.42 76.05 97.09C75.92 96.79 75.93 96.41 75.78 96.09C75.64 95.79 75.32 95.57 75.15 95.26C75 94.97 74.97 94.6 74.79 94.29C74.61 93.98 74.54 93.65 74.36 93.36C74.18 93.07 74.01 92.78 73.82 92.49C73.63 92.2 73.4 91.96 73.2 91.67C73 91.38 72.7 91.2 72.49 90.92C72.28 90.64 72.07 90.39 71.85 90.13C71.63 89.87 71.46 89.57 71.23 89.31C71 89.05 70.9 88.69 70.66 88.44C70.42 88.19 70.07 88.06 69.82 87.82C69.57 87.58 69.36 87.32 69.11 87.08C68.86 86.84 68.64 86.58 68.38 86.36C68.12 86.14 67.9 85.86 67.63 85.65C67.36 85.44 67.03 85.32 66.75 85.11C66.47 84.9 66.16 84.76 65.88 84.57C65.6 84.38 65.38 84.09 65.09 83.91C64.8 83.73 64.47 83.62 64.17 83.45C63.87 83.28 63.56 83.15 63.25 82.99C62.94 82.83 62.61 82.75 62.3 82.6C61.99 82.45 61.7 82.29 61.38 82.15C61.06 82.01 60.83 81.7 60.51 81.57C60.19 81.44 59.78 81.6 59.45 81.48C59.12 81.36 58.87 81.09 58.54 80.98C58.21 80.87 57.91 80.72 57.57 80.63C57.23 80.54 56.86 80.67 56.52 80.59C56.18 80.51 55.85 80.48 55.51 80.41C55.17 80.34 54.89 80.03 54.55 79.97C54.21 79.91 53.84 80.12 53.5 80.07C53.16 80.02 52.85 79.83 52.5 79.8C52.15 79.77 51.82 79.73 51.48 79.71C51.14 79.69 50.8 79.74 50.45 79.72C50.1 79.7 49.77 79.75 49.42 79.75C49.07 79.75 48.74 79.7 48.39 79.7L48.42 79.72Z" fill="white"/>
<path d="M48.42 79.72C48.1 79.72 47.76 79.66 47.39 79.66C47.06 79.66 46.72 79.57 46.36 79.58C46.03 79.58 45.69 79.73 45.33 79.74C45 79.74 44.65 79.71 44.3 79.73C43.95 79.75 43.62 79.72 43.27 79.73C42.92 79.74 42.59 79.73 42.24 79.76C41.89 79.79 41.56 79.86 41.22 79.9C40.88 79.94 40.56 80.09 40.21 80.14C39.86 80.19 39.53 80.17 39.18 80.23C38.83 80.29 38.5 80.29 38.15 80.35C37.8 80.41 37.47 80.46 37.13 80.54C36.79 80.62 36.44 80.63 36.11 80.71C35.78 80.79 35.44 80.87 35.11 80.97C34.78 81.07 34.49 81.3 34.17 81.42C33.85 81.54 33.5 81.58 33.17 81.7C32.84 81.82 32.55 82 32.23 82.14C31.91 82.28 31.64 82.49 31.32 82.64C31 82.79 30.73 82.99 30.43 83.16C30.13 83.33 29.72 83.3 29.42 83.48C29.12 83.66 28.84 83.85 28.55 84.04C28.26 84.23 27.94 84.38 27.66 84.58C27.38 84.78 27.14 85.04 26.87 85.26C26.6 85.48 26.47 85.85 26.2 86.07C25.93 86.29 25.67 86.5 25.42 86.74C25.17 86.98 24.75 87.04 24.51 87.29C24.27 87.54 24.09 87.84 23.85 88.1C23.61 88.36 23.4 88.62 23.18 88.89C22.96 89.16 22.91 89.54 22.7 89.82C22.49 90.1 22.1 90.23 21.9 90.52C21.7 90.81 21.54 91.11 21.35 91.4C21.16 91.69 21.05 92.02 20.87 92.32C20.69 92.62 20.6 92.95 20.43 93.26C20.26 93.57 20.01 93.81 19.85 94.12C19.69 94.43 19.46 94.7 19.31 95.01C19.16 95.32 19.2 95.71 19.07 96.03C18.94 96.35 18.67 96.61 18.55 96.93C18.43 97.25 18.44 97.62 18.32 97.95C18.2 98.28 18.18 98.62 18.08 98.96C17.98 99.3 17.7 99.56 17.6 99.9C17.5 100.24 17.45 100.69 17.36 101.03C17.85 101.2 17.92 100.94 18.43 100.94C18.94 100.94 18.95 100.87 19.47 100.87C19.99 100.87 19.99 101.07 20.5 101.07C21.01 101.07 21.02 100.94 21.53 100.94C22.04 100.94 22.05 100.92 22.56 100.92C23.07 100.92 23.08 101.03 23.59 101.03C24.1 101.03 24.11 101.05 24.62 101.05C25.13 101.05 25.14 100.97 25.65 100.97C26.16 100.97 26.17 100.98 26.68 100.98C27.19 100.98 27.2 101.01 27.72 101.01C28.24 101.01 28.24 100.78 28.76 100.78C29.28 100.78 29.27 100.82 29.79 100.82C30.31 100.82 30.3 101.01 30.82 101.01C31.34 101.01 31.34 100.84 31.85 100.84C32.36 100.84 32.37 101.05 32.88 101.05C33.39 101.05 33.4 100.78 33.91 100.78C34.42 100.78 34.43 100.96 34.94 100.96C35.45 100.96 35.46 100.87 35.98 100.87C36.5 100.87 36.5 100.97 37.02 100.97C37.54 100.97 37.54 100.8 38.05 100.8C38.56 100.8 38.57 100.84 39.08 100.84C39.59 100.84 39.6 101.07 40.11 101.07C40.62 101.07 40.63 100.89 41.14 100.89C41.65 100.89 41.66 100.89 42.17 100.89C42.68 100.89 42.69 100.89 43.2 100.89C43.71 100.89 43.72 100.89 44.23 100.89C44.74 100.89 44.75 101.06 45.26 101.06C45.77 101.06 45.78 100.98 46.3 100.98C46.82 100.98 46.82 100.98 47.34 100.98C47.86 100.98 47.86 101.07 48.38 101.07C48.9 101.07 48.9 100.96 49.42 100.96C49.94 100.96 49.94 101 50.45 101C50.96 101 50.97 101.04 51.48 101.04C51.99 101.04 52 101.06 52.52 101.06C53.04 101.06 53.04 101.08 53.56 101.08C54.08 101.08 54.08 100.88 54.6 100.88C55.12 100.88 55.12 101.01 55.64 101.01C56.16 101.01 56.16 101.03 56.68 101.03C57.2 101.03 57.2 100.83 57.72 100.83C58.24 100.83 58.24 101.02 58.76 101.02C59.28 101.02 59.28 100.95 59.8 100.95C60.32 100.95 60.32 101.04 60.84 101.04C61.36 101.04 61.36 100.98 61.88 100.98C62.4 100.98 62.4 101.05 62.92 101.05C63.44 101.05 63.44 100.97 63.95 100.97C64.46 100.97 64.47 100.97 64.98 100.97C65.49 100.97 65.5 101.04 66.02 101.04C66.54 101.04 66.54 100.91 67.06 100.91C67.58 100.91 67.58 100.98 68.1 100.98C68.62 100.98 68.62 100.96 69.14 100.96C69.66 100.96 69.66 101.02 70.18 101.02C70.7 101.02 70.7 101.02 71.22 101.02C71.74 101.02 71.74 100.95 72.26 100.95C72.78 100.95 72.78 100.91 73.3 100.91C73.82 100.91 73.82 100.78 74.34 100.78C74.86 100.78 74.86 100.87 75.38 100.87C75.9 100.87 75.9 100.94 76.43 100.94C76.96 100.94 76.99 101.1 77.48 100.92C77.97 100.74 77.4 100.55 77.21 99.92C77.12 99.65 77.08 99.3 76.95 98.93C76.85 98.64 76.52 98.4 76.39 98.05C76.27 97.75 76.19 97.42 76.05 97.09C75.92 96.79 75.93 96.41 75.78 96.09C75.64 95.79 75.32 95.57 75.15 95.26C75 94.97 74.97 94.6 74.79 94.29C74.61 93.98 74.54 93.65 74.36 93.36C74.18 93.07 74.01 92.78 73.82 92.49C73.63 92.2 73.4 91.96 73.2 91.67C73 91.38 72.7 91.2 72.49 90.92C72.28 90.64 72.07 90.39 71.85 90.13C71.63 89.87 71.46 89.57 71.23 89.31C71 89.05 70.9 88.69 70.66 88.44C70.42 88.19 70.07 88.06 69.82 87.82C69.57 87.58 69.36 87.32 69.11 87.08C68.86 86.84 68.64 86.58 68.38 86.36C68.12 86.14 67.9 85.86 67.63 85.65C67.36 85.44 67.03 85.32 66.75 85.11C66.47 84.9 66.16 84.76 65.88 84.57C65.6 84.38 65.38 84.09 65.09 83.91C64.8 83.73 64.47 83.62 64.17 83.45C63.87 83.28 63.56 83.15 63.25 82.99C62.94 82.83 62.61 82.75 62.3 82.6C61.99 82.45 61.7 82.29 61.38 82.15C61.06 82.01 60.83 81.7 60.51 81.57C60.19 81.44 59.78 81.6 59.45 81.48C59.12 81.36 58.87 81.09 58.54 80.98C58.21 80.87 57.91 80.72 57.57 80.63C57.23 80.54 56.86 80.67 56.52 80.59C56.18 80.51 55.85 80.48 55.51 80.41C55.17 80.34 54.89 80.03 54.55 79.97C54.21 79.91 53.84 80.12 53.5 80.07C53.16 80.02 52.85 79.83 52.5 79.8C52.15 79.77 51.82 79.73 51.48 79.71C51.14 79.69 50.8 79.74 50.45 79.72C50.1 79.7 49.77 79.75 49.42 79.75C49.07 79.75 48.74 79.7 48.39 79.7L48.42 79.72Z" stroke="#E1E3E5" stroke-width="1.5" stroke-linecap="round" stroke-linejoin="round"/>
<path d="M38.51 78.19C38.54 78.55 38.48 78.95 38.57 79.27C38.66 79.61 38.88 79.92 39.02 80.22C39.16 80.52 39.4 80.8 39.61 81.07C39.82 81.34 39.93 81.73 40.18 81.96C40.43 82.19 40.86 82.2 41.15 82.4C41.44 82.6 41.69 82.81 42.01 82.97C42.33 83.13 42.58 83.4 42.9 83.52C43.22 83.64 43.63 83.51 43.96 83.6C44.29 83.69 44.58 83.95 44.92 84.02C45.26 84.09 45.61 84.1 45.95 84.15C46.29 84.2 46.63 84.3 46.97 84.34C47.31 84.38 47.67 84.34 48.03 84.34C48.39 84.34 48.73 84.3 49.08 84.25C49.43 84.2 49.77 84.13 50.12 84.04C50.47 83.95 50.78 83.8 51.12 83.68C51.46 83.56 51.85 83.58 52.17 83.43C52.49 83.28 52.75 83 53.04 82.81C53.33 82.62 53.67 82.46 53.94 82.23C54.21 82 54.42 81.7 54.66 81.43C54.9 81.16 54.97 80.79 55.17 80.49C55.37 80.19 55.49 79.89 55.63 79.56C55.77 79.23 56.01 78.96 56.1 78.61C56.19 78.26 56.28 77.85 56.32 77.49C55.82 77.33 55.78 77.71 55.25 77.73C54.72 77.75 54.73 77.75 54.21 77.77C53.69 77.79 53.68 77.68 53.16 77.7C52.64 77.72 52.64 77.82 52.12 77.84C51.6 77.86 51.6 77.85 51.08 77.87C50.56 77.89 50.55 77.73 50.03 77.75C49.51 77.77 49.51 77.93 48.99 77.95C48.47 77.97 48.46 77.82 47.94 77.84C47.42 77.86 47.42 78.02 46.9 78.04C46.38 78.06 46.37 77.88 45.84 77.9C45.31 77.92 45.32 77.94 44.79 77.96C44.26 77.98 44.27 78.04 43.74 78.06C43.21 78.08 43.22 78.01 42.69 78.02C42.16 78.03 42.17 78.06 41.64 78.08C41.11 78.1 41.12 78.28 40.6 78.3C40.08 78.32 40.07 78.21 39.55 78.17C39.03 78.13 38.97 78.05 38.48 78.24L38.51 78.19Z" fill="#F3B06D"/>
<path d="M38.51 78.19C38.54 78.55 38.48 78.95 38.57 79.27C38.66 79.61 38.88 79.92 39.02 80.22C39.16 80.52 39.4 80.8 39.61 81.07C39.82 81.34 39.93 81.73 40.18 81.96C40.43 82.19 40.86 82.2 41.15 82.4C41.44 82.6 41.69 82.81 42.01 82.97C42.33 83.13 42.58 83.4 42.9 83.52C43.22 83.64 43.63 83.51 43.96 83.6C44.29 83.69 44.58 83.95 44.92 84.02C45.26 84.09 45.61 84.1 45.95 84.15C46.29 84.2 46.63 84.3 46.97 84.34C47.31 84.38 47.67 84.34 48.03 84.34C48.39 84.34 48.73 84.3 49.08 84.25C49.43 84.2 49.77 84.13 50.12 84.04C50.47 83.95 50.78 83.8 51.12 83.68C51.46 83.56 51.85 83.58 52.17 83.43C52.49 83.28 52.75 83 53.04 82.81C53.33 82.62 53.67 82.46 53.94 82.23C54.21 82 54.42 81.7 54.66 81.43C54.9 81.16 54.97 80.79 55.17 80.49C55.37 80.19 55.49 79.89 55.63 79.56C55.77 79.23 56.01 78.96 56.1 78.61C56.19 78.26 56.28 77.85 56.32 77.49C55.82 77.33 55.78 77.71 55.25 77.73C54.72 77.75 54.73 77.75 54.21 77.77C53.69 77.79 53.68 77.68 53.16 77.7C52.64 77.72 52.64 77.82 52.12 77.84C51.6 77.86 51.6 77.85 51.08 77.87C50.56 77.89 50.55 77.73 50.03 77.75C49.51 77.77 49.51 77.93 48.99 77.95C48.47 77.97 48.46 77.82 47.94 77.84C47.42 77.86 47.42 78.02 46.9 78.04C46.38 78.06 46.37 77.88 45.84 77.9C45.31 77.92 45.32 77.94 44.79 77.96C44.26 77.98 44.27 78.04 43.74 78.06C43.21 78.08 43.22 78.01 42.69 78.02C42.16 78.03 42.17 78.06 41.64 78.08C41.11 78.1 41.12 78.28 40.6 78.3C40.08 78.32 40.07 78.21 39.55 78.17C39.03 78.13 38.97 78.05 38.48 78.24L38.51 78.19Z" stroke="#E69F5E" stroke-width="1.5" stroke-linecap="round" stroke-linejoin="round"/>
<path d="M37.87 30.71C37.39 30.55 37.43 30.78 36.86 30.52C36.6 30.4 36.28 30.24 35.95 30.06C35.67 29.91 35.46 29.59 35.16 29.4C34.89 29.23 34.65 28.99 34.36 28.79C34.1 28.6 33.86 28.36 33.6 28.14C33.34 27.92 32.99 27.82 32.76 27.57C32.53 27.32 32.2 27.16 31.99 26.89C31.78 26.62 31.82 26.19 31.64 25.9C31.46 25.61 31.3 25.34 31.15 25.03C31 24.72 30.81 24.45 30.72 24.12C30.63 23.79 30.65 23.46 30.59 23.12C30.53 22.78 30.5 22.47 30.49 22.13C30.49 21.8 30.35 21.47 30.38 21.12C30.41 20.8 30.61 20.49 30.68 20.14C30.74 19.82 30.82 19.5 30.92 19.17C31.01 18.86 31.13 18.55 31.25 18.23C31.37 17.93 31.49 17.62 31.64 17.3C31.78 17 31.79 16.63 31.96 16.32C32.13 16.01 32.35 15.73 32.53 15.45C32.73 15.15 32.87 14.82 33.09 14.56C33.32 14.29 33.72 14.19 33.96 13.95C34.2 13.71 34.39 13.39 34.66 13.18C34.93 12.97 35.26 12.83 35.55 12.65C35.84 12.47 36.11 12.24 36.42 12.09C36.73 11.94 37 11.67 37.33 11.55C37.66 11.43 38.05 11.52 38.38 11.43C38.71 11.34 39.04 11.2 39.38 11.15C39.72 11.1 40.07 11.11 40.42 11.08C40.77 11.05 41.11 11.06 41.45 11.06C41.79 11.06 42.14 10.98 42.49 10.99C42.84 11 43.18 11.05 43.52 11.09C43.86 11.13 44.2 11.21 44.54 11.26C44.88 11.31 45.23 11.36 45.57 11.42C45.91 11.48 46.23 11.63 46.57 11.71C46.91 11.79 47.27 11.78 47.6 11.87C47.93 11.96 48.31 11.95 48.64 12.05C48.98 12.16 49.33 12.23 49.64 12.35C49.98 12.47 50.24 12.77 50.55 12.89C50.9 13.02 51.28 13.02 51.57 13.14C51.93 13.3 52.22 13.52 52.49 13.64C53.08 13.91 52.93 13.92 53.41 14.1C53.89 14.28 53.89 14.26 54.38 14.41C54.87 14.56 54.83 14.7 55.32 14.85C55.81 15 55.84 14.91 56.33 15.06C56.82 15.21 56.82 15.2 57.31 15.34C57.8 15.48 57.85 15.34 58.34 15.49C58.83 15.64 58.76 15.86 59.25 16C59.74 16.14 59.73 16.19 60.22 16.34C60.71 16.49 60.79 16.22 61.28 16.37C61.77 16.52 61.76 16.55 62.25 16.7C62.74 16.85 62.73 16.87 63.22 17.02C63.71 17.17 63.65 17.38 64.14 17.53C64.63 17.68 64.7 17.45 65.19 17.59C65.68 17.73 65.65 17.83 66.14 17.98C66.63 18.13 66.59 18.26 67.08 18.41C67.57 18.56 67.63 18.36 68.12 18.51C68.61 18.66 68.61 18.65 69.11 18.8C69.61 18.95 69.6 18.94 70.09 19.09C70.58 19.24 70.58 19.24 71.07 19.39C71.56 19.54 71.52 19.68 72.01 19.83C72.5 19.98 72.54 19.87 73.03 20.02C73.52 20.17 73.46 20.46 73.97 20.54C74.48 20.62 74.36 20.26 74.98 20.16C75.27 20.12 75.62 20.19 76.01 20.16C76.32 20.13 76.66 19.99 77.02 19.98C77.34 19.98 77.69 20 78.04 20.01C78.37 20.02 78.69 20.22 79.04 20.25C79.39 20.28 79.75 20.05 80.09 20.12C80.43 20.19 80.76 20.29 81.09 20.38C81.42 20.47 81.7 20.71 82.02 20.83C82.34 20.95 82.68 21.02 82.99 21.18C83.3 21.34 83.56 21.56 83.84 21.75C84.12 21.94 84.47 22.06 84.73 22.29C84.99 22.52 85.21 22.78 85.44 23.05C85.67 23.32 85.78 23.64 85.98 23.94C86.16 24.21 86.36 24.5 86.52 24.81C86.67 25.1 86.68 25.46 86.81 25.79C86.93 26.1 87.11 26.39 87.21 26.72C87.3 27.04 87.4 27.36 87.47 27.71C87.54 28.03 87.62 28.37 87.67 28.72C87.71 29.05 87.79 29.38 87.82 29.74C87.85 30.07 87.82 30.42 87.84 30.77C87.84 31.1 87.79 31.45 87.78 31.8C87.77 32.15 87.81 32.49 87.79 32.81C87.77 33.16 87.7 33.49 87.66 33.81C87.62 34.16 87.49 34.47 87.43 34.79C87.37 35.13 87.32 35.46 87.24 35.78C87.15 36.12 87.25 36.5 87.15 36.81C87.04 37.14 86.79 37.41 86.66 37.71C86.52 38.03 86.32 38.3 86.16 38.59C85.98 38.89 85.87 39.22 85.67 39.48C85.46 39.76 85.27 40.05 85.04 40.28C84.81 40.51 84.49 40.7 84.23 40.9C83.97 41.1 83.62 41.2 83.34 41.37C83.06 41.54 82.79 41.77 82.49 41.9C82.19 42.03 81.86 42.14 81.54 42.24C81.22 42.34 80.91 42.5 80.58 42.57C80.25 42.64 79.9 42.56 79.56 42.59C79.22 42.62 78.9 42.84 78.56 42.85C78.22 42.86 77.88 42.78 77.55 42.76C77.22 42.74 76.89 42.58 76.56 42.54C76.23 42.5 75.89 42.43 75.57 42.37C75.25 42.31 74.91 42.22 74.59 42.14C74.25 42.05 73.9 42.04 73.6 41.94C73.27 41.82 72.91 41.78 72.62 41.65C72.29 41.5 72.06 41.19 71.8 41.04C71.46 40.83 71.14 40.69 70.96 40.49" fill="white"/>
<path d="M37.87 30.71C37.39 30.55 37.43 30.78 36.86 30.52C36.6 30.4 36.28 30.24 35.95 30.06C35.67 29.91 35.46 29.59 35.16 29.4C34.89 29.23 34.65 28.99 34.36 28.79C34.1 28.6 33.86 28.36 33.6 28.14C33.34 27.92 32.99 27.82 32.76 27.57C32.53 27.32 32.2 27.16 31.99 26.89C31.78 26.62 31.82 26.19 31.64 25.9C31.46 25.61 31.3 25.34 31.15 25.03C31 24.72 30.81 24.45 30.72 24.12C30.63 23.79 30.65 23.46 30.59 23.12C30.53 22.78 30.5 22.47 30.49 22.13C30.49 21.8 30.35 21.47 30.38 21.12C30.41 20.8 30.61 20.49 30.68 20.14C30.74 19.82 30.82 19.5 30.92 19.17C31.01 18.86 31.13 18.55 31.25 18.23C31.37 17.93 31.49 17.62 31.64 17.3C31.78 17 31.79 16.63 31.96 16.32C32.13 16.01 32.35 15.73 32.53 15.45C32.73 15.15 32.87 14.82 33.09 14.56C33.32 14.29 33.72 14.19 33.96 13.95C34.2 13.71 34.39 13.39 34.66 13.18C34.93 12.97 35.26 12.83 35.55 12.65C35.84 12.47 36.11 12.24 36.42 12.09C36.73 11.94 37 11.67 37.33 11.55C37.66 11.43 38.05 11.52 38.38 11.43C38.71 11.34 39.04 11.2 39.38 11.15C39.72 11.1 40.07 11.11 40.42 11.08C40.77 11.05 41.11 11.06 41.45 11.06C41.79 11.06 42.14 10.98 42.49 10.99C42.84 11 43.18 11.05 43.52 11.09C43.86 11.13 44.2 11.21 44.54 11.26C44.88 11.31 45.23 11.36 45.57 11.42C45.91 11.48 46.23 11.63 46.57 11.71C46.91 11.79 47.27 11.78 47.6 11.87C47.93 11.96 48.31 11.95 48.64 12.05C48.98 12.16 49.33 12.23 49.64 12.35C49.98 12.47 50.24 12.77 50.55 12.89C50.9 13.02 51.28 13.02 51.57 13.14C51.93 13.3 52.22 13.52 52.49 13.64C53.08 13.91 52.93 13.92 53.41 14.1C53.89 14.28 53.89 14.26 54.38 14.41C54.87 14.56 54.83 14.7 55.32 14.85C55.81 15 55.84 14.91 56.33 15.06C56.82 15.21 56.82 15.2 57.31 15.34C57.8 15.48 57.85 15.34 58.34 15.49C58.83 15.64 58.76 15.86 59.25 16C59.74 16.14 59.73 16.19 60.22 16.34C60.71 16.49 60.79 16.22 61.28 16.37C61.77 16.52 61.76 16.55 62.25 16.7C62.74 16.85 62.73 16.87 63.22 17.02C63.71 17.17 63.65 17.38 64.14 17.53C64.63 17.68 64.7 17.45 65.19 17.59C65.68 17.73 65.65 17.83 66.14 17.98C66.63 18.13 66.59 18.26 67.08 18.41C67.57 18.56 67.63 18.36 68.12 18.51C68.61 18.66 68.61 18.65 69.11 18.8C69.61 18.95 69.6 18.94 70.09 19.09C70.58 19.24 70.58 19.24 71.07 19.39C71.56 19.54 71.52 19.68 72.01 19.83C72.5 19.98 72.54 19.87 73.03 20.02C73.52 20.17 73.46 20.46 73.97 20.54C74.48 20.62 74.36 20.26 74.98 20.16C75.27 20.12 75.62 20.19 76.01 20.16C76.32 20.13 76.66 19.99 77.02 19.98C77.34 19.98 77.69 20 78.04 20.01C78.37 20.02 78.69 20.22 79.04 20.25C79.39 20.28 79.75 20.05 80.09 20.12C80.43 20.19 80.76 20.29 81.09 20.38C81.42 20.47 81.7 20.71 82.02 20.83C82.34 20.95 82.68 21.02 82.99 21.18C83.3 21.34 83.56 21.56 83.84 21.75C84.12 21.94 84.47 22.06 84.73 22.29C84.99 22.52 85.21 22.78 85.44 23.05C85.67 23.32 85.78 23.64 85.98 23.94C86.16 24.21 86.36 24.5 86.52 24.81C86.67 25.1 86.68 25.46 86.81 25.79C86.93 26.1 87.11 26.39 87.21 26.72C87.3 27.04 87.4 27.36 87.47 27.71C87.54 28.03 87.62 28.37 87.67 28.72C87.71 29.05 87.79 29.38 87.82 29.74C87.85 30.07 87.82 30.42 87.84 30.77C87.84 31.1 87.79 31.45 87.78 31.8C87.77 32.15 87.81 32.49 87.79 32.81C87.77 33.16 87.7 33.49 87.66 33.81C87.62 34.16 87.49 34.47 87.43 34.79C87.37 35.13 87.32 35.46 87.24 35.78C87.15 36.12 87.25 36.5 87.15 36.81C87.04 37.14 86.79 37.41 86.66 37.71C86.52 38.03 86.32 38.3 86.16 38.59C85.98 38.89 85.87 39.22 85.67 39.48C85.46 39.76 85.27 40.05 85.04 40.28C84.81 40.51 84.49 40.7 84.23 40.9C83.97 41.1 83.62 41.2 83.34 41.37C83.06 41.54 82.79 41.77 82.49 41.9C82.19 42.03 81.86 42.14 81.54 42.24C81.22 42.34 80.91 42.5 80.58 42.57C80.25 42.64 79.9 42.56 79.56 42.59C79.22 42.62 78.9 42.84 78.56 42.85C78.22 42.86 77.88 42.78 77.55 42.76C77.22 42.74 76.89 42.58 76.56 42.54C76.23 42.5 75.89 42.43 75.57 42.37C75.25 42.31 74.91 42.22 74.59 42.14C74.25 42.05 73.9 42.04 73.6 41.94C73.27 41.82 72.91 41.78 72.62 41.65C72.29 41.5 72.06 41.19 71.8 41.04C71.46 40.83 71.14 40.69 70.96 40.49" stroke="#E1E3E5" stroke-width="1.5" stroke-linecap="round" stroke-linejoin="round"/>
<path d="M46.76 15.67C46.72 15.17 46.65 15.28 46.67 14.65C46.68 14.36 46.74 14.02 46.78 13.64C46.81 13.33 46.86 12.99 46.92 12.64C46.98 12.33 47.2 12.03 47.29 11.69C47.37 11.38 47.41 11.04 47.53 10.71C47.64 10.4 47.68 10.05 47.82 9.73999C47.96 9.42999 48.09 9.11999 48.26 8.81999C48.43 8.51999 48.78 8.36999 48.98 8.08999C49.18 7.80999 49.27 7.46999 49.5 7.21999C49.73 6.96999 50.02 6.80999 50.28 6.57999C50.54 6.34999 50.8 6.17999 51.08 5.97999C51.36 5.77999 51.51 5.41999 51.81 5.24999C52.09 5.08999 52.45 5.03999 52.77 4.88999C53.07 4.75999 53.4 4.69999 53.73 4.57999C54.04 4.46999 54.37 4.43999 54.71 4.35999C55.03 4.27999 55.35 4.20999 55.69 4.14999C56.01 4.08999 56.32 3.93999 56.67 3.89999C56.99 3.85999 57.33 3.87999 57.68 3.85999C58.01 3.83999 58.34 3.61999 58.68 3.60999C59.01 3.60999 59.35 3.71999 59.69 3.72999C60.03 3.73999 60.35 3.77999 60.7 3.79999C61.05 3.81999 61.35 3.98999 61.69 4.02999C62.03 4.06999 62.38 3.85999 62.73 3.90999C63.08 3.95999 63.34 4.28999 63.68 4.34999C64.02 4.40999 64.38 4.22999 64.72 4.29999C65.06 4.36999 65.33 4.62999 65.67 4.70999C66.01 4.78999 66.41 4.63999 66.74 4.72999C67.08 4.81999 67.38 5.04999 67.71 5.13999C68.05 5.23999 68.38 5.35999 68.7 5.46999C69.04 5.57999 69.38 5.65999 69.7 5.77999C70.03 5.90999 70.39 5.96999 70.7 6.09999C71.03 6.23999 71.31 6.46999 71.61 6.62999C71.93 6.78999 72.3 6.84999 72.59 7.01999C72.9 7.19999 73.08 7.57999 73.35 7.75999C73.65 7.95999 73.94 8.12999 74.21 8.33999C74.49 8.55999 74.87 8.65999 75.12 8.88999C75.38 9.13999 75.5 9.50999 75.72 9.75999C75.95 10.03 76.2 10.27 76.39 10.55C76.59 10.84 76.65 11.21 76.81 11.51C76.97 11.81 77.29 12.06 77.41 12.38C77.53 12.7 77.48 13.09 77.56 13.42C77.64 13.75 77.89 14.07 77.93 14.41C77.97 14.75 77.84 15.11 77.85 15.46C77.86 15.81 77.91 16.16 77.88 16.5C77.85 16.84 77.9 17.21 77.84 17.55C77.78 17.89 77.73 18.25 77.65 18.58C77.57 18.91 77.41 19.25 77.3 19.57C77.19 19.89 76.92 20.18 76.79 20.49C76.66 20.83 76.57 21.17 76.43 21.47C76.27 21.81 76.15 22.13 76 22.42C75.81 22.77 75.75 23.14 75.6 23.4C75.27 23.95 75.31 23.83 75 24.25" fill="white"/>
<path d="M46.25 15.71C46.01 14.59 46.25 13.49 46.39 12.38C46.49 12.03 46.67 11.77 46.74 11.4C46.95 10.42 47.2 9.32001 47.73 8.42001C47.93 8.10001 48.21 7.95001 48.4 7.74001C48.62 7.44001 48.68 7.06001 49.09 6.66001C49.57 6.20001 50.02 5.93001 50.47 5.55001L50.65 5.41001C50.68 5.38001 50.68 5.39001 50.71 5.36001C50.97 4.96001 51.47 4.51001 51.97 4.39001C53.45 3.79001 55.14 3.49001 56.57 3.14001C56.82 3.12001 57.61 3.11001 57.71 3.07001C57.87 3.04001 58.23 2.83001 58.75 2.84001C59.16 2.86001 59.44 2.94001 59.63 2.95001C60.16 3.01001 60.94 2.98001 61.45 3.18001C61.82 3.32001 61.94 3.20001 62.37 3.14001C62.56 3.11001 62.92 3.12001 63.17 3.23001C63.61 3.44001 63.81 3.60001 63.82 3.58001C63.76 3.59001 64 3.55001 64.42 3.50001C64.62 3.48001 64.97 3.52001 65.16 3.61001C65.44 3.71001 65.64 3.88001 65.84 3.94001C66 3.98001 66.22 3.91001 66.47 3.92001C66.92 3.86001 67.65 4.29001 67.9 4.39001L69.51 4.92001C70.31 5.16001 71.21 5.43001 71.91 5.94001C72.37 6.12001 73.25 6.39001 73.57 6.94001C73.74 7.16001 73.88 7.23001 74.07 7.36001L74.72 7.81001C74.86 7.91001 75.15 7.99001 75.53 8.29001C75.91 8.63001 76.04 8.97001 76.16 9.16001C76.27 9.34001 76.73 9.86001 76.92 10.11C77.16 10.37 77.31 11.08 77.44 11.26C77.52 11.41 77.77 11.6 77.99 12.05C78.22 12.65 78.09 12.93 78.2 13.33C78.39 13.72 78.64 14.36 78.53 14.82C78.37 15.62 78.5 16.44 78.43 17.3C78.31 18.47 77.89 19.71 77.25 20.63C76.97 21.38 76.59 22.19 76.24 22.91C76.14 23.16 76.01 23.53 75.84 23.75C75.72 23.98 75.45 24.24 75.3 24.46C74.98 24.85 74.37 24.38 74.67 23.97C75.21 23.35 75.31 22.87 75.6 22.16C75.87 21.58 76.13 20.84 76.33 20.23C76.49 19.87 76.68 19.65 76.75 19.48L76.98 18.77C77.33 17.74 77.29 16.68 77.23 15.59C77.21 15.38 77.25 14.93 77.29 14.68C77.3 14.44 77.3 14.46 77.19 14.2C77.05 13.95 76.87 13.49 76.86 13.19C76.79 12.42 76.88 12.71 76.33 12.01C75.98 11.51 76.03 11.22 75.78 10.88C75.46 10.51 75.29 10.38 74.95 9.88001C74.56 9.19001 74.68 9.43001 73.97 9.02001L73.23 8.52001C72.97 8.38001 72.59 8.04001 72.45 7.86001C72.26 7.66001 72.32 7.66001 72.09 7.56001C71.34 7.41001 70.63 6.74001 69.85 6.59001C69.33 6.42001 67.95 6.00001 67.41 5.82001C66.92 5.66001 66.78 5.47001 66.49 5.45001C66.13 5.48001 65.86 5.53001 65.45 5.43001C65.06 5.34001 64.82 5.09001 64.53 5.04001C64.39 5.02001 64.08 5.19001 63.46 5.07001C62.91 4.90001 62.69 4.66001 62.61 4.65001C62.68 4.65001 62.58 4.64001 62.23 4.73001C61.64 4.93001 60.96 4.53001 60.37 4.52001C59.98 4.52001 59 4.38001 58.73 4.35001C58.68 4.33001 58.52 4.40001 58.15 4.52001C57.45 4.66001 57.32 4.59001 56.77 4.63001C55.34 5.05001 54.13 5.12001 52.86 5.63001C52.76 5.68001 52.27 5.79001 52.19 5.85001C51.98 6.05001 51.66 6.48001 51.35 6.66001C50.99 6.91001 50.37 7.39001 50.08 7.62001C49.9 7.79001 49.69 8.37001 49.41 8.65001C49.21 8.85001 49 8.99001 48.87 9.13001C48.74 9.41001 48.48 9.87001 48.39 10.11C48.21 10.65 48.01 11.57 47.78 12.17L47.6 12.55L47.55 12.68C47.55 12.68 47.53 12.74 47.52 12.82L47.45 13.22C47.32 14.01 47.15 14.81 47.31 15.6C47.36 16.25 46.36 16.33 46.29 15.69L46.25 15.71Z" fill="#E1E3E5"/>
<path d="M42.05 24.26C41.68 24.6 41.79 24.49 41.34 24.96C41.15 25.17 40.89 25.38 40.63 25.67C40.43 25.9 40.23 26.16 40 26.44C39.8 26.68 39.54 26.9 39.32 27.18C39.12 27.43 39.01 27.76 38.8 28.04C38.61 28.3 38.41 28.57 38.21 28.85C38.02 29.12 37.68 29.29 37.49 29.58C37.31 29.85 37.16 30.16 36.98 30.45C36.8 30.74 36.69 31.05 36.51 31.35C36.33 31.65 36.02 31.84 35.86 32.14C35.7 32.44 35.63 32.77 35.47 33.08C35.31 33.39 35.19 33.68 35.03 33.99C34.87 34.3 34.76 34.6 34.62 34.91C34.48 35.22 34.37 35.53 34.23 35.84C34.09 36.15 34 36.47 33.87 36.78C33.74 37.09 33.57 37.38 33.44 37.7C33.31 38.02 33.17 38.28 33.06 38.6C33.35 39.02 33.38 38.7 34.04 38.76C34.32 38.79 34.66 38.84 35.05 38.87C35.36 38.9 35.69 39 36.06 39.04C36.38 39.07 36.72 39.11 37.07 39.14C37.39 39.17 37.74 39.16 38.09 39.2C38.42 39.23 38.75 39.31 39.1 39.35C39.43 39.39 39.79 39.23 40.13 39.27C40.46 39.31 40.78 39.51 41.12 39.55C41.46 39.59 41.8 39.5 42.15 39.55C42.5 39.6 42.81 39.7 43.16 39.74C43.51 39.78 43.83 39.81 44.18 39.85C44.53 39.89 44.84 39.98 45.19 40.03C45.54 40.08 45.88 40.01 46.22 40.06C46.56 40.11 46.87 40.28 47.21 40.33C47.55 40.38 47.89 40.36 48.23 40.41C48.57 40.46 48.9 40.48 49.24 40.53C49.58 40.58 49.91 40.61 50.25 40.66C50.59 40.71 50.89 40.93 51.23 40.99C51.57 41.05 51.94 40.86 52.28 40.92C52.62 40.98 52.96 40.99 53.3 41.05C53.64 41.11 53.97 41.19 54.3 41.25C54.63 41.31 54.92 41.64 55.26 41.7C55.6 41.76 55.97 41.59 56.31 41.65C56.65 41.71 56.98 41.8 57.31 41.86C57.64 41.92 57.99 41.94 58.33 42C58.67 42.06 58.99 42.17 59.33 42.24C59.67 42.31 59.95 42.6 60.29 42.67C60.63 42.74 61 42.61 61.34 42.69C61.68 42.77 61.96 43.07 62.29 43.14C62.62 43.21 63 43.13 63.33 43.21C63.66 43.29 63.98 43.45 64.31 43.53C64.64 43.61 65 43.62 65.33 43.7C65.66 43.78 65.94 44.06 66.27 44.15C66.6 44.24 66.99 44.12 67.32 44.21C67.65 44.3 67.93 44.56 68.25 44.66C68.57 44.76 68.98 44.64 69.3 44.74C69.62 44.84 69.91 45.07 70.23 45.18C70.55 45.29 70.84 45.51 71.16 45.63C71.48 45.75 71.88 45.67 72.19 45.79C72.5 45.91 72.79 46.15 73.1 46.28C73.41 46.41 73.72 46.58 74.02 46.72C74.32 46.86 74.63 46.96 74.93 47.11C75.35 46.84 74.93 46.78 74.99 46.14C75.01 45.86 75.06 45.52 75.09 45.14C75.11 44.83 75.02 44.49 75.04 44.13C75.06 43.81 75.15 43.48 75.17 43.13C75.19 42.81 75.14 42.47 75.15 42.12C75.16 41.79 75.18 41.46 75.19 41.11C75.2 40.76 75.35 40.45 75.36 40.11C75.37 39.77 75.32 39.44 75.33 39.1C75.34 38.76 75.44 38.43 75.44 38.09C75.44 37.75 75.47 37.42 75.47 37.08C75.47 36.74 75.47 36.41 75.47 36.07C75.47 35.73 75.3 35.4 75.29 35.06C75.28 34.72 75.35 34.38 75.33 34.04C75.31 33.7 75.33 33.36 75.3 33.02C75.27 32.68 75.19 32.35 75.16 32.02C75.13 31.69 75.05 31.35 75.01 31.02" fill="white"/>
<path d="M42.39 24.63C41.43 25.55 40.47 26.68 39.66 27.7C39.44 28.19 39.06 28.68 38.77 29.1C38.6 29.39 38.2 29.69 38.02 29.9C37.68 30.47 37.34 31.12 37.03 31.73C36.8 32.08 36.55 32.23 36.4 32.51C36.29 32.78 36.15 33.23 35.99 33.52C35.16 35.26 34.52 37.09 33.75 38.86L33.66 38.18C33.69 38.26 33.78 38.2 33.43 38.08C33.13 38.08 33.37 38.06 33.51 38.02C33.76 37.97 34.11 38 34.37 38.02C35.96 38.23 37.6 38.31 39.19 38.47C39.5 38.43 39.69 38.36 40.04 38.36C40.74 38.36 40.97 38.72 41.61 38.6C42.87 38.59 44.15 38.9 45.4 39.02C45.8 39.02 46.12 38.96 46.63 39.08C47.32 39.29 47.26 39.27 47.85 39.3C48.62 39.33 49.45 39.46 50.22 39.54C50.56 39.54 51.24 39.84 51.38 39.88H51.33C51.61 39.81 52.27 39.74 52.54 39.82C53.07 39.87 53.71 39.96 54.23 40.07C54.37 40.1 54.36 40.08 54.72 40.18C55.22 40.37 55.41 40.56 55.49 40.58C55.53 40.6 55.47 40.57 55.4 40.56C55.36 40.56 55.39 40.56 55.46 40.56C55.6 40.56 55.96 40.44 56.5 40.53L57.17 40.68C58.19 40.89 59.7 41.01 60.5 41.6C60.41 41.6 60.53 41.61 60.81 41.59C61.12 41.55 61.75 41.65 62.02 41.82C62.34 42 62.51 42.12 62.51 42.12C62.44 42.11 62.54 42.14 62.78 42.13C62.97 42.13 63.33 42.14 63.56 42.21C63.78 42.27 64.21 42.44 64.41 42.51C64.87 42.66 65.21 42.59 65.82 42.85C66.19 43.03 66.37 43.16 66.47 43.22C66.8 43.24 67.34 43.19 67.7 43.37C68.06 43.52 68.26 43.68 68.38 43.74C68.52 43.8 68.38 43.78 68.6 43.8C68.77 43.81 69.13 43.76 69.59 43.92C69.93 44.05 70.15 44.2 70.3 44.29C70.65 44.43 71.15 44.72 71.4 44.85C71.4 44.87 71.58 44.89 71.86 44.91C72 44.93 72.19 44.95 72.4 45.03C72.98 45.29 73.41 45.63 73.94 45.86C74.35 46.08 74.78 46.25 75.2 46.45L74.46 46.49C74.46 46.49 74.48 46.43 74.36 46.66C74.3 46.8 74.32 46.96 74.33 46.99C74.33 47.02 74.33 46.99 74.32 46.95C74.08 46.52 74.27 45.61 74.32 45.14C74.28 44.53 74.29 43.77 74.44 43.13C74.44 42.27 74.46 40.85 74.69 40.12L74.68 39.12C74.81 38.32 74.82 37.81 74.85 37.11L74.86 36.1C74.87 35.91 74.73 35.59 74.7 35.11C74.77 34.36 74.74 33.77 74.74 33.09L74.48 31.1C74.4 30.52 75.3 30.4 75.37 30.99L75.71 33.02C75.76 33.56 75.77 34.62 75.75 35.06C75.75 35.26 75.91 35.57 75.95 36.07L75.97 37.09C76 37.61 75.92 38.75 75.87 39.13L75.92 40.16C75.65 41.6 75.86 42.86 75.68 44.21C75.67 44.42 75.77 44.75 75.74 45.25L75.66 46.24C75.7 46.55 75.92 46.83 75.74 47.23C75.54 47.62 75.38 47.66 75.28 47.75C75.06 47.95 74.77 47.91 74.54 47.79C73.68 47.47 72.62 46.99 71.84 46.57C71.57 46.54 71.35 46.59 70.84 46.45C70.17 46.17 69.55 45.86 68.99 45.61C68.66 45.61 68.47 45.66 68.1 45.59C67.71 45.55 67.19 45.15 66.99 45.13C66.72 45.13 66.57 45.17 66.24 45.13C65.88 45.13 65.21 44.73 65.05 44.66C64.79 44.59 64.21 44.59 63.81 44.45C63.7 44.41 63.14 44.23 63.06 44.21C62.67 44.19 62.41 44.3 61.76 44.09C61.34 43.92 61.15 43.76 61.06 43.73C61.01 43.71 61.06 43.73 61.08 43.73C61.08 43.73 61.04 43.73 60.96 43.74C60.79 43.74 60.45 43.83 59.92 43.7C59.43 43.55 59.21 43.37 59.09 43.32C59.03 43.29 59.04 43.3 59.06 43.3L58.73 43.22C57.88 42.99 56.93 42.94 56.08 42.73C56.17 42.73 56.08 42.73 55.77 42.78C55.62 42.8 55.42 42.83 55.15 42.8C54.82 42.82 54 42.34 54 42.33C54.14 42.36 53.9 42.31 53.83 42.3C53.51 42.24 53.16 42.15 52.84 42.11L52.17 42.02C51.98 42 52.15 42.02 52.1 42.01C51.82 42.05 51.33 42.15 50.98 42.06C50.7 42.03 50.12 41.76 50.06 41.74C49.02 41.57 47.8 41.48 46.76 41.31C46.04 41.08 46.03 41.04 45.32 41.05C44.26 40.88 43.27 40.74 42.22 40.51C41.94 40.45 41.98 40.45 41.73 40.46C41.53 40.46 41.2 40.51 40.79 40.41C40.43 40.32 40.2 40.2 40.07 40.16C40.01 40.14 40 40.14 39.98 40.13C39.96 40.13 39.89 40.13 39.8 40.13L39.42 40.18C39.34 40.18 39.25 40.19 39.15 40.18C37.39 39.95 35.65 39.73 33.9 39.45C33.54 39.41 33.83 39.51 33.14 39.48C32.55 39.33 32.13 38.77 32.33 38.26C33.18 36.45 33.89 34.58 34.8 32.81C34.86 32.72 34.94 32.51 34.99 32.41C35.12 31.87 35.59 31.31 35.94 30.97C36.42 30.09 36.89 29.06 37.71 28.45C38.07 27.98 38.37 27.59 38.66 27.06C39.39 26.11 40.07 25.42 40.89 24.58C41.11 24.35 41.46 24 41.69 23.81C42.19 23.37 42.85 24.1 42.37 24.56L42.39 24.63Z" fill="#E1E3E5"/>
<path d="M38.03 29.3C38.54 29.25 38.4 29.36 39.06 29.33C39.35 29.32 39.68 29.19 40.08 29.18C40.39 29.18 40.73 29.24 41.1 29.24C41.42 29.24 41.76 29.14 42.12 29.14C42.44 29.14 42.78 29.43 43.13 29.44C43.46 29.44 43.8 29.2 44.16 29.22C44.49 29.23 44.83 29.22 45.18 29.25C45.51 29.27 45.84 29.42 46.19 29.44C46.54 29.46 46.86 29.52 47.21 29.55C47.56 29.58 47.87 29.69 48.22 29.73C48.57 29.77 48.89 29.81 49.23 29.85C49.57 29.89 49.91 29.86 50.25 29.91C50.59 29.96 50.94 29.83 51.28 29.88C51.62 29.93 51.94 30.06 52.28 30.11C52.62 30.16 52.97 30.08 53.31 30.13C53.65 30.18 53.93 30.54 54.26 30.6C54.59 30.66 54.93 30.72 55.26 30.79C55.59 30.86 55.96 30.75 56.3 30.82C56.64 30.89 56.96 30.99 57.29 31.07C57.62 31.15 57.96 31.19 58.3 31.27C58.64 31.35 58.93 31.57 59.26 31.65C59.59 31.73 59.98 31.62 60.31 31.71C60.64 31.8 60.93 32.02 61.26 32.12C61.59 32.22 61.95 32.22 62.27 32.32C62.59 32.42 62.92 32.53 63.24 32.64C63.56 32.75 63.89 32.84 64.22 32.96C64.55 33.08 64.76 33.46 65.08 33.59C65.4 33.72 65.71 33.84 66.03 33.97C66.35 34.1 66.71 34.1 67.03 34.23C67.35 34.36 67.66 34.5 67.97 34.64C68.28 34.78 68.63 34.83 68.95 34.98C69.27 35.13 69.53 35.34 69.84 35.5C70.15 35.66 70.39 35.92 70.69 36.08C70.99 36.24 71.4 36.2 71.7 36.37C72 36.54 72.23 36.82 72.53 36.99C72.83 37.16 73.19 37.22 73.48 37.4C73.77 37.58 74.02 37.83 74.31 38.02C74.6 38.21 74.83 38.47 75.12 38.66" stroke="#E1E3E5" stroke-width="1.5" stroke-linecap="round" stroke-linejoin="round"/>
<path d="M37.07 80.65C37.42 81.04 37.17 80.97 37.03 81.63C36.97 81.91 36.73 82.22 36.65 82.61C36.58 82.92 36.49 83.25 36.41 83.62C36.34 83.94 36.39 84.3 36.32 84.66C36.26 84.98 36.23 85.33 36.16 85.68C36.1 86.01 35.82 86.31 35.75 86.66C35.69 86.99 35.73 87.35 35.66 87.7C35.6 88.03 35.45 88.36 35.38 88.71C35.31 89.06 35.34 89.4 35.28 89.75C35.22 90.1 35.26 90.45 35.2 90.8C35.14 91.15 35.01 91.5 34.95 91.85C35.43 92.02 35.48 91.73 35.99 91.73C36.5 91.73 36.5 91.8 37.02 91.8C37.54 91.8 37.54 91.92 38.05 91.92C38.56 91.92 38.57 91.76 39.08 91.76C39.59 91.76 39.59 91.9 40.11 91.9C40.63 91.9 40.63 91.96 41.14 91.96C41.65 91.96 41.66 91.86 42.17 91.86C42.68 91.86 42.68 91.86 43.2 91.86C43.72 91.86 43.71 91.75 44.23 91.75C44.75 91.75 44.74 91.87 45.26 91.87C45.78 91.87 45.78 91.93 46.29 91.93C46.8 91.93 46.81 91.9 47.32 91.9C47.83 91.9 47.84 91.86 48.35 91.86C48.86 91.86 48.87 91.71 49.38 91.71C49.89 91.71 49.9 91.75 50.41 91.75C50.92 91.75 50.93 91.85 51.44 91.85C51.95 91.85 51.95 91.81 52.47 91.81C52.99 91.81 52.99 91.75 53.5 91.75C54.01 91.75 54.02 91.77 54.54 91.77C55.06 91.77 55.06 91.72 55.58 91.72C56.1 91.72 56.16 92.06 56.65 91.88C57.14 91.7 56.78 91.43 56.84 90.75C56.87 90.45 56.9 90.1 56.95 89.7C56.99 89.38 56.88 89 56.95 88.62C57 88.29 57.21 87.97 57.28 87.6C57.34 87.26 57.41 86.92 57.49 86.56C57.56 86.22 57.54 85.85 57.63 85.5C57.72 85.15 57.81 84.82 57.91 84.47C58.01 84.12 58.22 83.82 58.33 83.48C58.44 83.14 58.54 82.8 58.67 82.46C58.8 82.12 58.74 81.68 58.88 81.34C59.26 80.93 59.26 81.39 60.04 81.54C60.33 81.59 60.67 81.68 61.09 81.84C61.39 81.95 61.71 82.12 62.08 82.3C62.38 82.45 62.82 82.4 63.18 82.6C63.48 82.77 63.72 83.09 64.06 83.31C64.36 83.5 64.57 83.71 64.9 83.93C65.1 84.39 64.99 84.2 64.86 84.86C64.81 85.13 64.62 85.43 64.55 85.82C64.5 86.12 64.45 86.45 64.4 86.82C64.36 87.13 64.27 87.45 64.22 87.81C64.18 88.12 64.38 88.48 64.34 88.83C64.31 89.15 64.22 89.47 64.19 89.82C64.16 90.14 64.08 90.47 64.05 90.82C64.03 91.14 64.09 91.48 64.07 91.83C64.05 92.15 63.99 92.48 63.97 92.83C63.95 93.15 63.93 93.49 63.91 93.83C63.9 94.16 63.75 94.49 63.74 94.83C63.73 95.17 63.88 95.5 63.88 95.84C63.88 96.18 63.68 96.5 63.68 96.84C63.68 97.18 63.86 97.51 63.86 97.85C63.86 98.19 63.79 98.51 63.79 98.86C63.79 99.21 63.76 99.53 63.76 99.87C63.76 100.21 63.76 100.45 63.77 100.79C63.28 100.95 63.28 100.79 62.77 100.79C62.26 100.79 62.25 101.03 61.74 101.03C61.23 101.03 61.22 100.77 60.71 100.77C60.2 100.77 60.19 100.77 59.68 100.77C59.17 100.77 59.16 100.74 58.64 100.74C58.12 100.74 58.12 100.95 57.6 100.95C57.08 100.95 57.08 100.91 56.56 100.91C56.04 100.91 56.04 100.97 55.52 100.97C55 100.97 55 100.82 54.48 100.82C53.96 100.82 53.96 101.02 53.44 101.02C52.92 101.02 52.92 100.92 52.4 100.92C51.88 100.92 51.88 100.89 51.36 100.89C50.84 100.89 50.84 101.01 50.32 101.01C49.8 101.01 49.8 100.85 49.28 100.85C48.76 100.85 48.76 100.78 48.24 100.78C47.72 100.78 47.72 100.98 47.2 100.98C46.68 100.98 46.68 100.97 46.16 100.97C45.64 100.97 45.64 100.93 45.12 100.93C44.6 100.93 44.6 100.75 44.08 100.75C43.56 100.75 43.56 100.84 43.04 100.84C42.52 100.84 42.52 100.78 42 100.78C41.48 100.78 41.48 100.97 40.96 100.97C40.44 100.97 40.44 101.03 39.92 101.03C39.4 101.03 39.4 100.78 38.89 100.78C38.38 100.78 38.37 100.95 37.85 100.95C37.33 100.95 37.33 100.86 36.81 100.86C36.29 100.86 36.29 100.96 35.77 100.96C35.25 100.96 35.25 100.89 34.73 100.89C34.21 100.89 34.21 101 33.69 101C33.17 101 33.17 100.85 32.65 100.85C32.13 100.85 32.13 100.89 31.61 100.89C31.09 100.89 31.09 100.98 30.57 100.98C30.05 100.98 30.05 101.02 29.53 101.02C29.01 101.02 29.01 101.02 28.49 101.02C27.97 101.02 27.97 100.83 27.44 100.83C26.91 100.83 26.91 101.04 26.41 100.87C25.91 100.7 26.27 100.55 26.31 99.9C26.33 99.62 26.37 99.27 26.41 98.89C26.44 98.58 26.54 98.25 26.58 97.88C26.62 97.56 26.65 97.23 26.7 96.87C26.74 96.55 26.74 96.21 26.79 95.86C26.84 95.54 27.01 95.22 27.07 94.87C27.12 94.54 27.2 94.21 27.26 93.87C27.32 93.53 27.4 93.21 27.46 92.87C27.52 92.53 27.48 92.19 27.55 91.85C27.62 91.51 27.72 91.2 27.8 90.86C27.88 90.52 27.94 90.2 28.03 89.86C28.12 89.52 28.29 89.23 28.38 88.9C28.47 88.57 28.63 88.27 28.73 87.94C28.83 87.61 28.78 87.25 28.88 86.92C28.98 86.59 29.08 86.27 29.19 85.95C29.3 85.63 29.31 85.27 29.42 84.95C29.53 84.63 29.66 84.31 29.79 83.99C29.92 83.67 30.11 83.34 30.24 83.03C30.6 82.65 30.71 83.03 31.3 82.75C31.57 82.62 31.78 82.25 32.14 82.09C32.43 81.96 32.8 81.92 33.14 81.79C33.45 81.67 33.74 81.43 34.07 81.31C34.39 81.2 34.73 81.11 35.07 81.01C35.41 80.91 35.77 80.93 36.11 80.84C36.45 80.75 36.71 80.72 37.06 80.66L37.07 80.65Z" fill="#D07DEF"/>
<path d="M37.07 80.65C37.42 81.04 37.17 80.97 37.03 81.63C36.97 81.91 36.73 82.22 36.65 82.61C36.58 82.92 36.49 83.25 36.41 83.62C36.34 83.94 36.39 84.3 36.32 84.66C36.26 84.98 36.23 85.33 36.16 85.68C36.1 86.01 35.82 86.31 35.75 86.66C35.69 86.99 35.73 87.35 35.66 87.7C35.6 88.03 35.45 88.36 35.38 88.71C35.31 89.06 35.34 89.4 35.28 89.75C35.22 90.1 35.26 90.45 35.2 90.8C35.14 91.15 35.01 91.5 34.95 91.85C35.43 92.02 35.48 91.73 35.99 91.73C36.5 91.73 36.5 91.8 37.02 91.8C37.54 91.8 37.54 91.92 38.05 91.92C38.56 91.92 38.57 91.76 39.08 91.76C39.59 91.76 39.59 91.9 40.11 91.9C40.63 91.9 40.63 91.96 41.14 91.96C41.65 91.96 41.66 91.86 42.17 91.86C42.68 91.86 42.68 91.86 43.2 91.86C43.72 91.86 43.71 91.75 44.23 91.75C44.75 91.75 44.74 91.87 45.26 91.87C45.78 91.87 45.78 91.93 46.29 91.93C46.8 91.93 46.81 91.9 47.32 91.9C47.83 91.9 47.84 91.86 48.35 91.86C48.86 91.86 48.87 91.71 49.38 91.71C49.89 91.71 49.9 91.75 50.41 91.75C50.92 91.75 50.93 91.85 51.44 91.85C51.95 91.85 51.95 91.81 52.47 91.81C52.99 91.81 52.99 91.75 53.5 91.75C54.01 91.75 54.02 91.77 54.54 91.77C55.06 91.77 55.06 91.72 55.58 91.72C56.1 91.72 56.16 92.06 56.65 91.88C57.14 91.7 56.78 91.43 56.84 90.75C56.87 90.45 56.9 90.1 56.95 89.7C56.99 89.38 56.88 89 56.95 88.62C57 88.29 57.21 87.97 57.28 87.6C57.34 87.26 57.41 86.92 57.49 86.56C57.56 86.22 57.54 85.85 57.63 85.5C57.72 85.15 57.81 84.82 57.91 84.47C58.01 84.12 58.22 83.82 58.33 83.48C58.44 83.14 58.54 82.8 58.67 82.46C58.8 82.12 58.74 81.68 58.88 81.34C59.26 80.93 59.26 81.39 60.04 81.54C60.33 81.59 60.67 81.68 61.09 81.84C61.39 81.95 61.71 82.12 62.08 82.3C62.38 82.45 62.82 82.4 63.18 82.6C63.48 82.77 63.72 83.09 64.06 83.31C64.36 83.5 64.57 83.71 64.9 83.93C65.1 84.39 64.99 84.2 64.86 84.86C64.81 85.13 64.62 85.43 64.55 85.82C64.5 86.12 64.45 86.45 64.4 86.82C64.36 87.13 64.27 87.45 64.22 87.81C64.18 88.12 64.38 88.48 64.34 88.83C64.31 89.15 64.22 89.47 64.19 89.82C64.16 90.14 64.08 90.47 64.05 90.82C64.03 91.14 64.09 91.48 64.07 91.83C64.05 92.15 63.99 92.48 63.97 92.83C63.95 93.15 63.93 93.49 63.91 93.83C63.9 94.16 63.75 94.49 63.74 94.83C63.73 95.17 63.88 95.5 63.88 95.84C63.88 96.18 63.68 96.5 63.68 96.84C63.68 97.18 63.86 97.51 63.86 97.85C63.86 98.19 63.79 98.51 63.79 98.86C63.79 99.21 63.76 99.53 63.76 99.87C63.76 100.21 63.76 100.45 63.77 100.79C63.28 100.95 63.28 100.79 62.77 100.79C62.26 100.79 62.25 101.03 61.74 101.03C61.23 101.03 61.22 100.77 60.71 100.77C60.2 100.77 60.19 100.77 59.68 100.77C59.17 100.77 59.16 100.74 58.64 100.74C58.12 100.74 58.12 100.95 57.6 100.95C57.08 100.95 57.08 100.91 56.56 100.91C56.04 100.91 56.04 100.97 55.52 100.97C55 100.97 55 100.82 54.48 100.82C53.96 100.82 53.96 101.02 53.44 101.02C52.92 101.02 52.92 100.92 52.4 100.92C51.88 100.92 51.88 100.89 51.36 100.89C50.84 100.89 50.84 101.01 50.32 101.01C49.8 101.01 49.8 100.85 49.28 100.85C48.76 100.85 48.76 100.78 48.24 100.78C47.72 100.78 47.72 100.98 47.2 100.98C46.68 100.98 46.68 100.97 46.16 100.97C45.64 100.97 45.64 100.93 45.12 100.93C44.6 100.93 44.6 100.75 44.08 100.75C43.56 100.75 43.56 100.84 43.04 100.84C42.52 100.84 42.52 100.78 42 100.78C41.48 100.78 41.48 100.97 40.96 100.97C40.44 100.97 40.44 101.03 39.92 101.03C39.4 101.03 39.4 100.78 38.89 100.78C38.38 100.78 38.37 100.95 37.85 100.95C37.33 100.95 37.33 100.86 36.81 100.86C36.29 100.86 36.29 100.96 35.77 100.96C35.25 100.96 35.25 100.89 34.73 100.89C34.21 100.89 34.21 101 33.69 101C33.17 101 33.17 100.85 32.65 100.85C32.13 100.85 32.13 100.89 31.61 100.89C31.09 100.89 31.09 100.98 30.57 100.98C30.05 100.98 30.05 101.02 29.53 101.02C29.01 101.02 29.01 101.02 28.49 101.02C27.97 101.02 27.97 100.83 27.44 100.83C26.91 100.83 26.91 101.04 26.41 100.87C25.91 100.7 26.27 100.55 26.31 99.9C26.33 99.62 26.37 99.27 26.41 98.89C26.44 98.58 26.54 98.25 26.58 97.88C26.62 97.56 26.65 97.23 26.7 96.87C26.74 96.55 26.74 96.21 26.79 95.86C26.84 95.54 27.01 95.22 27.07 94.87C27.12 94.54 27.2 94.21 27.26 93.87C27.32 93.53 27.4 93.21 27.46 92.87C27.52 92.53 27.48 92.19 27.55 91.85C27.62 91.51 27.72 91.2 27.8 90.86C27.88 90.52 27.94 90.2 28.03 89.86C28.12 89.52 28.29 89.23 28.38 88.9C28.47 88.57 28.63 88.27 28.73 87.94C28.83 87.61 28.78 87.25 28.88 86.92C28.98 86.59 29.08 86.27 29.19 85.95C29.3 85.63 29.31 85.27 29.42 84.95C29.53 84.63 29.66 84.31 29.79 83.99C29.92 83.67 30.11 83.34 30.24 83.03C30.6 82.65 30.71 83.03 31.3 82.75C31.57 82.62 31.78 82.25 32.14 82.09C32.43 81.96 32.8 81.92 33.14 81.79C33.45 81.67 33.74 81.43 34.07 81.31C34.39 81.2 34.73 81.11 35.07 81.01C35.41 80.91 35.77 80.93 36.11 80.84C36.45 80.75 36.71 80.72 37.06 80.66L37.07 80.65Z" stroke="#B96BDD" stroke-width="1.5" stroke-linecap="round" stroke-linejoin="round"/>
<path d="M62.4699 62.69C62.4699 62.69 62.4299 62.69 62.4099 62.67C60.8399 65.67 58.5199 68.56 55.5699 70.47" fill="#C48445"/>
<path d="M62.4699 62.69C62.4699 62.69 62.4299 62.69 62.4099 62.67C60.8399 65.67 58.5199 68.56 55.5699 70.47" stroke="#C6844E" stroke-width="1.5" stroke-miterlimit="10"/>
<path d="M23.96 67.56C23.48 67.8 23.58 67.72 23.03 68.07C22.77 68.23 22.45 68.4 22.12 68.63C21.85 68.82 21.51 68.97 21.21 69.2C20.94 69.42 20.66 69.65 20.4 69.9C20.14 70.15 20 70.5 19.76 70.77C19.52 71.04 19.11 71.16 18.9 71.45C18.69 71.74 18.59 72.12 18.43 72.43C18.27 72.74 18.07 73.07 17.97 73.41C17.87 73.75 17.79 74.13 17.78 74.49C17.77 74.85 17.94 75.19 18.03 75.55C18.11 75.88 18.15 76.26 18.32 76.59C18.49 76.92 18.7 77.22 18.9 77.48C19.13 77.77 19.47 77.93 19.73 78.14C20.01 78.37 20.28 78.57 20.59 78.72C20.9 78.87 21.25 78.9 21.59 78.98C21.93 79.06 22.26 79.19 22.61 79.2C22.96 79.21 23.3 79.16 23.65 79.12C24 79.08 24.37 79.19 24.71 79.12C25.05 79.05 25.4 78.95 25.73 78.85C26.06 78.75 26.31 78.36 26.63 78.24C26.97 78.11 27.32 78.06 27.63 77.93C27.97 77.78 28.37 77.8 28.66 77.66C29.01 77.49 29.2 77.08 29.47 76.95" fill="url(#paint0_linear_5602_25520)"/>
<path d="M23.96 67.56C23.48 67.8 23.58 67.72 23.03 68.07C22.77 68.23 22.45 68.4 22.12 68.63C21.85 68.82 21.51 68.97 21.21 69.2C20.94 69.42 20.66 69.65 20.4 69.9C20.14 70.15 20 70.5 19.76 70.77C19.52 71.04 19.11 71.16 18.9 71.45C18.69 71.74 18.59 72.12 18.43 72.43C18.27 72.74 18.07 73.07 17.97 73.41C17.87 73.75 17.79 74.13 17.78 74.49C17.77 74.85 17.94 75.19 18.03 75.55C18.11 75.88 18.15 76.26 18.32 76.59C18.49 76.92 18.7 77.22 18.9 77.48C19.13 77.77 19.47 77.93 19.73 78.14C20.01 78.37 20.28 78.57 20.59 78.72C20.9 78.87 21.25 78.9 21.59 78.98C21.93 79.06 22.26 79.19 22.61 79.2C22.96 79.21 23.3 79.16 23.65 79.12C24 79.08 24.37 79.19 24.71 79.12C25.05 79.05 25.4 78.95 25.73 78.85C26.06 78.75 26.31 78.36 26.63 78.24C26.97 78.11 27.32 78.06 27.63 77.93C27.97 77.78 28.37 77.8 28.66 77.66C29.01 77.49 29.2 77.08 29.47 76.95" stroke="#C6844E" stroke-width="1.5" stroke-miterlimit="10"/>
<path d="M65.1801 78.29C65.5801 78.62 65.4701 78.56 66.0001 78.92C66.2501 79.09 66.5301 79.31 66.8601 79.5C67.1401 79.66 67.4101 79.9 67.7401 80.06C68.0401 80.21 68.3701 80.35 68.7001 80.47C69.0301 80.59 69.4001 80.54 69.7401 80.63C70.0801 80.72 70.3801 81.02 70.7201 81.06C71.0601 81.1 71.4301 81 71.7801 80.98C72.1301 80.96 72.4901 80.98 72.8301 80.88C73.1701 80.78 73.5201 80.68 73.8301 80.51C74.1201 80.35 74.3501 80.04 74.6201 79.8C74.8701 79.58 75.1801 79.39 75.4101 79.1C75.6101 78.84 75.8001 78.53 75.9801 78.21C76.1601 77.89 76.1701 77.52 76.2701 77.22C76.3801 76.88 76.4701 76.55 76.4901 76.23C76.5101 75.88 76.41 75.56 76.34 75.23C76.27 74.9 76.2501 74.55 76.1101 74.25C75.9701 73.95 75.7601 73.67 75.5601 73.39C75.3601 73.11 75.2701 72.74 75.0401 72.49C74.8101 72.24 74.5401 71.99 74.2901 71.78C74.0201 71.55 73.5701 71.56 73.3101 71.37C73.0001 71.15 72.7701 70.89 72.5101 70.74C71.9901 70.42 72.1701 70.3 71.7101 70.09" fill="url(#paint1_linear_5602_25520)"/>
<path d="M65.1801 78.29C65.5801 78.62 65.4701 78.56 66.0001 78.92C66.2501 79.09 66.5301 79.31 66.8601 79.5C67.1401 79.66 67.4101 79.9 67.7401 80.06C68.0401 80.21 68.3701 80.35 68.7001 80.47C69.0301 80.59 69.4001 80.54 69.7401 80.63C70.0801 80.72 70.3801 81.02 70.7201 81.06C71.0601 81.1 71.4301 81 71.7801 80.98C72.1301 80.96 72.4901 80.98 72.8301 80.88C73.1701 80.78 73.5201 80.68 73.8301 80.51C74.1201 80.35 74.3501 80.04 74.6201 79.8C74.8701 79.58 75.1801 79.39 75.4101 79.1C75.6101 78.84 75.8001 78.53 75.9801 78.21C76.1601 77.89 76.1701 77.52 76.2701 77.22C76.3801 76.88 76.4701 76.55 76.4901 76.23C76.5101 75.88 76.41 75.56 76.34 75.23C76.27 74.9 76.2501 74.55 76.1101 74.25C75.9701 73.95 75.7601 73.67 75.5601 73.39C75.3601 73.11 75.2701 72.74 75.0401 72.49C74.8101 72.24 74.5401 71.99 74.2901 71.78C74.0201 71.55 73.5701 71.56 73.3101 71.37C73.0001 71.15 72.7701 70.89 72.5101 70.74C71.9901 70.42 72.1701 70.3 71.7101 70.09" stroke="#C6844E" stroke-width="1.5" stroke-miterlimit="10"/>
<path d="M39.11 69.57C38.85 69.36 38.45 69.31 38.21 69.08C37.97 68.85 37.88 68.47 37.65 68.23C37.42 67.99 37.04 67.88 36.83 67.62C36.62 67.36 36.64 66.93 36.45 66.65C36.26 66.37 35.85 66.25 35.67 65.97C35.49 65.69 35.38 65.36 35.22 65.07C35.06 64.78 34.96 64.45 34.82 64.15C34.68 63.85 34.43 63.59 34.3 63.28C34.17 62.97 34.15 62.62 34.04 62.31C33.93 62 33.79 61.69 33.69 61.37" stroke="#C6844E" stroke-width="1.5" stroke-miterlimit="10"/>
<path d="M63.08 38.26C62.74 38.29 62.42 38.56 62.09 38.61C61.76 38.66 61.38 38.54 61.05 38.61C60.72 38.68 60.45 39 60.13 39.11C59.81 39.22 59.39 39.08 59.08 39.21C58.77 39.34 58.58 39.74 58.28 39.9C57.98 40.06 57.66 40.18 57.38 40.36C57.1 40.54 56.78 40.69 56.51 40.9C56.24 41.11 56.06 41.41 55.8 41.64C55.54 41.87 55.23 42.02 54.99 42.27C54.75 42.52 54.55 42.79 54.34 43.05C54.13 43.31 53.92 43.58 53.72 43.85C53.52 44.12 53.38 44.44 53.2 44.73C53.02 45.02 52.7 45.22 52.53 45.52C52.36 45.82 52.4 46.21 52.26 46.52C52.12 46.83 51.9 47.1 51.77 47.41C51.64 47.72 51.48 48.02 51.36 48.35C51.24 48.68 51.09 48.98 51 49.31C50.91 49.64 50.89 49.99 50.82 50.32C50.75 50.65 50.62 50.97 50.55 51.31C50.48 51.65 50.51 51.99 50.46 52.33C50.41 52.67 50.21 52.99 50.18 53.33C50.15 53.67 50.16 54.01 50.15 54.36C50.14 54.71 50.28 55.04 50.28 55.39C50.28 55.74 50.36 56.06 50.37 56.41C50.38 56.76 50.41 57.08 50.44 57.42C50.47 57.76 50.51 58.09 50.55 58.43C50.59 58.77 50.55 59.11 50.61 59.45C50.67 59.79 50.72 60.12 50.8 60.45C50.88 60.78 50.75 61.16 50.83 61.49C50.91 61.82 51.16 62.11 51.26 62.43C51.36 62.75 51.38 63.11 51.49 63.43C51.6 63.75 51.9 64 52.02 64.32C52.14 64.64 52.29 64.94 52.43 65.25C52.57 65.56 52.65 65.9 52.8 66.2C52.95 66.5 53.18 66.76 53.35 67.06C53.52 67.36 53.71 67.63 53.89 67.92C54.07 68.21 54.1 68.59 54.29 68.88C54.48 69.17 54.75 69.38 54.96 69.66C55.17 69.94 55.31 70.22 55.53 70.48C55.23 70.67 54.91 70.77 54.61 70.94C54.31 71.11 54 71.29 53.68 71.44C53.36 71.59 53.08 71.82 52.75 71.94C52.42 72.06 52.11 72.27 51.77 72.37C51.43 72.47 51.08 72.53 50.73 72.6C50.38 72.67 50.04 72.78 49.69 72.83C49.34 72.88 48.98 72.83 48.62 72.86C48.26 72.89 47.91 72.88 47.56 72.86C47.21 72.84 46.86 72.78 46.5 72.74C46.15 72.71 45.83 72.56 45.5 72.5C45.17 72.44 44.83 72.39 44.5 72.31C44.17 72.23 43.78 72.31 43.46 72.2C43.14 72.09 42.84 71.88 42.53 71.75C42.22 71.62 41.91 71.46 41.61 71.31C41.31 71.16 41.01 70.99 40.72 70.81C40.43 70.63 40.12 70.48 39.84 70.28C39.56 70.08 39.19 69.87 38.93 69.65C38.96 69.14 39.3 69.4 39.77 68.95C39.98 68.75 40.25 68.53 40.53 68.26C40.75 68.04 41.01 67.8 41.26 67.54C41.48 67.31 41.67 67.01 41.91 66.75C42.13 66.51 42.44 66.32 42.67 66.05C42.89 65.8 42.96 65.41 43.18 65.14C43.4 64.87 43.82 64.78 44.04 64.51C44.26 64.24 44.32 63.86 44.53 63.58C44.74 63.3 44.99 63.07 45.19 62.78C45.39 62.49 45.44 62.12 45.62 61.83C45.8 61.54 45.98 61.25 46.15 60.95C46.32 60.65 46.67 60.46 46.84 60.15C47.01 59.84 46.99 59.46 47.14 59.14C47.29 58.82 47.46 58.53 47.59 58.22C47.72 57.91 48 57.64 48.12 57.32C48.24 57 48.18 56.61 48.28 56.28C48.38 55.95 48.59 55.65 48.67 55.32C48.75 54.99 48.96 54.67 49.02 54.33C49.08 53.99 49.02 53.63 49.06 53.29C49.09 52.95 49.05 52.61 49.06 52.28C49.07 51.95 49.25 51.61 49.26 51.28C49.27 50.95 49.2 50.6 49.2 50.27C49.2 49.94 49.06 49.6 49.04 49.26C49.02 48.92 49.06 48.58 49.04 48.25C49.02 47.92 49.06 47.57 49.02 47.24C48.98 46.91 48.86 46.58 48.8 46.25C48.74 45.92 48.65 45.59 48.58 45.26C48.51 44.93 48.36 44.62 48.27 44.3C48.18 43.98 48.16 43.63 48.05 43.31C47.94 42.99 47.75 42.71 47.62 42.4C47.49 42.09 47.57 41.68 47.43 41.38C47.29 41.08 46.9 40.9 46.73 40.61C46.56 40.32 46.57 39.91 46.38 39.64C46.19 39.37 45.91 39.14 45.7 38.88C45.49 38.62 45.22 38.41 44.98 38.17C44.74 37.93 44.52 37.68 44.26 37.47C44 37.26 43.77 37 43.49 36.82C43.21 36.64 42.95 36.4 42.65 36.24C42.35 36.08 41.94 36.18 41.63 36.05C41.32 35.92 41.02 35.82 40.69 35.72C40.36 35.62 40.07 35.49 39.74 35.41C39.41 35.33 39.12 35.06 38.78 35.02C38.44 34.98 38.11 34.96 37.76 34.95C37.41 34.93 37.06 35.18 36.72 35.19C36.38 35.2 36.02 35.12 35.68 35.17C35.34 35.22 35.01 35.36 34.68 35.44C34.35 35.52 34.01 35.59 33.68 35.71C33.35 35.83 32.97 35.8 32.65 35.94C32.33 36.08 32 36.21 31.7 36.37C31.4 36.53 31.12 36.76 30.83 36.95C30.54 37.14 30.21 37.28 29.93 37.49C29.65 37.7 29.39 37.94 29.13 38.17C28.87 38.4 28.75 38.78 28.51 39.03C28.27 39.28 28.08 39.57 27.85 39.83C27.62 40.09 27.2 40.18 26.98 40.46C26.76 40.74 26.69 41.11 26.48 41.39C26.27 41.67 25.98 41.89 25.79 42.18C25.6 42.47 25.5 42.81 25.33 43.12C25.16 43.43 24.87 43.66 24.71 43.97C24.55 44.28 24.51 44.65 24.37 44.96C24.23 45.27 24.22 45.65 24.09 45.97C23.96 46.29 23.71 46.56 23.6 46.89C23.49 47.22 23.34 47.53 23.24 47.87C23.14 48.21 22.95 48.51 22.86 48.85C22.77 49.19 22.94 49.58 22.86 49.92C22.78 50.26 22.57 50.57 22.51 50.91C22.45 51.25 22.46 51.6 22.41 51.95C22.36 52.3 22.39 52.64 22.35 52.99C22.31 53.34 22.19 53.67 22.16 54.02C22.13 54.37 22.08 54.71 22.07 55.06C22.06 55.41 22.15 55.75 22.16 56.1C22.17 56.45 22.23 56.79 22.25 57.13C22.27 57.48 22.13 57.84 22.15 58.19C22.17 58.54 22.27 58.88 22.3 59.24C22.33 59.6 22.31 59.94 22.35 60.3C22.39 60.66 22.31 61.01 22.36 61.36C22.41 61.71 22.65 62.03 22.71 62.38C22.77 62.73 22.78 63.08 22.85 63.43C22.92 63.78 23.13 64.09 23.21 64.43C23.29 64.77 23.32 65.12 23.41 65.47C23.5 65.82 23.6 66.14 23.7 66.48C23.8 66.82 23.78 67.19 23.89 67.53C23.99 67.85 24.24 68.13 24.36 68.44C24.48 68.75 24.59 69.07 24.72 69.39C24.85 69.71 24.8 70.1 24.94 70.41C25.08 70.72 25.39 70.95 25.55 71.25C25.71 71.55 25.71 71.93 25.88 72.23C26.05 72.53 26.39 72.72 26.56 73.01C26.73 73.3 26.71 73.72 26.9 74C27.09 74.28 27.41 74.48 27.61 74.75C27.81 75.02 27.9 75.38 28.12 75.65C28.34 75.92 28.71 76.04 28.94 76.29C29.17 76.54 29.42 76.76 29.66 77L29.51 77.16C29.74 77.4 30.13 77.47 30.38 77.7C30.63 77.93 30.84 78.18 31.1 78.39C31.36 78.6 31.51 78.95 31.77 79.16C32.03 79.37 32.29 79.58 32.57 79.77C32.85 79.96 33.17 80.07 33.46 80.25C33.75 80.43 34.08 80.5 34.38 80.67C34.68 80.84 34.91 81.09 35.21 81.25C35.51 81.41 35.78 81.61 36.09 81.75C36.4 81.89 36.7 82.02 37.02 82.15C37.34 82.28 37.66 82.36 37.97 82.47C38.28 82.58 38.63 82.61 38.95 82.72C39.27 82.83 39.56 83.01 39.89 83.1C40.22 83.19 40.54 83.27 40.86 83.35C41.18 83.43 41.53 83.39 41.86 83.47C42.19 83.55 42.52 83.53 42.86 83.59C43.2 83.65 43.51 83.72 43.84 83.77C44.17 83.82 44.49 83.93 44.82 83.97C45.15 84.01 45.48 84.07 45.81 84.11C46.14 84.15 46.46 84.33 46.8 84.35C47.14 84.37 47.47 84.41 47.81 84.43C48.16 84.45 48.51 84.47 48.86 84.48C49.21 84.49 49.56 84.32 49.91 84.32C50.26 84.32 50.62 84.46 50.96 84.44C51.3 84.42 51.65 84.31 52 84.27C52.35 84.23 52.69 84.12 53.03 84.07C53.37 84.02 53.74 84.05 54.07 83.98C54.4 83.91 54.77 83.91 55.11 83.83C55.45 83.75 55.79 83.65 56.12 83.56C56.45 83.47 56.79 83.35 57.12 83.24C57.45 83.13 57.76 82.94 58.08 82.81C58.4 82.68 58.72 82.54 59.04 82.39C59.36 82.24 59.73 82.2 60.03 82.04C60.33 81.88 60.57 81.57 60.87 81.4C61.17 81.23 61.47 81.05 61.77 80.87C62.07 80.69 62.36 80.5 62.64 80.3C62.92 80.1 63.28 80 63.56 79.79C63.84 79.58 64.13 79.38 64.4 79.16C64.67 78.94 64.89 78.66 65.15 78.43C65.41 78.2 65.61 77.89 65.86 77.65C66.11 77.41 66.5 77.3 66.75 77.05C67 76.8 67.25 76.55 67.48 76.29C67.71 76.03 67.75 75.59 67.97 75.32C68.19 75.05 68.58 74.91 68.8 74.64C69.02 74.37 69.28 74.12 69.49 73.84C69.7 73.56 69.68 73.11 69.88 72.82C70.08 72.53 70.28 72.25 70.47 71.96C70.66 71.67 70.95 71.43 71.13 71.14C71.31 70.85 71.53 70.56 71.71 70.26C71.89 69.95 72.06 69.64 72.23 69.34C72.4 69.04 72.56 68.71 72.72 68.4C72.88 68.09 73.02 67.75 73.17 67.44C73.32 67.13 73.63 66.87 73.78 66.55C73.93 66.23 74.08 65.9 74.22 65.58C74.36 65.26 74.45 64.9 74.58 64.58C74.71 64.26 74.72 63.86 74.85 63.54C74.98 63.22 75.14 62.89 75.26 62.56C75.38 62.23 75.59 61.92 75.7 61.59C75.82 61.25 75.9 60.9 76.01 60.57C76.12 60.22 76.22 59.88 76.32 59.56C76.43 59.21 76.54 58.87 76.63 58.55C76.73 58.19 76.69 57.81 76.77 57.49C76.86 57.12 77.17 56.83 77.24 56.52C77.31 56.2 77.4 55.85 77.45 55.5C77.5 55.17 77.29 54.8 77.32 54.44C77.35 54.08 77.44 53.77 77.45 53.42C77.46 53.07 77.52 52.74 77.51 52.39C77.5 52.04 77.43 51.71 77.4 51.36C77.37 51.01 77.45 50.66 77.4 50.31C77.35 49.96 77.26 49.63 77.2 49.29C77.14 48.95 77.13 48.59 77.04 48.26C76.95 47.93 76.63 47.66 76.52 47.33C76.41 47 76.26 46.7 76.14 46.37C76.02 46.04 76.01 45.68 75.86 45.37C75.71 45.06 75.49 44.79 75.32 44.49C75.15 44.19 75.01 43.88 74.81 43.59C74.61 43.3 74.53 42.93 74.31 42.66C74.09 42.39 73.86 42.13 73.62 41.88C73.38 41.63 73.14 41.37 72.88 41.14C72.62 40.91 72.33 40.71 72.04 40.51C71.75 40.31 71.36 40.29 71.06 40.11C70.76 39.93 70.52 39.66 70.21 39.52C69.9 39.38 69.57 39.29 69.24 39.17C68.91 39.05 68.59 38.97 68.25 38.88C67.91 38.79 67.59 38.7 67.24 38.64C66.89 38.58 66.58 38.43 66.23 38.39C65.88 38.35 65.54 38.39 65.19 38.39C64.84 38.39 64.5 38.39 64.15 38.4C63.8 38.41 63.45 38.29 63.1 38.32L63.08 38.26ZM38.33 53.64C38.31 53.99 38.5 54.37 38.44 54.7C38.38 55.03 38.1 55.34 37.99 55.66C37.88 55.98 37.97 56.4 37.83 56.71C37.69 57.02 37.28 57.21 37.11 57.5C36.93 57.81 36.97 58.24 36.77 58.52C36.56 58.81 36.29 59.05 36.07 59.3C35.83 59.58 35.54 59.8 35.31 60.02C35.03 60.29 34.84 60.62 34.62 60.81C34.14 61.22 34.22 61.49 33.73 61.35C33.62 61.01 33.49 60.68 33.4 60.34C33.31 60 33.23 59.66 33.15 59.32C33.07 58.98 32.95 58.64 32.89 58.3C32.83 57.96 32.95 57.58 32.9 57.23C32.85 56.88 32.61 56.55 32.58 56.2C32.55 55.85 32.62 55.48 32.61 55.14C32.6 54.8 32.64 54.43 32.65 54.08C32.66 53.73 32.72 53.37 32.75 53.03C32.78 52.67 32.73 52.31 32.78 51.98C32.83 51.62 32.95 51.28 33.02 50.95C33.1 50.59 33.12 50.23 33.23 49.92C33.35 49.56 33.63 49.31 33.79 49.02C33.97 48.68 34.13 48.4 34.35 48.18C34.62 47.91 34.85 47.61 35.18 47.55C35.54 47.48 35.91 47.38 36.22 47.41C36.57 47.45 36.96 47.57 37.24 47.76C37.5 47.94 37.77 48.23 37.96 48.56C38.11 48.82 38.17 49.19 38.27 49.56C38.35 49.86 38.42 50.2 38.47 50.56C38.51 50.87 38.34 51.22 38.35 51.59C38.36 51.91 38.53 52.24 38.53 52.6C38.53 52.92 38.37 53.26 38.35 53.62L38.33 53.64ZM62.36 62.55C62.06 62.44 61.74 62.46 61.47 62.21C61.23 62 61.15 61.61 60.94 61.31C60.75 61.04 60.38 60.86 60.22 60.54C60.07 60.25 60.18 59.82 60.06 59.49C59.94 59.16 59.57 58.94 59.48 58.6C59.39 58.26 59.36 57.92 59.29 57.58C59.22 57.24 59.23 56.89 59.19 56.55C59.15 56.21 59 55.87 58.99 55.53C58.98 55.19 59.09 54.83 59.11 54.49C59.13 54.15 59.13 53.79 59.19 53.46C59.25 53.11 59.33 52.77 59.44 52.46C59.55 52.12 59.65 51.77 59.82 51.49C60.01 51.19 60.36 51.04 60.62 50.82C60.88 50.6 61.1 50.26 61.44 50.16C61.75 50.07 62.12 50.11 62.5 50.13C62.86 50.15 63.18 50.29 63.46 50.45C63.74 50.61 63.94 50.87 64.14 51.16C64.32 51.42 64.53 51.68 64.63 52.03C64.72 52.33 64.74 52.67 64.79 53.02C64.83 53.34 64.92 53.67 64.93 54.02C64.93 54.34 64.76 54.67 64.73 55.02C64.7 55.34 64.7 55.67 64.65 56.01C64.6 56.33 64.69 56.69 64.61 57.03C64.53 57.37 64.53 57.7 64.44 58.03C64.35 58.36 64.26 58.68 64.15 59C64.04 59.32 63.94 59.64 63.82 59.96C63.7 60.28 63.5 60.56 63.36 60.87C63.22 61.18 63.09 61.48 62.94 61.79C62.79 62.1 62.54 62.25 62.38 62.55H62.36Z" fill="url(#paint2_linear_5602_25520)"/>
<path d="M63.08 38.26C62.74 38.29 62.42 38.56 62.09 38.61C61.76 38.66 61.38 38.54 61.05 38.61C60.72 38.68 60.45 39 60.13 39.11C59.81 39.22 59.39 39.08 59.08 39.21C58.77 39.34 58.58 39.74 58.28 39.9C57.98 40.06 57.66 40.18 57.38 40.36C57.1 40.54 56.78 40.69 56.51 40.9C56.24 41.11 56.06 41.41 55.8 41.64C55.54 41.87 55.23 42.02 54.99 42.27C54.75 42.52 54.55 42.79 54.34 43.05C54.13 43.31 53.92 43.58 53.72 43.85C53.52 44.12 53.38 44.44 53.2 44.73C53.02 45.02 52.7 45.22 52.53 45.52C52.36 45.82 52.4 46.21 52.26 46.52C52.12 46.83 51.9 47.1 51.77 47.41C51.64 47.72 51.48 48.02 51.36 48.35C51.24 48.68 51.09 48.98 51 49.31C50.91 49.64 50.89 49.99 50.82 50.32C50.75 50.65 50.62 50.97 50.55 51.31C50.48 51.65 50.51 51.99 50.46 52.33C50.41 52.67 50.21 52.99 50.18 53.33C50.15 53.67 50.16 54.01 50.15 54.36C50.14 54.71 50.28 55.04 50.28 55.39C50.28 55.74 50.36 56.06 50.37 56.41C50.38 56.76 50.41 57.08 50.44 57.42C50.47 57.76 50.51 58.09 50.55 58.43C50.59 58.77 50.55 59.11 50.61 59.45C50.67 59.79 50.72 60.12 50.8 60.45C50.88 60.78 50.75 61.16 50.83 61.49C50.91 61.82 51.16 62.11 51.26 62.43C51.36 62.75 51.38 63.11 51.49 63.43C51.6 63.75 51.9 64 52.02 64.32C52.14 64.64 52.29 64.94 52.43 65.25C52.57 65.56 52.65 65.9 52.8 66.2C52.95 66.5 53.18 66.76 53.35 67.06C53.52 67.36 53.71 67.63 53.89 67.92C54.07 68.21 54.1 68.59 54.29 68.88C54.48 69.17 54.75 69.38 54.96 69.66C55.17 69.94 55.31 70.22 55.53 70.48C55.23 70.67 54.91 70.77 54.61 70.94C54.31 71.11 54 71.29 53.68 71.44C53.36 71.59 53.08 71.82 52.75 71.94C52.42 72.06 52.11 72.27 51.77 72.37C51.43 72.47 51.08 72.53 50.73 72.6C50.38 72.67 50.04 72.78 49.69 72.83C49.34 72.88 48.98 72.83 48.62 72.86C48.26 72.89 47.91 72.88 47.56 72.86C47.21 72.84 46.86 72.78 46.5 72.74C46.15 72.71 45.83 72.56 45.5 72.5C45.17 72.44 44.83 72.39 44.5 72.31C44.17 72.23 43.78 72.31 43.46 72.2C43.14 72.09 42.84 71.88 42.53 71.75C42.22 71.62 41.91 71.46 41.61 71.31C41.31 71.16 41.01 70.99 40.72 70.81C40.43 70.63 40.12 70.48 39.84 70.28C39.56 70.08 39.19 69.87 38.93 69.65C38.96 69.14 39.3 69.4 39.77 68.95C39.98 68.75 40.25 68.53 40.53 68.26C40.75 68.04 41.01 67.8 41.26 67.54C41.48 67.31 41.67 67.01 41.91 66.75C42.13 66.51 42.44 66.32 42.67 66.05C42.89 65.8 42.96 65.41 43.18 65.14C43.4 64.87 43.82 64.78 44.04 64.51C44.26 64.24 44.32 63.86 44.53 63.58C44.74 63.3 44.99 63.07 45.19 62.78C45.39 62.49 45.44 62.12 45.62 61.83C45.8 61.54 45.98 61.25 46.15 60.95C46.32 60.65 46.67 60.46 46.84 60.15C47.01 59.84 46.99 59.46 47.14 59.14C47.29 58.82 47.46 58.53 47.59 58.22C47.72 57.91 48 57.64 48.12 57.32C48.24 57 48.18 56.61 48.28 56.28C48.38 55.95 48.59 55.65 48.67 55.32C48.75 54.99 48.96 54.67 49.02 54.33C49.08 53.99 49.02 53.63 49.06 53.29C49.09 52.95 49.05 52.61 49.06 52.28C49.07 51.95 49.25 51.61 49.26 51.28C49.27 50.95 49.2 50.6 49.2 50.27C49.2 49.94 49.06 49.6 49.04 49.26C49.02 48.92 49.06 48.58 49.04 48.25C49.02 47.92 49.06 47.57 49.02 47.24C48.98 46.91 48.86 46.58 48.8 46.25C48.74 45.92 48.65 45.59 48.58 45.26C48.51 44.93 48.36 44.62 48.27 44.3C48.18 43.98 48.16 43.63 48.05 43.31C47.94 42.99 47.75 42.71 47.62 42.4C47.49 42.09 47.57 41.68 47.43 41.38C47.29 41.08 46.9 40.9 46.73 40.61C46.56 40.32 46.57 39.91 46.38 39.64C46.19 39.37 45.91 39.14 45.7 38.88C45.49 38.62 45.22 38.41 44.98 38.17C44.74 37.93 44.52 37.68 44.26 37.47C44 37.26 43.77 37 43.49 36.82C43.21 36.64 42.95 36.4 42.65 36.24C42.35 36.08 41.94 36.18 41.63 36.05C41.32 35.92 41.02 35.82 40.69 35.72C40.36 35.62 40.07 35.49 39.74 35.41C39.41 35.33 39.12 35.06 38.78 35.02C38.44 34.98 38.11 34.96 37.76 34.95C37.41 34.93 37.06 35.18 36.72 35.19C36.38 35.2 36.02 35.12 35.68 35.17C35.34 35.22 35.01 35.36 34.68 35.44C34.35 35.52 34.01 35.59 33.68 35.71C33.35 35.83 32.97 35.8 32.65 35.94C32.33 36.08 32 36.21 31.7 36.37C31.4 36.53 31.12 36.76 30.83 36.95C30.54 37.14 30.21 37.28 29.93 37.49C29.65 37.7 29.39 37.94 29.13 38.17C28.87 38.4 28.75 38.78 28.51 39.03C28.27 39.28 28.08 39.57 27.85 39.83C27.62 40.09 27.2 40.18 26.98 40.46C26.76 40.74 26.69 41.11 26.48 41.39C26.27 41.67 25.98 41.89 25.79 42.18C25.6 42.47 25.5 42.81 25.33 43.12C25.16 43.43 24.87 43.66 24.71 43.97C24.55 44.28 24.51 44.65 24.37 44.96C24.23 45.27 24.22 45.65 24.09 45.97C23.96 46.29 23.71 46.56 23.6 46.89C23.49 47.22 23.34 47.53 23.24 47.87C23.14 48.21 22.95 48.51 22.86 48.85C22.77 49.19 22.94 49.58 22.86 49.92C22.78 50.26 22.57 50.57 22.51 50.91C22.45 51.25 22.46 51.6 22.41 51.95C22.36 52.3 22.39 52.64 22.35 52.99C22.31 53.34 22.19 53.67 22.16 54.02C22.13 54.37 22.08 54.71 22.07 55.06C22.06 55.41 22.15 55.75 22.16 56.1C22.17 56.45 22.23 56.79 22.25 57.13C22.27 57.48 22.13 57.84 22.15 58.19C22.17 58.54 22.27 58.88 22.3 59.24C22.33 59.6 22.31 59.94 22.35 60.3C22.39 60.66 22.31 61.01 22.36 61.36C22.41 61.71 22.65 62.03 22.71 62.38C22.77 62.73 22.78 63.08 22.85 63.43C22.92 63.78 23.13 64.09 23.21 64.43C23.29 64.77 23.32 65.12 23.41 65.47C23.5 65.82 23.6 66.14 23.7 66.48C23.8 66.82 23.78 67.19 23.89 67.53C23.99 67.85 24.24 68.13 24.36 68.44C24.48 68.75 24.59 69.07 24.72 69.39C24.85 69.71 24.8 70.1 24.94 70.41C25.08 70.72 25.39 70.95 25.55 71.25C25.71 71.55 25.71 71.93 25.88 72.23C26.05 72.53 26.39 72.72 26.56 73.01C26.73 73.3 26.71 73.72 26.9 74C27.09 74.28 27.41 74.48 27.61 74.75C27.81 75.02 27.9 75.38 28.12 75.65C28.34 75.92 28.71 76.04 28.94 76.29C29.17 76.54 29.42 76.76 29.66 77L29.51 77.16C29.74 77.4 30.13 77.47 30.38 77.7C30.63 77.93 30.84 78.18 31.1 78.39C31.36 78.6 31.51 78.95 31.77 79.16C32.03 79.37 32.29 79.58 32.57 79.77C32.85 79.96 33.17 80.07 33.46 80.25C33.75 80.43 34.08 80.5 34.38 80.67C34.68 80.84 34.91 81.09 35.21 81.25C35.51 81.41 35.78 81.61 36.09 81.75C36.4 81.89 36.7 82.02 37.02 82.15C37.34 82.28 37.66 82.36 37.97 82.47C38.28 82.58 38.63 82.61 38.95 82.72C39.27 82.83 39.56 83.01 39.89 83.1C40.22 83.19 40.54 83.27 40.86 83.35C41.18 83.43 41.53 83.39 41.86 83.47C42.19 83.55 42.52 83.53 42.86 83.59C43.2 83.65 43.51 83.72 43.84 83.77C44.17 83.82 44.49 83.93 44.82 83.97C45.15 84.01 45.48 84.07 45.81 84.11C46.14 84.15 46.46 84.33 46.8 84.35C47.14 84.37 47.47 84.41 47.81 84.43C48.16 84.45 48.51 84.47 48.86 84.48C49.21 84.49 49.56 84.32 49.91 84.32C50.26 84.32 50.62 84.46 50.96 84.44C51.3 84.42 51.65 84.31 52 84.27C52.35 84.23 52.69 84.12 53.03 84.07C53.37 84.02 53.74 84.05 54.07 83.98C54.4 83.91 54.77 83.91 55.11 83.83C55.45 83.75 55.79 83.65 56.12 83.56C56.45 83.47 56.79 83.35 57.12 83.24C57.45 83.13 57.76 82.94 58.08 82.81C58.4 82.68 58.72 82.54 59.04 82.39C59.36 82.24 59.73 82.2 60.03 82.04C60.33 81.88 60.57 81.57 60.87 81.4C61.17 81.23 61.47 81.05 61.77 80.87C62.07 80.69 62.36 80.5 62.64 80.3C62.92 80.1 63.28 80 63.56 79.79C63.84 79.58 64.13 79.38 64.4 79.16C64.67 78.94 64.89 78.66 65.15 78.43C65.41 78.2 65.61 77.89 65.86 77.65C66.11 77.41 66.5 77.3 66.75 77.05C67 76.8 67.25 76.55 67.48 76.29C67.71 76.03 67.75 75.59 67.97 75.32C68.19 75.05 68.58 74.91 68.8 74.64C69.02 74.37 69.28 74.12 69.49 73.84C69.7 73.56 69.68 73.11 69.88 72.82C70.08 72.53 70.28 72.25 70.47 71.96C70.66 71.67 70.95 71.43 71.13 71.14C71.31 70.85 71.53 70.56 71.71 70.26C71.89 69.95 72.06 69.64 72.23 69.34C72.4 69.04 72.56 68.71 72.72 68.4C72.88 68.09 73.02 67.75 73.17 67.44C73.32 67.13 73.63 66.87 73.78 66.55C73.93 66.23 74.08 65.9 74.22 65.58C74.36 65.26 74.45 64.9 74.58 64.58C74.71 64.26 74.72 63.86 74.85 63.54C74.98 63.22 75.14 62.89 75.26 62.56C75.38 62.23 75.59 61.92 75.7 61.59C75.82 61.25 75.9 60.9 76.01 60.57C76.12 60.22 76.22 59.88 76.32 59.56C76.43 59.21 76.54 58.87 76.63 58.55C76.73 58.19 76.69 57.81 76.77 57.49C76.86 57.12 77.17 56.83 77.24 56.52C77.31 56.2 77.4 55.85 77.45 55.5C77.5 55.17 77.29 54.8 77.32 54.44C77.35 54.08 77.44 53.77 77.45 53.42C77.46 53.07 77.52 52.74 77.51 52.39C77.5 52.04 77.43 51.71 77.4 51.36C77.37 51.01 77.45 50.66 77.4 50.31C77.35 49.96 77.26 49.63 77.2 49.29C77.14 48.95 77.13 48.59 77.04 48.26C76.95 47.93 76.63 47.66 76.52 47.33C76.41 47 76.26 46.7 76.14 46.37C76.02 46.04 76.01 45.68 75.86 45.37C75.71 45.06 75.49 44.79 75.32 44.49C75.15 44.19 75.01 43.88 74.81 43.59C74.61 43.3 74.53 42.93 74.31 42.66C74.09 42.39 73.86 42.13 73.62 41.88C73.38 41.63 73.14 41.37 72.88 41.14C72.62 40.91 72.33 40.71 72.04 40.51C71.75 40.31 71.36 40.29 71.06 40.11C70.76 39.93 70.52 39.66 70.21 39.52C69.9 39.38 69.57 39.29 69.24 39.17C68.91 39.05 68.59 38.97 68.25 38.88C67.91 38.79 67.59 38.7 67.24 38.64C66.89 38.58 66.58 38.43 66.23 38.39C65.88 38.35 65.54 38.39 65.19 38.39C64.84 38.39 64.5 38.39 64.15 38.4C63.8 38.41 63.45 38.29 63.1 38.32L63.08 38.26ZM38.33 53.64C38.31 53.99 38.5 54.37 38.44 54.7C38.38 55.03 38.1 55.34 37.99 55.66C37.88 55.98 37.97 56.4 37.83 56.71C37.69 57.02 37.28 57.21 37.11 57.5C36.93 57.81 36.97 58.24 36.77 58.52C36.56 58.81 36.29 59.05 36.07 59.3C35.83 59.58 35.54 59.8 35.31 60.02C35.03 60.29 34.84 60.62 34.62 60.81C34.14 61.22 34.22 61.49 33.73 61.35C33.62 61.01 33.49 60.68 33.4 60.34C33.31 60 33.23 59.66 33.15 59.32C33.07 58.98 32.95 58.64 32.89 58.3C32.83 57.96 32.95 57.58 32.9 57.23C32.85 56.88 32.61 56.55 32.58 56.2C32.55 55.85 32.62 55.48 32.61 55.14C32.6 54.8 32.64 54.43 32.65 54.08C32.66 53.73 32.72 53.37 32.75 53.03C32.78 52.67 32.73 52.31 32.78 51.98C32.83 51.62 32.95 51.28 33.02 50.95C33.1 50.59 33.12 50.23 33.23 49.92C33.35 49.56 33.63 49.31 33.79 49.02C33.97 48.68 34.13 48.4 34.35 48.18C34.62 47.91 34.85 47.61 35.18 47.55C35.54 47.48 35.91 47.38 36.22 47.41C36.57 47.45 36.96 47.57 37.24 47.76C37.5 47.94 37.77 48.23 37.96 48.56C38.11 48.82 38.17 49.19 38.27 49.56C38.35 49.86 38.42 50.2 38.47 50.56C38.51 50.87 38.34 51.22 38.35 51.59C38.36 51.91 38.53 52.24 38.53 52.6C38.53 52.92 38.37 53.26 38.35 53.62L38.33 53.64ZM62.36 62.55C62.06 62.44 61.74 62.46 61.47 62.21C61.23 62 61.15 61.61 60.94 61.31C60.75 61.04 60.38 60.86 60.22 60.54C60.07 60.25 60.18 59.82 60.06 59.49C59.94 59.16 59.57 58.94 59.48 58.6C59.39 58.26 59.36 57.92 59.29 57.58C59.22 57.24 59.23 56.89 59.19 56.55C59.15 56.21 59 55.87 58.99 55.53C58.98 55.19 59.09 54.83 59.11 54.49C59.13 54.15 59.13 53.79 59.19 53.46C59.25 53.11 59.33 52.77 59.44 52.46C59.55 52.12 59.65 51.77 59.82 51.49C60.01 51.19 60.36 51.04 60.62 50.82C60.88 50.6 61.1 50.26 61.44 50.16C61.75 50.07 62.12 50.11 62.5 50.13C62.86 50.15 63.18 50.29 63.46 50.45C63.74 50.61 63.94 50.87 64.14 51.16C64.32 51.42 64.53 51.68 64.63 52.03C64.72 52.33 64.74 52.67 64.79 53.02C64.83 53.34 64.92 53.67 64.93 54.02C64.93 54.34 64.76 54.67 64.73 55.02C64.7 55.34 64.7 55.67 64.65 56.01C64.6 56.33 64.69 56.69 64.61 57.03C64.53 57.37 64.53 57.7 64.44 58.03C64.35 58.36 64.26 58.68 64.15 59C64.04 59.32 63.94 59.64 63.82 59.96C63.7 60.28 63.5 60.56 63.36 60.87C63.22 61.18 63.09 61.48 62.94 61.79C62.79 62.1 62.54 62.25 62.38 62.55H62.36Z" stroke="#C6844E" stroke-width="1.5" stroke-miterlimit="10"/>
<path d="M33.66 61.37C33.73 61.68 33.78 62.02 33.89 62.35C34 62.65 34.34 62.88 34.47 63.2C34.6 63.52 34.56 63.89 34.71 64.19C34.86 64.49 35.21 64.67 35.38 64.97C35.55 65.27 35.48 65.69 35.65 65.97C35.82 66.25 36.24 66.39 36.43 66.66C36.62 66.93 36.77 67.24 36.97 67.5C37.18 67.77 37.35 68.07 37.56 68.31C37.79 68.57 38.1 68.73 38.33 68.95C38.59 69.2 38.77 69.5 39.02 69.67" stroke="#C6844E" stroke-width="1.5" stroke-miterlimit="10"/>
<path d="M55.5699 70.48C58.5999 68.67 61.7699 64.31 62.4099 62.68" stroke="#C6844E" stroke-width="1.5" stroke-miterlimit="10"/>
<path d="M39.76 62.14C41.7151 62.14 43.3 60.6222 43.3 58.75C43.3 56.8777 41.7151 55.36 39.76 55.36C37.8049 55.36 36.22 56.8777 36.22 58.75C36.22 60.6222 37.8049 62.14 39.76 62.14Z" fill="url(#paint3_radial_5602_25520)"/>
<path d="M56.9799 62.14C58.935 62.14 60.5199 60.6222 60.5199 58.75C60.5199 56.8777 58.935 55.36 56.9799 55.36C55.0249 55.36 53.4399 56.8777 53.4399 58.75C53.4399 60.6222 55.0249 62.14 56.9799 62.14Z" fill="url(#paint4_radial_5602_25520)"/>
<path d="M56.5901 56.23C56.5901 56.42 56.5601 56.6 56.5301 56.77C56.5001 56.96 56.4601 57.13 56.4001 57.3C56.3401 57.48 56.2901 57.66 56.2001 57.81C56.1001 57.97 55.9701 58.11 55.8401 58.23C55.7001 58.36 55.5501 58.47 55.3901 58.55C55.2301 58.63 55.0301 58.64 54.8501 58.64C54.6701 58.64 54.5001 58.57 54.3301 58.5C54.1601 58.43 54.0001 58.37 53.8601 58.24C53.7301 58.12 53.5801 58 53.4701 57.85C53.3701 57.7 53.3201 57.52 53.2501 57.34C53.1901 57.18 53.1401 57 53.1101 56.81C53.0801 56.64 53.0601 56.45 53.0601 56.27C53.0601 56.09 53.0901 55.9 53.1201 55.73C53.1501 55.54 53.1801 55.37 53.2401 55.2C53.3001 55.02 53.3301 54.83 53.4301 54.68C53.5301 54.52 53.7101 54.43 53.8401 54.31C53.9801 54.18 54.1101 54.07 54.2701 54C54.4301 53.93 54.6001 53.81 54.7901 53.81C54.9801 53.81 55.1701 53.86 55.3401 53.93C55.5101 54 55.6501 54.12 55.8001 54.24C55.9301 54.36 56.0501 54.5 56.1601 54.66C56.2601 54.81 56.3201 54.98 56.3901 55.16C56.4501 55.32 56.5301 55.5 56.5701 55.68C56.6001 55.85 56.5901 56.04 56.6001 56.23H56.5901Z" fill="#5E381F"/>
<path d="M39.83 55.68C39.84 55.49 39.85 55.3 39.89 55.13C39.93 54.95 40.06 54.8 40.13 54.64C40.21 54.47 40.28 54.3 40.38 54.16C40.49 54.01 40.6 53.86 40.73 53.75C40.88 53.63 41.03 53.51 41.2 53.46C41.37 53.41 41.56 53.39 41.75 53.4C41.94 53.41 42.1 53.49 42.27 53.57C42.44 53.65 42.54 53.78 42.68 53.92C42.8 54.05 42.96 54.15 43.05 54.32C43.14 54.47 43.16 54.66 43.22 54.84C43.27 55.01 43.28 55.19 43.3 55.37C43.32 55.55 43.34 55.72 43.33 55.91C43.32 56.1 43.33 56.28 43.29 56.45C43.25 56.63 43.18 56.8 43.1 56.96C43.02 57.13 42.93 57.29 42.83 57.43C42.72 57.58 42.6 57.72 42.47 57.83C42.32 57.95 42.17 58.06 42.01 58.11C41.85 58.16 41.66 58.16 41.47 58.15C41.28 58.14 41.12 58.09 40.96 58.01C40.8 57.93 40.63 57.86 40.5 57.72C40.38 57.59 40.28 57.43 40.19 57.27C40.1 57.12 40 56.96 39.95 56.78C39.9 56.61 39.9 56.42 39.88 56.23C39.86 56.05 39.84 55.87 39.85 55.68H39.83Z" fill="#5E381F"/>
<path d="M49.05 62.84C49.47 63.17 49.38 63.07 49.98 63.26C50.27 63.35 50.5901 63.45 50.9901 63.47C51.3101 63.49 51.6501 63.51 52.0401 63.44C52.3601 63.38 52.7301 63.37 53.0801 63.22C53.4301 63.07 53.7801 62.85 54.0401 62.61C54.3401 62.34 54.4601 61.94 54.6501 61.66C55.0101 61.12 55.2001 61.3 55.3801 60.77" stroke="#A05A20" stroke-width="1.5" stroke-linecap="round" stroke-linejoin="round"/>
<path d="M39.49 38.06C38.42 38.66 39 39.58 39.96 39.44C40.92 39.3 40.91 38.38 40.37 37.97C39.83 37.56 39.49 38.06 39.49 38.06Z" fill="#FCCE9F"/>
<path d="M42.96 45.81C41.89 46.41 42.47 47.33 43.43 47.19C44.39 47.05 44.38 46.13 43.84 45.72C43.3 45.31 42.96 45.81 42.96 45.81Z" fill="#FCCE9F"/>
<path d="M35.34 40.52C34.19 40.75 34.74 41.91 35.7 41.77C36.66 41.63 37.24 41.2 36.7 40.78C36.16 40.36 35.35 40.52 35.35 40.52H35.34Z" fill="#FCCE9F"/>
<path d="M42.26 41.21C41.11 41.44 42.43 42.61 43.38 42.47C44.33 42.33 44.15 41.88 43.62 41.47C43.09 41.06 42.27 41.21 42.27 41.21H42.26Z" fill="#FCCE9F"/>
<path d="M64.17 44.84C64.54 43.95 62.8 43.92 62.45 44.62C62.1 45.32 62.6 45.54 63.25 45.5C63.9 45.46 64.17 44.83 64.17 44.83V44.84Z" fill="#FCCE9F"/>
<path d="M64.63 41.81C65.78 42.02 65.69 40.74 64.76 40.52C63.83 40.3 63.12 40.49 63.47 41.07C63.82 41.65 64.64 41.81 64.64 41.81H64.63Z" fill="#FCCE9F"/>
<path d="M56.95 47.67C58.12 47.61 57.75 46.39 56.78 46.38C55.81 46.37 55.17 46.72 55.65 47.21C56.13 47.7 56.95 47.67 56.95 47.67Z" fill="#FCCE9F"/>
<path d="M59.31 43.43C59.99 42.42 59.06 41.86 58.27 42.41C57.48 42.96 57.89 43.78 58.56 43.91C59.23 44.04 59.31 43.43 59.31 43.43Z" fill="#FCCE9F"/>
</g>
<defs>
<linearGradient id="paint0_linear_5602_25520" x1="23.4941" y1="67.5653" x2="23.7189" y2="79.1631" gradientUnits="userSpaceOnUse">
<stop stop-color="#D9985B"/>
<stop offset="1" stop-color="#F1A967"/>
</linearGradient>
<linearGradient id="paint1_linear_5602_25520" x1="70.9245" y1="81.059" x2="70.7122" y2="70.101" gradientUnits="userSpaceOnUse">
<stop stop-color="#EFA865"/>
<stop offset="1" stop-color="#D9985B"/>
</linearGradient>
<linearGradient id="paint2_linear_5602_25520" x1="49.4222" y1="34.6968" x2="50.3854" y2="84.4075" gradientUnits="userSpaceOnUse">
<stop stop-color="#F2AA67"/>
<stop offset="1" stop-color="#D8975B"/>
</linearGradient>
<radialGradient id="paint3_radial_5602_25520" cx="0" cy="0" r="1" gradientUnits="userSpaceOnUse" gradientTransform="translate(39.6297 59.013) scale(3.5334 3.4126)">
<stop stop-color="#C97B41" stop-opacity="0.7"/>
<stop offset="1" stop-color="#DB8F4F" stop-opacity="0"/>
</radialGradient>
<radialGradient id="paint4_radial_5602_25520" cx="0" cy="0" r="1" gradientUnits="userSpaceOnUse" gradientTransform="translate(56.8052 -7.205) scale(0.585 0.565)">
<stop stop-color="#C97B41" stop-opacity="0.7"/>
<stop offset="1" stop-color="#DB8F4F" stop-opacity="0"/>
</radialGradient>
<clipPath id="clip0_5602_25520">
<rect width="100" height="100" fill="white"/>
</clipPath>
</defs>
</svg>
